G04 #@! TF.FileFunction,Glue,Top*
%FSLAX46Y46*%
G04 Gerber Fmt 4.6, Leading zero omitted, Abs format (unit mm)*
G04 Created by KiCad (PCBNEW 4.0.2+dfsg1-stable) date Wed 06 Jul 2016 03:59:12 PM CEST*
%MOMM*%
G01*
G04 APERTURE LIST*
%ADD10C,0.100000*%
%ADD11C,0.381000*%
G04 APERTURE END LIST*
D10*
D11*
X152600900Y-79750000D02*
G75*
G03X152600900Y-79750000I-850900J0D01*
G01*
X152250380Y-79750000D02*
G75*
G03X152250380Y-79750000I-500380J0D01*
G01*
X151908236Y-79750000D02*
G75*
G03X151908236Y-79750000I-158236J0D01*
G01*
X158350900Y-112500000D02*
G75*
G03X158350900Y-112500000I-850900J0D01*
G01*
X158000380Y-112500000D02*
G75*
G03X158000380Y-112500000I-500380J0D01*
G01*
X157658236Y-112500000D02*
G75*
G03X157658236Y-112500000I-158236J0D01*
G01*
X192350900Y-106000000D02*
G75*
G03X192350900Y-106000000I-850900J0D01*
G01*
X192000380Y-106000000D02*
G75*
G03X192000380Y-106000000I-500380J0D01*
G01*
X191658236Y-106000000D02*
G75*
G03X191658236Y-106000000I-158236J0D01*
G01*
X186225900Y-77125000D02*
G75*
G03X186225900Y-77125000I-850900J0D01*
G01*
X185875380Y-77125000D02*
G75*
G03X185875380Y-77125000I-500380J0D01*
G01*
X185533236Y-77125000D02*
G75*
G03X185533236Y-77125000I-158236J0D01*
G01*
X186975900Y-26125000D02*
G75*
G03X186975900Y-26125000I-850900J0D01*
G01*
X186625380Y-26125000D02*
G75*
G03X186625380Y-26125000I-500380J0D01*
G01*
X186283236Y-26125000D02*
G75*
G03X186283236Y-26125000I-158236J0D01*
G01*
X193100900Y-55000000D02*
G75*
G03X193100900Y-55000000I-850900J0D01*
G01*
X192750380Y-55000000D02*
G75*
G03X192750380Y-55000000I-500380J0D01*
G01*
X192408236Y-55000000D02*
G75*
G03X192408236Y-55000000I-158236J0D01*
G01*
X159100900Y-61500000D02*
G75*
G03X159100900Y-61500000I-850900J0D01*
G01*
X158750380Y-61500000D02*
G75*
G03X158750380Y-61500000I-500380J0D01*
G01*
X158408236Y-61500000D02*
G75*
G03X158408236Y-61500000I-158236J0D01*
G01*
X153350900Y-28750000D02*
G75*
G03X153350900Y-28750000I-850900J0D01*
G01*
X153000380Y-28750000D02*
G75*
G03X153000380Y-28750000I-500380J0D01*
G01*
X152658236Y-28750000D02*
G75*
G03X152658236Y-28750000I-158236J0D01*
G01*
X129350900Y-102750000D02*
G75*
G03X129350900Y-102750000I-850900J0D01*
G01*
X129000380Y-102750000D02*
G75*
G03X129000380Y-102750000I-500380J0D01*
G01*
X128658236Y-102750000D02*
G75*
G03X128658236Y-102750000I-158236J0D01*
G01*
X123600900Y-70000000D02*
G75*
G03X123600900Y-70000000I-850900J0D01*
G01*
X123250380Y-70000000D02*
G75*
G03X123250380Y-70000000I-500380J0D01*
G01*
X122908236Y-70000000D02*
G75*
G03X122908236Y-70000000I-158236J0D01*
G01*
X89600900Y-76500000D02*
G75*
G03X89600900Y-76500000I-850900J0D01*
G01*
X89250380Y-76500000D02*
G75*
G03X89250380Y-76500000I-500380J0D01*
G01*
X88908236Y-76500000D02*
G75*
G03X88908236Y-76500000I-158236J0D01*
G01*
X95725900Y-105375000D02*
G75*
G03X95725900Y-105375000I-850900J0D01*
G01*
X95375380Y-105375000D02*
G75*
G03X95375380Y-105375000I-500380J0D01*
G01*
X95033236Y-105375000D02*
G75*
G03X95033236Y-105375000I-158236J0D01*
G01*
X96475900Y-54375000D02*
G75*
G03X96475900Y-54375000I-850900J0D01*
G01*
X96125380Y-54375000D02*
G75*
G03X96125380Y-54375000I-500380J0D01*
G01*
X95783236Y-54375000D02*
G75*
G03X95783236Y-54375000I-158236J0D01*
G01*
X90350900Y-25500000D02*
G75*
G03X90350900Y-25500000I-850900J0D01*
G01*
X90000380Y-25500000D02*
G75*
G03X90000380Y-25500000I-500380J0D01*
G01*
X89658236Y-25500000D02*
G75*
G03X89658236Y-25500000I-158236J0D01*
G01*
X124350900Y-19000000D02*
G75*
G03X124350900Y-19000000I-850900J0D01*
G01*
X124000380Y-19000000D02*
G75*
G03X124000380Y-19000000I-500380J0D01*
G01*
X123658236Y-19000000D02*
G75*
G03X123658236Y-19000000I-158236J0D01*
G01*
X130100900Y-51750000D02*
G75*
G03X130100900Y-51750000I-850900J0D01*
G01*
X129750380Y-51750000D02*
G75*
G03X129750380Y-51750000I-500380J0D01*
G01*
X129408236Y-51750000D02*
G75*
G03X129408236Y-51750000I-158236J0D01*
G01*
M02*
