G04 #@! TF.FileFunction,Soldermask,Bot*
%FSLAX46Y46*%
G04 Gerber Fmt 4.6, Leading zero omitted, Abs format (unit mm)*
G04 Created by KiCad (PCBNEW 4.0.2+dfsg1-stable) date Wed 06 Jul 2016 03:59:12 PM CEST*
%MOMM*%
G01*
G04 APERTURE LIST*
%ADD10C,0.100000*%
%ADD11C,1.846580*%
%ADD12R,1.879600X1.574800*%
%ADD13O,1.879600X1.574800*%
%ADD14R,1.574800X1.879600*%
%ADD15O,1.574800X1.879600*%
%ADD16R,2.082800X2.082800*%
G04 APERTURE END LIST*
D10*
D11*
X139750000Y-88750000D03*
X142450020Y-86049980D03*
X137049980Y-86049980D03*
X137049980Y-91450020D03*
X142450020Y-91450020D03*
D12*
X203500000Y-30000000D03*
D13*
X203500000Y-32540000D03*
X203500000Y-35080000D03*
X203500000Y-37620000D03*
X203500000Y-40160000D03*
X203500000Y-42700000D03*
X203500000Y-45240000D03*
X203500000Y-47780000D03*
X203500000Y-50320000D03*
X203500000Y-52860000D03*
X203500000Y-55400000D03*
X203500000Y-57940000D03*
X203500000Y-60480000D03*
X203500000Y-63020000D03*
X203500000Y-65560000D03*
X203500000Y-68100000D03*
X203500000Y-70640000D03*
X203500000Y-73180000D03*
X203500000Y-75720000D03*
X203500000Y-78260000D03*
X203500000Y-80800000D03*
X203500000Y-83340000D03*
X203500000Y-85880000D03*
X203500000Y-88420000D03*
X203500000Y-90960000D03*
X203500000Y-93500000D03*
X203500000Y-96040000D03*
X203500000Y-98580000D03*
X203500000Y-101120000D03*
X203500000Y-103660000D03*
X203500000Y-106200000D03*
X203500000Y-108740000D03*
D12*
X79500000Y-28750000D03*
D13*
X79500000Y-31290000D03*
X79500000Y-33830000D03*
X79500000Y-36370000D03*
X79500000Y-38910000D03*
X79500000Y-41450000D03*
X79500000Y-43990000D03*
X79500000Y-46530000D03*
X79500000Y-49070000D03*
X79500000Y-51610000D03*
X79500000Y-54150000D03*
X79500000Y-56690000D03*
X79500000Y-59230000D03*
X79500000Y-61770000D03*
X79500000Y-64310000D03*
X79500000Y-66850000D03*
X79500000Y-69390000D03*
X79500000Y-71930000D03*
X79500000Y-74470000D03*
X79500000Y-77010000D03*
X79500000Y-79550000D03*
X79500000Y-82090000D03*
X79500000Y-84630000D03*
X79500000Y-87170000D03*
X79500000Y-89710000D03*
X79500000Y-92250000D03*
X79500000Y-94790000D03*
X79500000Y-97330000D03*
X79500000Y-99870000D03*
X79500000Y-102410000D03*
X79500000Y-104950000D03*
X79500000Y-107490000D03*
D14*
X137700000Y-18500000D03*
D15*
X140240000Y-18500000D03*
X142780000Y-18500000D03*
X145320000Y-18500000D03*
D16*
X79500000Y-115000000D03*
X203500000Y-115000000D03*
M02*
