%FSLAX45Y45*%
G04 Gerber Fmt 4.5, Leading zero omitted, Abs format (unit mm)*
G04 Created by KiCad (PCBNEW 4.0.2+dfsg1-stable) date Wed 06 Jul 2016 03:59:24 PM CEST*
%MOMM*%
G01*
G04 APERTURE LIST*
%ADD10C,0.127000*%
%ADD11C,0.100000*%
%ADD12C,0.200000*%
%ADD13C,0.300000*%
G04 APERTURE END LIST*
D10*
D11*
X7225000Y-1375000D02*
X21000000Y-1375000D01*
X7225000Y-11900000D02*
X7225000Y-1375000D01*
X21000000Y-11900000D02*
X7225000Y-11900000D01*
X21000000Y-1375000D02*
X21000000Y-11900000D01*
D12*
X7475000Y-2250000D02*
X7505000Y-2280000D01*
X7505000Y-2250000D02*
X7475000Y-2280000D01*
X7475000Y-2675000D02*
X7505000Y-2705000D01*
X7505000Y-2675000D02*
X7475000Y-2705000D01*
X7475000Y-3000000D02*
X7505000Y-3030000D01*
X7505000Y-3000000D02*
X7475000Y-3030000D01*
X7475000Y-3300000D02*
X7505000Y-3330000D01*
X7505000Y-3300000D02*
X7475000Y-3330000D01*
X7475000Y-3625000D02*
X7505000Y-3655000D01*
X7505000Y-3625000D02*
X7475000Y-3655000D01*
X7475000Y-3925000D02*
X7505000Y-3955000D01*
X7505000Y-3925000D02*
X7475000Y-3955000D01*
X7475000Y-4325000D02*
X7505000Y-4355000D01*
X7505000Y-4325000D02*
X7475000Y-4355000D01*
X7475000Y-4700000D02*
X7505000Y-4730000D01*
X7505000Y-4700000D02*
X7475000Y-4730000D01*
X7475000Y-5125000D02*
X7505000Y-5155000D01*
X7505000Y-5125000D02*
X7475000Y-5155000D01*
X7475000Y-5450000D02*
X7505000Y-5480000D01*
X7505000Y-5450000D02*
X7475000Y-5480000D01*
X7475000Y-5750000D02*
X7505000Y-5780000D01*
X7505000Y-5750000D02*
X7475000Y-5780000D01*
X7475000Y-6075000D02*
X7505000Y-6105000D01*
X7505000Y-6075000D02*
X7475000Y-6105000D01*
X7475000Y-6375000D02*
X7505000Y-6405000D01*
X7505000Y-6375000D02*
X7475000Y-6405000D01*
X7475000Y-6775000D02*
X7505000Y-6805000D01*
X7505000Y-6775000D02*
X7475000Y-6805000D01*
X7475000Y-7175000D02*
X7505000Y-7205000D01*
X7505000Y-7175000D02*
X7475000Y-7205000D01*
X7475000Y-7475000D02*
X7505000Y-7505000D01*
X7505000Y-7475000D02*
X7475000Y-7505000D01*
X7475000Y-7875000D02*
X7505000Y-7905000D01*
X7505000Y-7875000D02*
X7475000Y-7905000D01*
X7475000Y-8250000D02*
X7505000Y-8280000D01*
X7505000Y-8250000D02*
X7475000Y-8280000D01*
X7475000Y-8675000D02*
X7505000Y-8705000D01*
X7505000Y-8675000D02*
X7475000Y-8705000D01*
X7475000Y-9000000D02*
X7505000Y-9030000D01*
X7505000Y-9000000D02*
X7475000Y-9030000D01*
X7475000Y-9300000D02*
X7505000Y-9330000D01*
X7505000Y-9300000D02*
X7475000Y-9330000D01*
X7475000Y-9625000D02*
X7505000Y-9655000D01*
X7505000Y-9625000D02*
X7475000Y-9655000D01*
X7475000Y-9925000D02*
X7505000Y-9955000D01*
X7505000Y-9925000D02*
X7475000Y-9955000D01*
X7475000Y-10325000D02*
X7505000Y-10355000D01*
X7505000Y-10325000D02*
X7475000Y-10355000D01*
X9310000Y-9485000D02*
X9340000Y-9515000D01*
X9340000Y-9485000D02*
X9310000Y-9515000D01*
X9385000Y-4385000D02*
X9415000Y-4415000D01*
X9415000Y-4385000D02*
X9385000Y-4415000D01*
X9460000Y-9485000D02*
X9490000Y-9515000D01*
X9490000Y-9485000D02*
X9460000Y-9515000D01*
X9535000Y-4385000D02*
X9565000Y-4415000D01*
X9565000Y-4385000D02*
X9535000Y-4415000D01*
X9760000Y-7560000D02*
X9790000Y-7590000D01*
X9790000Y-7560000D02*
X9760000Y-7590000D01*
X9835000Y-2460000D02*
X9865000Y-2490000D01*
X9865000Y-2460000D02*
X9835000Y-2490000D01*
X9865000Y-8305000D02*
X9895000Y-8335000D01*
X9895000Y-8305000D02*
X9865000Y-8335000D01*
X9910000Y-7560000D02*
X9940000Y-7590000D01*
X9940000Y-7560000D02*
X9910000Y-7590000D01*
X9945000Y-3235000D02*
X9975000Y-3265000D01*
X9975000Y-3235000D02*
X9945000Y-3265000D01*
X9955000Y-8405000D02*
X9985000Y-8435000D01*
X9985000Y-8405000D02*
X9955000Y-8435000D01*
X9985000Y-2460000D02*
X10015000Y-2490000D01*
X10015000Y-2460000D02*
X9985000Y-2490000D01*
X10035000Y-3325000D02*
X10065000Y-3355000D01*
X10065000Y-3325000D02*
X10035000Y-3355000D01*
X10035000Y-8515000D02*
X10065000Y-8545000D01*
X10065000Y-8515000D02*
X10035000Y-8545000D01*
X10035000Y-9260000D02*
X10065000Y-9290000D01*
X10065000Y-9260000D02*
X10035000Y-9290000D01*
X10085000Y-4185000D02*
X10115000Y-4215000D01*
X10115000Y-4185000D02*
X10085000Y-4215000D01*
X10105000Y-9555000D02*
X10135000Y-9585000D01*
X10135000Y-9555000D02*
X10105000Y-9585000D01*
X10115000Y-9155000D02*
X10145000Y-9185000D01*
X10145000Y-9155000D02*
X10115000Y-9185000D01*
X10125000Y-3435000D02*
X10155000Y-3465000D01*
X10155000Y-3435000D02*
X10125000Y-3465000D01*
X10135000Y-8585000D02*
X10165000Y-8615000D01*
X10165000Y-8585000D02*
X10135000Y-8615000D01*
X10155000Y-4445000D02*
X10185000Y-4475000D01*
X10185000Y-4445000D02*
X10155000Y-4475000D01*
X10160000Y-4110000D02*
X10190000Y-4140000D01*
X10190000Y-4110000D02*
X10160000Y-4140000D01*
X10215000Y-3125000D02*
X10245000Y-3155000D01*
X10245000Y-3125000D02*
X10215000Y-3155000D01*
X10215000Y-9115000D02*
X10245000Y-9145000D01*
X10245000Y-9115000D02*
X10215000Y-9145000D01*
X10225000Y-8715000D02*
X10255000Y-8745000D01*
X10255000Y-8715000D02*
X10225000Y-8745000D01*
X10225000Y-9505000D02*
X10255000Y-9535000D01*
X10255000Y-9505000D02*
X10225000Y-9535000D01*
X10245000Y-3515000D02*
X10275000Y-3545000D01*
X10275000Y-3515000D02*
X10245000Y-3545000D01*
X10245000Y-8285000D02*
X10275000Y-8315000D01*
X10275000Y-8285000D02*
X10245000Y-8315000D01*
X10265000Y-4035000D02*
X10295000Y-4065000D01*
X10295000Y-4035000D02*
X10265000Y-4065000D01*
X10265000Y-4385000D02*
X10295000Y-4415000D01*
X10295000Y-4385000D02*
X10265000Y-4415000D01*
X10310000Y-3210000D02*
X10340000Y-3240000D01*
X10340000Y-3210000D02*
X10310000Y-3240000D01*
X10325000Y-3605000D02*
X10355000Y-3635000D01*
X10355000Y-3605000D02*
X10325000Y-3635000D01*
X10325000Y-9065000D02*
X10355000Y-9095000D01*
X10355000Y-9065000D02*
X10325000Y-9095000D01*
X10330000Y-9420000D02*
X10360000Y-9450000D01*
X10360000Y-9420000D02*
X10330000Y-9450000D01*
X10345000Y-8805000D02*
X10375000Y-8835000D01*
X10375000Y-8805000D02*
X10345000Y-8835000D01*
X10365000Y-3985000D02*
X10395000Y-4015000D01*
X10395000Y-3985000D02*
X10365000Y-4015000D01*
X10375000Y-4345000D02*
X10405000Y-4375000D01*
X10405000Y-4345000D02*
X10375000Y-4375000D01*
X10387500Y-11707500D02*
X10417500Y-11737500D01*
X10417500Y-11707500D02*
X10387500Y-11737500D01*
X10395000Y-8405000D02*
X10425000Y-8435000D01*
X10425000Y-8405000D02*
X10395000Y-8435000D01*
X10405000Y-3695000D02*
X10435000Y-3725000D01*
X10435000Y-3695000D02*
X10405000Y-3725000D01*
X10425000Y-3315000D02*
X10455000Y-3345000D01*
X10455000Y-3315000D02*
X10425000Y-3345000D01*
X10425000Y-9035000D02*
X10455000Y-9065000D01*
X10455000Y-9035000D02*
X10425000Y-9065000D01*
X10425000Y-9365000D02*
X10455000Y-9395000D01*
X10455000Y-9365000D02*
X10425000Y-9395000D01*
X10455000Y-8545000D02*
X10485000Y-8575000D01*
X10485000Y-8545000D02*
X10455000Y-8575000D01*
X10485000Y-4265000D02*
X10515000Y-4295000D01*
X10515000Y-4265000D02*
X10485000Y-4295000D01*
X10495000Y-3945000D02*
X10525000Y-3975000D01*
X10525000Y-3945000D02*
X10495000Y-3975000D01*
X10515000Y-3415000D02*
X10545000Y-3445000D01*
X10545000Y-3415000D02*
X10515000Y-3445000D01*
X10515000Y-9285000D02*
X10545000Y-9315000D01*
X10545000Y-9285000D02*
X10515000Y-9315000D01*
X10595000Y-4185000D02*
X10625000Y-4215000D01*
X10625000Y-4185000D02*
X10595000Y-4215000D01*
X10615000Y-3495000D02*
X10645000Y-3525000D01*
X10645000Y-3495000D02*
X10615000Y-3525000D01*
X10745000Y-3525000D02*
X10775000Y-3555000D01*
X10775000Y-3525000D02*
X10745000Y-3555000D01*
X10770000Y-8765000D02*
X10800000Y-8795000D01*
X10800000Y-8765000D02*
X10770000Y-8795000D01*
X10770000Y-8890000D02*
X10800000Y-8920000D01*
X10800000Y-8890000D02*
X10770000Y-8920000D01*
X10770000Y-9015000D02*
X10800000Y-9045000D01*
X10800000Y-9015000D02*
X10770000Y-9045000D01*
X10770000Y-9140000D02*
X10800000Y-9170000D01*
X10800000Y-9140000D02*
X10770000Y-9170000D01*
X10812500Y-11707500D02*
X10842500Y-11737500D01*
X10842500Y-11707500D02*
X10812500Y-11737500D01*
X10870000Y-3665000D02*
X10900000Y-3695000D01*
X10900000Y-3665000D02*
X10870000Y-3695000D01*
X10870000Y-3790000D02*
X10900000Y-3820000D01*
X10900000Y-3790000D02*
X10870000Y-3820000D01*
X10870000Y-3915000D02*
X10900000Y-3945000D01*
X10900000Y-3915000D02*
X10870000Y-3945000D01*
X10870000Y-4040000D02*
X10900000Y-4070000D01*
X10900000Y-4040000D02*
X10870000Y-4070000D01*
X10945000Y-8765000D02*
X10975000Y-8795000D01*
X10975000Y-8765000D02*
X10945000Y-8795000D01*
X10945000Y-8890000D02*
X10975000Y-8920000D01*
X10975000Y-8890000D02*
X10945000Y-8920000D01*
X10945000Y-9015000D02*
X10975000Y-9045000D01*
X10975000Y-9015000D02*
X10945000Y-9045000D01*
X10945000Y-9140000D02*
X10975000Y-9170000D01*
X10975000Y-9140000D02*
X10945000Y-9170000D01*
X11045000Y-3665000D02*
X11075000Y-3695000D01*
X11075000Y-3665000D02*
X11045000Y-3695000D01*
X11045000Y-3790000D02*
X11075000Y-3820000D01*
X11075000Y-3790000D02*
X11045000Y-3820000D01*
X11045000Y-3915000D02*
X11075000Y-3945000D01*
X11075000Y-3915000D02*
X11045000Y-3945000D01*
X11045000Y-4040000D02*
X11075000Y-4070000D01*
X11075000Y-4040000D02*
X11045000Y-4070000D01*
X11065000Y-8555000D02*
X11095000Y-8585000D01*
X11095000Y-8555000D02*
X11065000Y-8585000D01*
X11115000Y-9325000D02*
X11145000Y-9355000D01*
X11145000Y-9325000D02*
X11115000Y-9355000D01*
X11137500Y-11707500D02*
X11167500Y-11737500D01*
X11167500Y-11707500D02*
X11137500Y-11737500D01*
X11145000Y-8405000D02*
X11175000Y-8435000D01*
X11175000Y-8405000D02*
X11145000Y-8435000D01*
X11155000Y-3465000D02*
X11185000Y-3495000D01*
X11185000Y-3465000D02*
X11155000Y-3495000D01*
X11235000Y-9375000D02*
X11265000Y-9405000D01*
X11265000Y-9375000D02*
X11235000Y-9405000D01*
X11245000Y-8285000D02*
X11275000Y-8315000D01*
X11275000Y-8285000D02*
X11245000Y-8315000D01*
X11265000Y-3385000D02*
X11295000Y-3415000D01*
X11295000Y-3385000D02*
X11265000Y-3415000D01*
X11275000Y-4235000D02*
X11305000Y-4265000D01*
X11305000Y-4235000D02*
X11275000Y-4265000D01*
X11315000Y-4485000D02*
X11345000Y-4515000D01*
X11345000Y-4485000D02*
X11315000Y-4515000D01*
X11325000Y-9465000D02*
X11355000Y-9495000D01*
X11355000Y-9465000D02*
X11325000Y-9495000D01*
X11355000Y-4325000D02*
X11385000Y-4355000D01*
X11385000Y-4325000D02*
X11355000Y-4355000D01*
X11365000Y-3275000D02*
X11395000Y-3305000D01*
X11395000Y-3275000D02*
X11365000Y-3305000D01*
X11365000Y-8725000D02*
X11395000Y-8755000D01*
X11395000Y-8725000D02*
X11365000Y-8755000D01*
X11375000Y-8205000D02*
X11405000Y-8235000D01*
X11405000Y-8205000D02*
X11375000Y-8235000D01*
X11405000Y-3545000D02*
X11435000Y-3575000D01*
X11435000Y-3545000D02*
X11405000Y-3575000D01*
X11410000Y-8910000D02*
X11440000Y-8940000D01*
X11440000Y-8910000D02*
X11410000Y-8940000D01*
X11415000Y-9145000D02*
X11445000Y-9175000D01*
X11445000Y-9145000D02*
X11415000Y-9175000D01*
X11415000Y-9565000D02*
X11445000Y-9595000D01*
X11445000Y-9565000D02*
X11415000Y-9595000D01*
X11435000Y-4415000D02*
X11465000Y-4445000D01*
X11465000Y-4415000D02*
X11435000Y-4445000D01*
X11437500Y-11707500D02*
X11467500Y-11737500D01*
X11467500Y-11707500D02*
X11437500Y-11737500D01*
X11455000Y-4055000D02*
X11485000Y-4085000D01*
X11485000Y-4055000D02*
X11455000Y-4085000D01*
X11465000Y-3155000D02*
X11495000Y-3185000D01*
X11495000Y-3155000D02*
X11465000Y-3185000D01*
X11465000Y-8635000D02*
X11495000Y-8665000D01*
X11495000Y-8635000D02*
X11465000Y-8665000D01*
X11485000Y-8135000D02*
X11515000Y-8165000D01*
X11515000Y-8135000D02*
X11485000Y-8165000D01*
X11505000Y-3465000D02*
X11535000Y-3495000D01*
X11535000Y-3465000D02*
X11505000Y-3495000D01*
X11515000Y-4495000D02*
X11545000Y-4525000D01*
X11545000Y-4495000D02*
X11515000Y-4525000D01*
X11525000Y-9295000D02*
X11555000Y-9325000D01*
X11555000Y-9295000D02*
X11525000Y-9325000D01*
X11535000Y-8910000D02*
X11565000Y-8940000D01*
X11565000Y-8910000D02*
X11535000Y-8940000D01*
X11535000Y-9185000D02*
X11565000Y-9215000D01*
X11565000Y-9185000D02*
X11535000Y-9215000D01*
X11545000Y-8555000D02*
X11575000Y-8585000D01*
X11575000Y-8555000D02*
X11545000Y-8585000D01*
X11560000Y-3810000D02*
X11590000Y-3840000D01*
X11590000Y-3810000D02*
X11560000Y-3840000D01*
X11565000Y-4035000D02*
X11595000Y-4065000D01*
X11595000Y-4035000D02*
X11565000Y-4065000D01*
X11585000Y-3060000D02*
X11615000Y-3090000D01*
X11615000Y-3060000D02*
X11585000Y-3090000D01*
X11585000Y-4165000D02*
X11615000Y-4195000D01*
X11615000Y-4165000D02*
X11585000Y-4195000D01*
X11585000Y-8435000D02*
X11615000Y-8465000D01*
X11615000Y-8435000D02*
X11585000Y-8465000D01*
X11610000Y-8060000D02*
X11640000Y-8090000D01*
X11640000Y-8060000D02*
X11610000Y-8090000D01*
X11615000Y-9385000D02*
X11645000Y-9415000D01*
X11645000Y-9385000D02*
X11615000Y-9415000D01*
X11625000Y-3395000D02*
X11655000Y-3425000D01*
X11655000Y-3395000D02*
X11625000Y-3425000D01*
X11660000Y-8910000D02*
X11690000Y-8940000D01*
X11690000Y-8910000D02*
X11660000Y-8940000D01*
X11660000Y-9185000D02*
X11690000Y-9215000D01*
X11690000Y-9185000D02*
X11660000Y-9215000D01*
X11685000Y-2960000D02*
X11715000Y-2990000D01*
X11715000Y-2960000D02*
X11685000Y-2990000D01*
X11685000Y-3810000D02*
X11715000Y-3840000D01*
X11715000Y-3810000D02*
X11685000Y-3840000D01*
X11685000Y-4275000D02*
X11715000Y-4305000D01*
X11715000Y-4275000D02*
X11685000Y-4305000D01*
X11685000Y-9460000D02*
X11715000Y-9490000D01*
X11715000Y-9460000D02*
X11685000Y-9490000D01*
X11715000Y-4035000D02*
X11745000Y-4065000D01*
X11745000Y-4035000D02*
X11715000Y-4065000D01*
X11760000Y-3235000D02*
X11790000Y-3265000D01*
X11790000Y-3235000D02*
X11760000Y-3265000D01*
X11760000Y-9560000D02*
X11790000Y-9590000D01*
X11790000Y-9560000D02*
X11760000Y-9590000D01*
X11762500Y-11707500D02*
X11792500Y-11737500D01*
X11792500Y-11707500D02*
X11762500Y-11737500D01*
X11765000Y-4375000D02*
X11795000Y-4405000D01*
X11795000Y-4375000D02*
X11765000Y-4405000D01*
X11785000Y-8910000D02*
X11815000Y-8940000D01*
X11815000Y-8910000D02*
X11785000Y-8940000D01*
X11785000Y-9185000D02*
X11815000Y-9215000D01*
X11815000Y-9185000D02*
X11785000Y-9215000D01*
X11785000Y-10335000D02*
X11815000Y-10365000D01*
X11815000Y-10335000D02*
X11785000Y-10365000D01*
X11810000Y-3810000D02*
X11840000Y-3840000D01*
X11840000Y-3810000D02*
X11810000Y-3840000D01*
X11855000Y-4035000D02*
X11885000Y-4065000D01*
X11885000Y-4035000D02*
X11855000Y-4065000D01*
X11860000Y-5235000D02*
X11890000Y-5265000D01*
X11890000Y-5235000D02*
X11860000Y-5265000D01*
X11865000Y-4465000D02*
X11895000Y-4495000D01*
X11895000Y-4465000D02*
X11865000Y-4495000D01*
X11935000Y-8910000D02*
X11965000Y-8940000D01*
X11965000Y-8910000D02*
X11935000Y-8940000D01*
X11935000Y-9185000D02*
X11965000Y-9215000D01*
X11965000Y-9185000D02*
X11935000Y-9215000D01*
X11935000Y-10335000D02*
X11965000Y-10365000D01*
X11965000Y-10335000D02*
X11935000Y-10365000D01*
X11960000Y-3810000D02*
X11990000Y-3840000D01*
X11990000Y-3810000D02*
X11960000Y-3840000D01*
X11995000Y-4035000D02*
X12025000Y-4065000D01*
X12025000Y-4035000D02*
X11995000Y-4065000D01*
X12010000Y-5235000D02*
X12040000Y-5265000D01*
X12040000Y-5235000D02*
X12010000Y-5265000D01*
X12060000Y-9185000D02*
X12090000Y-9215000D01*
X12090000Y-9185000D02*
X12060000Y-9215000D01*
X12062500Y-11707500D02*
X12092500Y-11737500D01*
X12092500Y-11707500D02*
X12062500Y-11737500D01*
X12085000Y-8910000D02*
X12115000Y-8940000D01*
X12115000Y-8910000D02*
X12085000Y-8940000D01*
X12110000Y-3810000D02*
X12140000Y-3840000D01*
X12140000Y-3810000D02*
X12110000Y-3840000D01*
X12135000Y-4060000D02*
X12165000Y-4090000D01*
X12165000Y-4060000D02*
X12135000Y-4090000D01*
X12235000Y-8910000D02*
X12265000Y-8940000D01*
X12265000Y-8910000D02*
X12235000Y-8940000D01*
X12260000Y-3810000D02*
X12290000Y-3840000D01*
X12290000Y-3810000D02*
X12260000Y-3840000D01*
X12260000Y-4060000D02*
X12290000Y-4090000D01*
X12290000Y-4060000D02*
X12260000Y-4090000D01*
X12260000Y-7960000D02*
X12290000Y-7990000D01*
X12290000Y-7960000D02*
X12260000Y-7990000D01*
X12335000Y-2860000D02*
X12365000Y-2890000D01*
X12365000Y-2860000D02*
X12335000Y-2890000D01*
X12410000Y-7960000D02*
X12440000Y-7990000D01*
X12440000Y-7960000D02*
X12410000Y-7990000D01*
X12435000Y-8910000D02*
X12465000Y-8940000D01*
X12465000Y-8910000D02*
X12435000Y-8940000D01*
X12435000Y-9185000D02*
X12465000Y-9215000D01*
X12465000Y-9185000D02*
X12435000Y-9215000D01*
X12462500Y-11707500D02*
X12492500Y-11737500D01*
X12492500Y-11707500D02*
X12462500Y-11737500D01*
X12485000Y-2860000D02*
X12515000Y-2890000D01*
X12515000Y-2860000D02*
X12485000Y-2890000D01*
X12510000Y-4060000D02*
X12540000Y-4090000D01*
X12540000Y-4060000D02*
X12510000Y-4090000D01*
X12535000Y-3810000D02*
X12565000Y-3840000D01*
X12565000Y-3810000D02*
X12535000Y-3840000D01*
X12560000Y-8910000D02*
X12590000Y-8940000D01*
X12590000Y-8910000D02*
X12560000Y-8940000D01*
X12560000Y-9185000D02*
X12590000Y-9215000D01*
X12590000Y-9185000D02*
X12560000Y-9215000D01*
X12685000Y-8910000D02*
X12715000Y-8940000D01*
X12715000Y-8910000D02*
X12685000Y-8940000D01*
X12685000Y-9185000D02*
X12715000Y-9215000D01*
X12715000Y-9185000D02*
X12685000Y-9215000D01*
X12710000Y-3810000D02*
X12740000Y-3840000D01*
X12740000Y-3810000D02*
X12710000Y-3840000D01*
X12710000Y-4085000D02*
X12740000Y-4115000D01*
X12740000Y-4085000D02*
X12710000Y-4115000D01*
X12760000Y-4210000D02*
X12790000Y-4240000D01*
X12790000Y-4210000D02*
X12760000Y-4240000D01*
X13035000Y-11410000D02*
X13065000Y-11440000D01*
X13065000Y-11410000D02*
X13035000Y-11440000D01*
X13285000Y-11210000D02*
X13315000Y-11240000D01*
X13315000Y-11210000D02*
X13285000Y-11240000D01*
X13385000Y-8210000D02*
X13415000Y-8240000D01*
X13415000Y-8210000D02*
X13385000Y-8240000D01*
X13460000Y-8135000D02*
X13490000Y-8165000D01*
X13490000Y-8135000D02*
X13460000Y-8165000D01*
X13460000Y-10810000D02*
X13490000Y-10840000D01*
X13490000Y-10810000D02*
X13460000Y-10840000D01*
X13460000Y-11035000D02*
X13490000Y-11065000D01*
X13490000Y-11035000D02*
X13460000Y-11065000D01*
X13485000Y-8495000D02*
X13515000Y-8525000D01*
X13515000Y-8495000D02*
X13485000Y-8525000D01*
X13485000Y-9510000D02*
X13515000Y-9540000D01*
X13515000Y-9510000D02*
X13485000Y-9540000D01*
X13485000Y-9835000D02*
X13515000Y-9865000D01*
X13515000Y-9835000D02*
X13485000Y-9865000D01*
X13485000Y-10160000D02*
X13515000Y-10190000D01*
X13515000Y-10160000D02*
X13485000Y-10190000D01*
X13485000Y-10485000D02*
X13515000Y-10515000D01*
X13515000Y-10485000D02*
X13485000Y-10515000D01*
X13535000Y-7010000D02*
X13565000Y-7040000D01*
X13565000Y-7010000D02*
X13535000Y-7040000D01*
X13535000Y-7160000D02*
X13565000Y-7190000D01*
X13565000Y-7160000D02*
X13535000Y-7190000D01*
X13535000Y-7310000D02*
X13565000Y-7340000D01*
X13565000Y-7310000D02*
X13535000Y-7340000D01*
X13535000Y-7460000D02*
X13565000Y-7490000D01*
X13565000Y-7460000D02*
X13535000Y-7490000D01*
X13535000Y-7635000D02*
X13565000Y-7665000D01*
X13565000Y-7635000D02*
X13535000Y-7665000D01*
X13535000Y-7785000D02*
X13565000Y-7815000D01*
X13565000Y-7785000D02*
X13535000Y-7815000D01*
X13535000Y-7935000D02*
X13565000Y-7965000D01*
X13565000Y-7935000D02*
X13535000Y-7965000D01*
X13535000Y-8060000D02*
X13565000Y-8090000D01*
X13565000Y-8060000D02*
X13535000Y-8090000D01*
X13585000Y-4460000D02*
X13615000Y-4490000D01*
X13615000Y-4460000D02*
X13585000Y-4490000D01*
X13605000Y-4885000D02*
X13635000Y-4915000D01*
X13635000Y-4885000D02*
X13605000Y-4915000D01*
X13635000Y-5010000D02*
X13665000Y-5040000D01*
X13665000Y-5010000D02*
X13635000Y-5040000D01*
X13635000Y-5160000D02*
X13665000Y-5190000D01*
X13665000Y-5160000D02*
X13635000Y-5190000D01*
X13635000Y-5310000D02*
X13665000Y-5340000D01*
X13665000Y-5310000D02*
X13635000Y-5340000D01*
X13635000Y-5485000D02*
X13665000Y-5515000D01*
X13665000Y-5485000D02*
X13635000Y-5515000D01*
X13635000Y-5635000D02*
X13665000Y-5665000D01*
X13665000Y-5635000D02*
X13635000Y-5665000D01*
X13635000Y-5785000D02*
X13665000Y-5815000D01*
X13665000Y-5785000D02*
X13635000Y-5815000D01*
X13645000Y-8365000D02*
X13675000Y-8395000D01*
X13675000Y-8365000D02*
X13645000Y-8395000D01*
X13660000Y-4585000D02*
X13690000Y-4615000D01*
X13690000Y-4585000D02*
X13660000Y-4615000D01*
X13802500Y-6437500D02*
X13832500Y-6467500D01*
X13832500Y-6437500D02*
X13802500Y-6467500D01*
X13805000Y-4705000D02*
X13835000Y-4735000D01*
X13835000Y-4705000D02*
X13805000Y-4735000D01*
X13805000Y-7010000D02*
X13835000Y-7040000D01*
X13835000Y-7010000D02*
X13805000Y-7040000D01*
X13805000Y-7160000D02*
X13835000Y-7190000D01*
X13835000Y-7160000D02*
X13805000Y-7190000D01*
X13805000Y-7310000D02*
X13835000Y-7340000D01*
X13835000Y-7310000D02*
X13805000Y-7340000D01*
X13805000Y-7460000D02*
X13835000Y-7490000D01*
X13835000Y-7460000D02*
X13805000Y-7490000D01*
X13805000Y-7635000D02*
X13835000Y-7665000D01*
X13835000Y-7635000D02*
X13805000Y-7665000D01*
X13805000Y-7785000D02*
X13835000Y-7815000D01*
X13835000Y-7785000D02*
X13805000Y-7815000D01*
X13805000Y-7935000D02*
X13835000Y-7965000D01*
X13835000Y-7935000D02*
X13805000Y-7965000D01*
X13805000Y-8085000D02*
X13835000Y-8115000D01*
X13835000Y-8085000D02*
X13805000Y-8115000D01*
X13805000Y-8235000D02*
X13835000Y-8265000D01*
X13835000Y-8235000D02*
X13805000Y-8265000D01*
X13810000Y-6285000D02*
X13840000Y-6315000D01*
X13840000Y-6285000D02*
X13810000Y-6315000D01*
X13927500Y-6437500D02*
X13957500Y-6467500D01*
X13957500Y-6437500D02*
X13927500Y-6467500D01*
X13935000Y-6285000D02*
X13965000Y-6315000D01*
X13965000Y-6285000D02*
X13935000Y-6315000D01*
X13985000Y-4875000D02*
X14015000Y-4905000D01*
X14015000Y-4875000D02*
X13985000Y-4905000D01*
X13985000Y-5025000D02*
X14015000Y-5055000D01*
X14015000Y-5025000D02*
X13985000Y-5055000D01*
X13985000Y-5175000D02*
X14015000Y-5205000D01*
X14015000Y-5175000D02*
X13985000Y-5205000D01*
X13985000Y-5350000D02*
X14015000Y-5380000D01*
X14015000Y-5350000D02*
X13985000Y-5380000D01*
X13985000Y-5500000D02*
X14015000Y-5530000D01*
X14015000Y-5500000D02*
X13985000Y-5530000D01*
X13985000Y-5650000D02*
X14015000Y-5680000D01*
X14015000Y-5650000D02*
X13985000Y-5680000D01*
X13985000Y-5800000D02*
X14015000Y-5830000D01*
X14015000Y-5800000D02*
X13985000Y-5830000D01*
X14045000Y-7000000D02*
X14075000Y-7030000D01*
X14075000Y-7000000D02*
X14045000Y-7030000D01*
X14045000Y-7150000D02*
X14075000Y-7180000D01*
X14075000Y-7150000D02*
X14045000Y-7180000D01*
X14045000Y-7300000D02*
X14075000Y-7330000D01*
X14075000Y-7300000D02*
X14045000Y-7330000D01*
X14045000Y-7450000D02*
X14075000Y-7480000D01*
X14075000Y-7450000D02*
X14045000Y-7480000D01*
X14045000Y-7625000D02*
X14075000Y-7655000D01*
X14075000Y-7625000D02*
X14045000Y-7655000D01*
X14045000Y-7775000D02*
X14075000Y-7805000D01*
X14075000Y-7775000D02*
X14045000Y-7805000D01*
X14045000Y-7925000D02*
X14075000Y-7955000D01*
X14075000Y-7925000D02*
X14045000Y-7955000D01*
X14045000Y-8075000D02*
X14075000Y-8105000D01*
X14075000Y-8075000D02*
X14045000Y-8105000D01*
X14052500Y-6437500D02*
X14082500Y-6467500D01*
X14082500Y-6437500D02*
X14052500Y-6467500D01*
X14060000Y-6285000D02*
X14090000Y-6315000D01*
X14090000Y-6285000D02*
X14060000Y-6315000D01*
X14070000Y-8225000D02*
X14100000Y-8255000D01*
X14100000Y-8225000D02*
X14070000Y-8255000D01*
X14155000Y-4725000D02*
X14185000Y-4755000D01*
X14185000Y-4725000D02*
X14155000Y-4755000D01*
X14177500Y-6437500D02*
X14207500Y-6467500D01*
X14207500Y-6437500D02*
X14177500Y-6467500D01*
X14185000Y-6285000D02*
X14215000Y-6315000D01*
X14215000Y-6285000D02*
X14185000Y-6315000D01*
X14275000Y-4585000D02*
X14305000Y-4615000D01*
X14305000Y-4585000D02*
X14275000Y-4615000D01*
X14285000Y-8305000D02*
X14315000Y-8335000D01*
X14315000Y-8305000D02*
X14285000Y-8335000D01*
X14335000Y-5025000D02*
X14365000Y-5055000D01*
X14365000Y-5025000D02*
X14335000Y-5055000D01*
X14335000Y-5175000D02*
X14365000Y-5205000D01*
X14365000Y-5175000D02*
X14335000Y-5205000D01*
X14335000Y-5350000D02*
X14365000Y-5380000D01*
X14365000Y-5350000D02*
X14335000Y-5380000D01*
X14335000Y-5500000D02*
X14365000Y-5530000D01*
X14365000Y-5500000D02*
X14335000Y-5530000D01*
X14335000Y-5650000D02*
X14365000Y-5680000D01*
X14365000Y-5650000D02*
X14335000Y-5680000D01*
X14335000Y-5800000D02*
X14365000Y-5830000D01*
X14365000Y-5800000D02*
X14335000Y-5830000D01*
X14375000Y-4460000D02*
X14405000Y-4490000D01*
X14405000Y-4460000D02*
X14375000Y-4490000D01*
X14375000Y-7000000D02*
X14405000Y-7030000D01*
X14405000Y-7000000D02*
X14375000Y-7030000D01*
X14375000Y-7150000D02*
X14405000Y-7180000D01*
X14405000Y-7150000D02*
X14375000Y-7180000D01*
X14375000Y-7300000D02*
X14405000Y-7330000D01*
X14405000Y-7300000D02*
X14375000Y-7330000D01*
X14375000Y-7450000D02*
X14405000Y-7480000D01*
X14405000Y-7450000D02*
X14375000Y-7480000D01*
X14375000Y-7625000D02*
X14405000Y-7655000D01*
X14405000Y-7625000D02*
X14375000Y-7655000D01*
X14375000Y-7775000D02*
X14405000Y-7805000D01*
X14405000Y-7775000D02*
X14375000Y-7805000D01*
X14375000Y-7925000D02*
X14405000Y-7955000D01*
X14405000Y-7925000D02*
X14375000Y-7955000D01*
X14385000Y-4885000D02*
X14415000Y-4915000D01*
X14415000Y-4885000D02*
X14385000Y-4915000D01*
X14435000Y-8460000D02*
X14465000Y-8490000D01*
X14465000Y-8460000D02*
X14435000Y-8490000D01*
X14485000Y-8060000D02*
X14515000Y-8090000D01*
X14515000Y-8060000D02*
X14485000Y-8090000D01*
X14510000Y-9510000D02*
X14540000Y-9540000D01*
X14540000Y-9510000D02*
X14510000Y-9540000D01*
X14510000Y-9835000D02*
X14540000Y-9865000D01*
X14540000Y-9835000D02*
X14510000Y-9865000D01*
X14510000Y-10160000D02*
X14540000Y-10190000D01*
X14540000Y-10160000D02*
X14510000Y-10190000D01*
X14510000Y-10485000D02*
X14540000Y-10515000D01*
X14540000Y-10485000D02*
X14510000Y-10515000D01*
X14510000Y-10835000D02*
X14540000Y-10865000D01*
X14540000Y-10835000D02*
X14510000Y-10865000D01*
X14560000Y-8585000D02*
X14590000Y-8615000D01*
X14590000Y-8585000D02*
X14560000Y-8615000D01*
X14590000Y-8225000D02*
X14620000Y-8255000D01*
X14620000Y-8225000D02*
X14590000Y-8255000D01*
X14610000Y-8685000D02*
X14640000Y-8715000D01*
X14640000Y-8685000D02*
X14610000Y-8715000D01*
X14685000Y-11110000D02*
X14715000Y-11140000D01*
X14715000Y-11110000D02*
X14685000Y-11140000D01*
X14835000Y-11285000D02*
X14865000Y-11315000D01*
X14865000Y-11285000D02*
X14835000Y-11315000D01*
X15010000Y-11510000D02*
X15040000Y-11540000D01*
X15040000Y-11510000D02*
X15010000Y-11540000D01*
X15385000Y-3935000D02*
X15415000Y-3965000D01*
X15415000Y-3935000D02*
X15385000Y-3965000D01*
X15385000Y-4235000D02*
X15415000Y-4265000D01*
X15415000Y-4235000D02*
X15385000Y-4265000D01*
X15462500Y-11632500D02*
X15492500Y-11662500D01*
X15492500Y-11632500D02*
X15462500Y-11662500D01*
X15495000Y-9055000D02*
X15525000Y-9085000D01*
X15525000Y-9055000D02*
X15495000Y-9085000D01*
X15495000Y-9295000D02*
X15525000Y-9325000D01*
X15525000Y-9295000D02*
X15495000Y-9325000D01*
X15505000Y-4225000D02*
X15535000Y-4255000D01*
X15535000Y-4225000D02*
X15505000Y-4255000D01*
X15535000Y-3935000D02*
X15565000Y-3965000D01*
X15565000Y-3935000D02*
X15535000Y-3965000D01*
X15610000Y-10260000D02*
X15640000Y-10290000D01*
X15640000Y-10260000D02*
X15610000Y-10290000D01*
X15625000Y-4225000D02*
X15655000Y-4255000D01*
X15655000Y-4225000D02*
X15625000Y-4255000D01*
X15655000Y-3935000D02*
X15685000Y-3965000D01*
X15685000Y-3935000D02*
X15655000Y-3965000D01*
X15660000Y-5160000D02*
X15690000Y-5190000D01*
X15690000Y-5160000D02*
X15660000Y-5190000D01*
X15735000Y-10260000D02*
X15765000Y-10290000D01*
X15765000Y-10260000D02*
X15735000Y-10290000D01*
X15760000Y-9070000D02*
X15790000Y-9100000D01*
X15790000Y-9070000D02*
X15760000Y-9100000D01*
X15760000Y-9310000D02*
X15790000Y-9340000D01*
X15790000Y-9310000D02*
X15760000Y-9340000D01*
X15810000Y-5160000D02*
X15840000Y-5190000D01*
X15840000Y-5160000D02*
X15810000Y-5190000D01*
X15835000Y-4210000D02*
X15865000Y-4240000D01*
X15865000Y-4210000D02*
X15835000Y-4240000D01*
X15885000Y-9070000D02*
X15915000Y-9100000D01*
X15915000Y-9070000D02*
X15885000Y-9100000D01*
X15885000Y-9310000D02*
X15915000Y-9340000D01*
X15915000Y-9310000D02*
X15885000Y-9340000D01*
X15887500Y-11632500D02*
X15917500Y-11662500D01*
X15917500Y-11632500D02*
X15887500Y-11662500D01*
X15910000Y-3935000D02*
X15940000Y-3965000D01*
X15940000Y-3935000D02*
X15910000Y-3965000D01*
X15985000Y-4210000D02*
X16015000Y-4240000D01*
X16015000Y-4210000D02*
X15985000Y-4240000D01*
X16010000Y-9070000D02*
X16040000Y-9100000D01*
X16040000Y-9070000D02*
X16010000Y-9100000D01*
X16010000Y-9310000D02*
X16040000Y-9340000D01*
X16040000Y-9310000D02*
X16010000Y-9340000D01*
X16060000Y-7910000D02*
X16090000Y-7940000D01*
X16090000Y-7910000D02*
X16060000Y-7940000D01*
X16085000Y-3935000D02*
X16115000Y-3965000D01*
X16115000Y-3935000D02*
X16085000Y-3965000D01*
X16135000Y-4210000D02*
X16165000Y-4240000D01*
X16165000Y-4210000D02*
X16135000Y-4240000D01*
X16135000Y-9070000D02*
X16165000Y-9100000D01*
X16165000Y-9070000D02*
X16135000Y-9100000D01*
X16135000Y-9310000D02*
X16165000Y-9340000D01*
X16165000Y-9310000D02*
X16135000Y-9340000D01*
X16160000Y-2785000D02*
X16190000Y-2815000D01*
X16190000Y-2785000D02*
X16160000Y-2815000D01*
X16210000Y-7910000D02*
X16240000Y-7940000D01*
X16240000Y-7910000D02*
X16210000Y-7940000D01*
X16212500Y-11632500D02*
X16242500Y-11662500D01*
X16242500Y-11632500D02*
X16212500Y-11662500D01*
X16235000Y-8675000D02*
X16265000Y-8705000D01*
X16265000Y-8675000D02*
X16235000Y-8705000D01*
X16260000Y-3935000D02*
X16290000Y-3965000D01*
X16290000Y-3935000D02*
X16260000Y-3965000D01*
X16260000Y-9070000D02*
X16290000Y-9100000D01*
X16290000Y-9070000D02*
X16260000Y-9100000D01*
X16260000Y-9310000D02*
X16290000Y-9340000D01*
X16290000Y-9310000D02*
X16260000Y-9340000D01*
X16285000Y-3625000D02*
X16315000Y-3655000D01*
X16315000Y-3625000D02*
X16285000Y-3655000D01*
X16285000Y-4210000D02*
X16315000Y-4240000D01*
X16315000Y-4210000D02*
X16285000Y-4240000D01*
X16310000Y-2785000D02*
X16340000Y-2815000D01*
X16340000Y-2785000D02*
X16310000Y-2815000D01*
X16335000Y-8775000D02*
X16365000Y-8805000D01*
X16365000Y-8775000D02*
X16335000Y-8805000D01*
X16385000Y-9785000D02*
X16415000Y-9815000D01*
X16415000Y-9785000D02*
X16385000Y-9815000D01*
X16395000Y-10155000D02*
X16425000Y-10185000D01*
X16425000Y-10155000D02*
X16395000Y-10185000D01*
X16405000Y-8875000D02*
X16435000Y-8905000D01*
X16435000Y-8875000D02*
X16405000Y-8905000D01*
X16405000Y-9075000D02*
X16435000Y-9105000D01*
X16435000Y-9075000D02*
X16405000Y-9105000D01*
X16410000Y-9310000D02*
X16440000Y-9340000D01*
X16440000Y-9310000D02*
X16410000Y-9340000D01*
X16435000Y-3760000D02*
X16465000Y-3790000D01*
X16465000Y-3760000D02*
X16435000Y-3790000D01*
X16435000Y-3935000D02*
X16465000Y-3965000D01*
X16465000Y-3935000D02*
X16435000Y-3965000D01*
X16435000Y-4210000D02*
X16465000Y-4240000D01*
X16465000Y-4210000D02*
X16435000Y-4240000D01*
X16435000Y-8545000D02*
X16465000Y-8575000D01*
X16465000Y-8545000D02*
X16435000Y-8575000D01*
X16485000Y-4685000D02*
X16515000Y-4715000D01*
X16515000Y-4685000D02*
X16485000Y-4715000D01*
X16485000Y-9710000D02*
X16515000Y-9740000D01*
X16515000Y-9710000D02*
X16485000Y-9740000D01*
X16495000Y-8985000D02*
X16525000Y-9015000D01*
X16525000Y-8985000D02*
X16495000Y-9015000D01*
X16505000Y-5025000D02*
X16535000Y-5055000D01*
X16535000Y-5025000D02*
X16505000Y-5055000D01*
X16510000Y-10085000D02*
X16540000Y-10115000D01*
X16540000Y-10085000D02*
X16510000Y-10115000D01*
X16512500Y-11632500D02*
X16542500Y-11662500D01*
X16542500Y-11632500D02*
X16512500Y-11662500D01*
X16535000Y-3460000D02*
X16565000Y-3490000D01*
X16565000Y-3460000D02*
X16535000Y-3490000D01*
X16535000Y-3855000D02*
X16565000Y-3885000D01*
X16565000Y-3855000D02*
X16535000Y-3885000D01*
X16545000Y-8615000D02*
X16575000Y-8645000D01*
X16575000Y-8615000D02*
X16545000Y-8645000D01*
X16560000Y-9060000D02*
X16590000Y-9090000D01*
X16590000Y-9060000D02*
X16560000Y-9090000D01*
X16560000Y-9310000D02*
X16590000Y-9340000D01*
X16590000Y-9310000D02*
X16560000Y-9340000D01*
X16565000Y-4605000D02*
X16595000Y-4635000D01*
X16595000Y-4605000D02*
X16565000Y-4635000D01*
X16585000Y-9610000D02*
X16615000Y-9640000D01*
X16615000Y-9610000D02*
X16585000Y-9640000D01*
X16600000Y-4950000D02*
X16630000Y-4980000D01*
X16630000Y-4950000D02*
X16600000Y-4980000D01*
X16610000Y-4210000D02*
X16640000Y-4240000D01*
X16640000Y-4210000D02*
X16610000Y-4240000D01*
X16635000Y-3935000D02*
X16665000Y-3965000D01*
X16665000Y-3935000D02*
X16635000Y-3965000D01*
X16635000Y-8705000D02*
X16665000Y-8735000D01*
X16665000Y-8705000D02*
X16635000Y-8735000D01*
X16635000Y-10035000D02*
X16665000Y-10065000D01*
X16665000Y-10035000D02*
X16635000Y-10065000D01*
X16655000Y-3525000D02*
X16685000Y-3555000D01*
X16685000Y-3525000D02*
X16655000Y-3555000D01*
X16665000Y-4515000D02*
X16695000Y-4545000D01*
X16695000Y-4515000D02*
X16665000Y-4545000D01*
X16695000Y-4885000D02*
X16725000Y-4915000D01*
X16725000Y-4885000D02*
X16695000Y-4915000D01*
X16705000Y-8805000D02*
X16735000Y-8835000D01*
X16735000Y-8805000D02*
X16705000Y-8835000D01*
X16710000Y-9935000D02*
X16740000Y-9965000D01*
X16740000Y-9935000D02*
X16710000Y-9965000D01*
X16735000Y-3645000D02*
X16765000Y-3675000D01*
X16765000Y-3645000D02*
X16735000Y-3675000D01*
X16745000Y-4415000D02*
X16775000Y-4445000D01*
X16775000Y-4415000D02*
X16745000Y-4445000D01*
X16765000Y-4255000D02*
X16795000Y-4285000D01*
X16795000Y-4255000D02*
X16765000Y-4285000D01*
X16795000Y-4785000D02*
X16825000Y-4815000D01*
X16825000Y-4785000D02*
X16795000Y-4815000D01*
X16805000Y-3755000D02*
X16835000Y-3785000D01*
X16835000Y-3755000D02*
X16805000Y-3785000D01*
X16810000Y-9810000D02*
X16840000Y-9840000D01*
X16840000Y-9810000D02*
X16810000Y-9840000D01*
X16835000Y-8895000D02*
X16865000Y-8925000D01*
X16865000Y-8895000D02*
X16835000Y-8925000D01*
X16837500Y-11632500D02*
X16867500Y-11662500D01*
X16867500Y-11632500D02*
X16837500Y-11662500D01*
X16895000Y-4675000D02*
X16925000Y-4705000D01*
X16925000Y-4675000D02*
X16895000Y-4705000D01*
X16910000Y-9710000D02*
X16940000Y-9740000D01*
X16940000Y-9710000D02*
X16910000Y-9740000D01*
X17005000Y-4565000D02*
X17035000Y-4595000D01*
X17035000Y-4565000D02*
X17005000Y-4595000D01*
X17020000Y-9065000D02*
X17050000Y-9095000D01*
X17050000Y-9065000D02*
X17020000Y-9095000D01*
X17020000Y-9190000D02*
X17050000Y-9220000D01*
X17050000Y-9190000D02*
X17020000Y-9220000D01*
X17020000Y-9315000D02*
X17050000Y-9345000D01*
X17050000Y-9315000D02*
X17020000Y-9345000D01*
X17020000Y-9440000D02*
X17050000Y-9470000D01*
X17050000Y-9440000D02*
X17020000Y-9470000D01*
X17137500Y-11632500D02*
X17167500Y-11662500D01*
X17167500Y-11632500D02*
X17137500Y-11662500D01*
X17170000Y-3940000D02*
X17200000Y-3970000D01*
X17200000Y-3940000D02*
X17170000Y-3970000D01*
X17170000Y-4065000D02*
X17200000Y-4095000D01*
X17200000Y-4065000D02*
X17170000Y-4095000D01*
X17170000Y-4190000D02*
X17200000Y-4220000D01*
X17200000Y-4190000D02*
X17170000Y-4220000D01*
X17170000Y-4315000D02*
X17200000Y-4345000D01*
X17200000Y-4315000D02*
X17170000Y-4345000D01*
X17195000Y-9065000D02*
X17225000Y-9095000D01*
X17225000Y-9065000D02*
X17195000Y-9095000D01*
X17195000Y-9190000D02*
X17225000Y-9220000D01*
X17225000Y-9190000D02*
X17195000Y-9220000D01*
X17195000Y-9315000D02*
X17225000Y-9345000D01*
X17225000Y-9315000D02*
X17195000Y-9345000D01*
X17195000Y-9440000D02*
X17225000Y-9470000D01*
X17225000Y-9440000D02*
X17195000Y-9470000D01*
X17345000Y-3940000D02*
X17375000Y-3970000D01*
X17375000Y-3940000D02*
X17345000Y-3970000D01*
X17345000Y-4065000D02*
X17375000Y-4095000D01*
X17375000Y-4065000D02*
X17345000Y-4095000D01*
X17345000Y-4190000D02*
X17375000Y-4220000D01*
X17375000Y-4190000D02*
X17345000Y-4220000D01*
X17345000Y-4315000D02*
X17375000Y-4345000D01*
X17375000Y-4315000D02*
X17345000Y-4345000D01*
X17395000Y-9625000D02*
X17425000Y-9655000D01*
X17425000Y-9625000D02*
X17395000Y-9655000D01*
X17515000Y-8915000D02*
X17545000Y-8945000D01*
X17545000Y-8915000D02*
X17515000Y-8945000D01*
X17535000Y-4535000D02*
X17565000Y-4565000D01*
X17565000Y-4535000D02*
X17535000Y-4565000D01*
X17535000Y-9685000D02*
X17565000Y-9715000D01*
X17565000Y-9685000D02*
X17535000Y-9715000D01*
X17537500Y-11632500D02*
X17567500Y-11662500D01*
X17567500Y-11632500D02*
X17537500Y-11662500D01*
X17575000Y-3755000D02*
X17605000Y-3785000D01*
X17605000Y-3755000D02*
X17575000Y-3785000D01*
X17615000Y-9235000D02*
X17645000Y-9265000D01*
X17645000Y-9235000D02*
X17615000Y-9265000D01*
X17615000Y-9785000D02*
X17645000Y-9815000D01*
X17645000Y-9785000D02*
X17615000Y-9815000D01*
X17625000Y-4615000D02*
X17655000Y-4645000D01*
X17655000Y-4615000D02*
X17625000Y-4645000D01*
X17655000Y-8855000D02*
X17685000Y-8885000D01*
X17685000Y-8855000D02*
X17655000Y-8885000D01*
X17655000Y-9395000D02*
X17685000Y-9425000D01*
X17685000Y-9395000D02*
X17655000Y-9425000D01*
X17705000Y-3695000D02*
X17735000Y-3725000D01*
X17735000Y-3695000D02*
X17705000Y-3725000D01*
X17715000Y-4715000D02*
X17745000Y-4745000D01*
X17745000Y-4715000D02*
X17715000Y-4745000D01*
X17725000Y-4135000D02*
X17755000Y-4165000D01*
X17755000Y-4135000D02*
X17725000Y-4165000D01*
X17725000Y-9875000D02*
X17755000Y-9905000D01*
X17755000Y-9875000D02*
X17725000Y-9905000D01*
X17735000Y-9175000D02*
X17765000Y-9205000D01*
X17765000Y-9175000D02*
X17735000Y-9205000D01*
X17755000Y-8745000D02*
X17785000Y-8775000D01*
X17785000Y-8745000D02*
X17755000Y-8775000D01*
X17755000Y-9495000D02*
X17785000Y-9525000D01*
X17785000Y-9495000D02*
X17755000Y-9525000D01*
X17775000Y-4305000D02*
X17805000Y-4335000D01*
X17805000Y-4305000D02*
X17775000Y-4335000D01*
X17785000Y-4825000D02*
X17815000Y-4855000D01*
X17815000Y-4825000D02*
X17785000Y-4855000D01*
X17805000Y-4045000D02*
X17835000Y-4075000D01*
X17835000Y-4045000D02*
X17805000Y-4075000D01*
X17815000Y-3635000D02*
X17845000Y-3665000D01*
X17845000Y-3635000D02*
X17815000Y-3665000D01*
X17835000Y-9095000D02*
X17865000Y-9125000D01*
X17865000Y-9095000D02*
X17835000Y-9125000D01*
X17835000Y-9595000D02*
X17865000Y-9625000D01*
X17865000Y-9595000D02*
X17835000Y-9625000D01*
X17865000Y-4395000D02*
X17895000Y-4425000D01*
X17895000Y-4395000D02*
X17865000Y-4425000D01*
X17885000Y-4900000D02*
X17915000Y-4930000D01*
X17915000Y-4900000D02*
X17885000Y-4930000D01*
X17910000Y-3960000D02*
X17940000Y-3990000D01*
X17940000Y-3960000D02*
X17910000Y-3990000D01*
X17910000Y-8985000D02*
X17940000Y-9015000D01*
X17940000Y-8985000D02*
X17910000Y-9015000D01*
X17915000Y-4505000D02*
X17945000Y-4535000D01*
X17945000Y-4505000D02*
X17915000Y-4535000D01*
X17915000Y-8675000D02*
X17945000Y-8705000D01*
X17945000Y-8675000D02*
X17915000Y-8705000D01*
X17935000Y-9685000D02*
X17965000Y-9715000D01*
X17965000Y-9685000D02*
X17935000Y-9715000D01*
X17945000Y-3575000D02*
X17975000Y-3605000D01*
X17975000Y-3575000D02*
X17945000Y-3605000D01*
X17985000Y-4595000D02*
X18015000Y-4625000D01*
X18015000Y-4595000D02*
X17985000Y-4625000D01*
X18015000Y-9785000D02*
X18045000Y-9815000D01*
X18045000Y-9785000D02*
X18015000Y-9815000D01*
X18025000Y-3865000D02*
X18055000Y-3895000D01*
X18055000Y-3865000D02*
X18025000Y-3895000D01*
X18075000Y-4685000D02*
X18105000Y-4715000D01*
X18105000Y-4685000D02*
X18075000Y-4715000D01*
X18085000Y-10660000D02*
X18115000Y-10690000D01*
X18115000Y-10660000D02*
X18085000Y-10690000D01*
X18105000Y-9875000D02*
X18135000Y-9905000D01*
X18135000Y-9875000D02*
X18105000Y-9905000D01*
X18160000Y-5560000D02*
X18190000Y-5590000D01*
X18190000Y-5560000D02*
X18160000Y-5590000D01*
X18175000Y-4785000D02*
X18205000Y-4815000D01*
X18205000Y-4785000D02*
X18175000Y-4815000D01*
X18235000Y-10660000D02*
X18265000Y-10690000D01*
X18265000Y-10660000D02*
X18235000Y-10690000D01*
X18310000Y-5560000D02*
X18340000Y-5590000D01*
X18340000Y-5560000D02*
X18310000Y-5590000D01*
X18535000Y-8735000D02*
X18565000Y-8765000D01*
X18565000Y-8735000D02*
X18535000Y-8765000D01*
X18610000Y-3610000D02*
X18640000Y-3640000D01*
X18640000Y-3610000D02*
X18610000Y-3640000D01*
X18685000Y-8735000D02*
X18715000Y-8765000D01*
X18715000Y-8735000D02*
X18685000Y-8765000D01*
X18760000Y-3610000D02*
X18790000Y-3640000D01*
X18790000Y-3610000D02*
X18760000Y-3640000D01*
X20750000Y-2250000D02*
X20780000Y-2280000D01*
X20780000Y-2250000D02*
X20750000Y-2280000D01*
X20750000Y-2675000D02*
X20780000Y-2705000D01*
X20780000Y-2675000D02*
X20750000Y-2705000D01*
X20750000Y-3000000D02*
X20780000Y-3030000D01*
X20780000Y-3000000D02*
X20750000Y-3030000D01*
X20750000Y-3300000D02*
X20780000Y-3330000D01*
X20780000Y-3300000D02*
X20750000Y-3330000D01*
X20750000Y-3625000D02*
X20780000Y-3655000D01*
X20780000Y-3625000D02*
X20750000Y-3655000D01*
X20750000Y-3925000D02*
X20780000Y-3955000D01*
X20780000Y-3925000D02*
X20750000Y-3955000D01*
X20750000Y-4325000D02*
X20780000Y-4355000D01*
X20780000Y-4325000D02*
X20750000Y-4355000D01*
X20750000Y-4700000D02*
X20780000Y-4730000D01*
X20780000Y-4700000D02*
X20750000Y-4730000D01*
X20750000Y-5125000D02*
X20780000Y-5155000D01*
X20780000Y-5125000D02*
X20750000Y-5155000D01*
X20750000Y-5450000D02*
X20780000Y-5480000D01*
X20780000Y-5450000D02*
X20750000Y-5480000D01*
X20750000Y-5750000D02*
X20780000Y-5780000D01*
X20780000Y-5750000D02*
X20750000Y-5780000D01*
X20750000Y-6075000D02*
X20780000Y-6105000D01*
X20780000Y-6075000D02*
X20750000Y-6105000D01*
X20750000Y-6375000D02*
X20780000Y-6405000D01*
X20780000Y-6375000D02*
X20750000Y-6405000D01*
X20750000Y-6775000D02*
X20780000Y-6805000D01*
X20780000Y-6775000D02*
X20750000Y-6805000D01*
X20750000Y-7175000D02*
X20780000Y-7205000D01*
X20780000Y-7175000D02*
X20750000Y-7205000D01*
X20750000Y-7475000D02*
X20780000Y-7505000D01*
X20780000Y-7475000D02*
X20750000Y-7505000D01*
X20750000Y-7875000D02*
X20780000Y-7905000D01*
X20780000Y-7875000D02*
X20750000Y-7905000D01*
X20750000Y-8250000D02*
X20780000Y-8280000D01*
X20780000Y-8250000D02*
X20750000Y-8280000D01*
X20750000Y-8675000D02*
X20780000Y-8705000D01*
X20780000Y-8675000D02*
X20750000Y-8705000D01*
X20750000Y-9000000D02*
X20780000Y-9030000D01*
X20780000Y-9000000D02*
X20750000Y-9030000D01*
X20750000Y-9300000D02*
X20780000Y-9330000D01*
X20780000Y-9300000D02*
X20750000Y-9330000D01*
X20750000Y-9625000D02*
X20780000Y-9655000D01*
X20780000Y-9625000D02*
X20750000Y-9655000D01*
X20750000Y-9925000D02*
X20780000Y-9955000D01*
X20780000Y-9925000D02*
X20750000Y-9955000D01*
X20750000Y-10325000D02*
X20780000Y-10355000D01*
X20780000Y-10325000D02*
X20750000Y-10355000D01*
X8695000Y-9725000D02*
G75*
G03X8695000Y-9725000I-20000J0D01*
G01*
X8720000Y-9575000D02*
G75*
G03X8720000Y-9575000I-20000J0D01*
G01*
X8720000Y-9850000D02*
G75*
G03X8720000Y-9850000I-20000J0D01*
G01*
X8745000Y-9475000D02*
G75*
G03X8745000Y-9475000I-20000J0D01*
G01*
X8745000Y-9975000D02*
G75*
G03X8745000Y-9975000I-20000J0D01*
G01*
X8770000Y-4625000D02*
G75*
G03X8770000Y-4625000I-20000J0D01*
G01*
X8770000Y-10150000D02*
G75*
G03X8770000Y-10150000I-20000J0D01*
G01*
X8795000Y-4475000D02*
G75*
G03X8795000Y-4475000I-20000J0D01*
G01*
X8795000Y-4750000D02*
G75*
G03X8795000Y-4750000I-20000J0D01*
G01*
X8820000Y-4375000D02*
G75*
G03X8820000Y-4375000I-20000J0D01*
G01*
X8820000Y-4875000D02*
G75*
G03X8820000Y-4875000I-20000J0D01*
G01*
X8820000Y-9250000D02*
G75*
G03X8820000Y-9250000I-20000J0D01*
G01*
X8845000Y-5050000D02*
G75*
G03X8845000Y-5050000I-20000J0D01*
G01*
X8895000Y-4150000D02*
G75*
G03X8895000Y-4150000I-20000J0D01*
G01*
X8895000Y-9200000D02*
G75*
G03X8895000Y-9200000I-20000J0D01*
G01*
X8970000Y-4100000D02*
G75*
G03X8970000Y-4100000I-20000J0D01*
G01*
X8982500Y-9162500D02*
G75*
G03X8982500Y-9162500I-20000J0D01*
G01*
X9057500Y-4062500D02*
G75*
G03X9057500Y-4062500I-20000J0D01*
G01*
X9082500Y-9187500D02*
G75*
G03X9082500Y-9187500I-20000J0D01*
G01*
X9132500Y-8962500D02*
G75*
G03X9132500Y-8962500I-20000J0D01*
G01*
X9132500Y-9987500D02*
G75*
G03X9132500Y-9987500I-20000J0D01*
G01*
X9157500Y-4087500D02*
G75*
G03X9157500Y-4087500I-20000J0D01*
G01*
X9207500Y-3862500D02*
G75*
G03X9207500Y-3862500I-20000J0D01*
G01*
X9207500Y-4887500D02*
G75*
G03X9207500Y-4887500I-20000J0D01*
G01*
X9245000Y-6850000D02*
G75*
G03X9245000Y-6850000I-20000J0D01*
G01*
X9307500Y-9987500D02*
G75*
G03X9307500Y-9987500I-20000J0D01*
G01*
X9320000Y-1750000D02*
G75*
G03X9320000Y-1750000I-20000J0D01*
G01*
X9345000Y-6775000D02*
G75*
G03X9345000Y-6775000I-20000J0D01*
G01*
X9370000Y-8275000D02*
G75*
G03X9370000Y-8275000I-20000J0D01*
G01*
X9382500Y-4887500D02*
G75*
G03X9382500Y-4887500I-20000J0D01*
G01*
X9420000Y-1675000D02*
G75*
G03X9420000Y-1675000I-20000J0D01*
G01*
X9432500Y-8812500D02*
G75*
G03X9432500Y-8812500I-20000J0D01*
G01*
X9445000Y-3175000D02*
G75*
G03X9445000Y-3175000I-20000J0D01*
G01*
X9445000Y-6700000D02*
G75*
G03X9445000Y-6700000I-20000J0D01*
G01*
X9445000Y-7275000D02*
G75*
G03X9445000Y-7275000I-20000J0D01*
G01*
X9445000Y-7450000D02*
G75*
G03X9445000Y-7450000I-20000J0D01*
G01*
X9445000Y-7850000D02*
G75*
G03X9445000Y-7850000I-20000J0D01*
G01*
X9507500Y-3712500D02*
G75*
G03X9507500Y-3712500I-20000J0D01*
G01*
X9520000Y-1600000D02*
G75*
G03X9520000Y-1600000I-20000J0D01*
G01*
X9520000Y-2175000D02*
G75*
G03X9520000Y-2175000I-20000J0D01*
G01*
X9520000Y-2350000D02*
G75*
G03X9520000Y-2350000I-20000J0D01*
G01*
X9520000Y-2750000D02*
G75*
G03X9520000Y-2750000I-20000J0D01*
G01*
X9620000Y-6625000D02*
G75*
G03X9620000Y-6625000I-20000J0D01*
G01*
X9657500Y-8962500D02*
G75*
G03X9657500Y-8962500I-20000J0D01*
G01*
X9670000Y-7925000D02*
G75*
G03X9670000Y-7925000I-20000J0D01*
G01*
X9695000Y-1525000D02*
G75*
G03X9695000Y-1525000I-20000J0D01*
G01*
X9707500Y-9987500D02*
G75*
G03X9707500Y-9987500I-20000J0D01*
G01*
X9732500Y-3862500D02*
G75*
G03X9732500Y-3862500I-20000J0D01*
G01*
X9745000Y-2825000D02*
G75*
G03X9745000Y-2825000I-20000J0D01*
G01*
X9782500Y-4887500D02*
G75*
G03X9782500Y-4887500I-20000J0D01*
G01*
X9782500Y-9337500D02*
G75*
G03X9782500Y-9337500I-20000J0D01*
G01*
X9782500Y-9762500D02*
G75*
G03X9782500Y-9762500I-20000J0D01*
G01*
X9857500Y-4237500D02*
G75*
G03X9857500Y-4237500I-20000J0D01*
G01*
X9857500Y-4662500D02*
G75*
G03X9857500Y-4662500I-20000J0D01*
G01*
X9870000Y-6750000D02*
G75*
G03X9870000Y-6750000I-20000J0D01*
G01*
X9945000Y-1650000D02*
G75*
G03X9945000Y-1650000I-20000J0D01*
G01*
X9995000Y-6550000D02*
G75*
G03X9995000Y-6550000I-20000J0D01*
G01*
X10070000Y-1450000D02*
G75*
G03X10070000Y-1450000I-20000J0D01*
G01*
X10082500Y-8712500D02*
G75*
G03X10082500Y-8712500I-20000J0D01*
G01*
X10082500Y-9037500D02*
G75*
G03X10082500Y-9037500I-20000J0D01*
G01*
X10095000Y-7925000D02*
G75*
G03X10095000Y-7925000I-20000J0D01*
G01*
X10132500Y-10062500D02*
G75*
G03X10132500Y-10062500I-20000J0D01*
G01*
X10157500Y-3612500D02*
G75*
G03X10157500Y-3612500I-20000J0D01*
G01*
X10157500Y-3937500D02*
G75*
G03X10157500Y-3937500I-20000J0D01*
G01*
X10170000Y-2825000D02*
G75*
G03X10170000Y-2825000I-20000J0D01*
G01*
X10170000Y-6975000D02*
G75*
G03X10170000Y-6975000I-20000J0D01*
G01*
X10207500Y-4962500D02*
G75*
G03X10207500Y-4962500I-20000J0D01*
G01*
X10220000Y-7050000D02*
G75*
G03X10220000Y-7050000I-20000J0D01*
G01*
X10245000Y-1875000D02*
G75*
G03X10245000Y-1875000I-20000J0D01*
G01*
X10245000Y-7225000D02*
G75*
G03X10245000Y-7225000I-20000J0D01*
G01*
X10270000Y-7125000D02*
G75*
G03X10270000Y-7125000I-20000J0D01*
G01*
X10295000Y-1950000D02*
G75*
G03X10295000Y-1950000I-20000J0D01*
G01*
X10320000Y-2125000D02*
G75*
G03X10320000Y-2125000I-20000J0D01*
G01*
X10345000Y-2025000D02*
G75*
G03X10345000Y-2025000I-20000J0D01*
G01*
X10395000Y-8225000D02*
G75*
G03X10395000Y-8225000I-20000J0D01*
G01*
X10470000Y-3125000D02*
G75*
G03X10470000Y-3125000I-20000J0D01*
G01*
X10470000Y-7275000D02*
G75*
G03X10470000Y-7275000I-20000J0D01*
G01*
X10470000Y-7800000D02*
G75*
G03X10470000Y-7800000I-20000J0D01*
G01*
X10495000Y-6600000D02*
G75*
G03X10495000Y-6600000I-20000J0D01*
G01*
X10495000Y-7125000D02*
G75*
G03X10495000Y-7125000I-20000J0D01*
G01*
X10520000Y-5700000D02*
G75*
G03X10520000Y-5700000I-20000J0D01*
G01*
X10545000Y-2175000D02*
G75*
G03X10545000Y-2175000I-20000J0D01*
G01*
X10545000Y-2700000D02*
G75*
G03X10545000Y-2700000I-20000J0D01*
G01*
X10595000Y-5775000D02*
G75*
G03X10595000Y-5775000I-20000J0D01*
G01*
X10595000Y-6700000D02*
G75*
G03X10595000Y-6700000I-20000J0D01*
G01*
X10595000Y-7050000D02*
G75*
G03X10595000Y-7050000I-20000J0D01*
G01*
X10620000Y-7575000D02*
G75*
G03X10620000Y-7575000I-20000J0D01*
G01*
X10695000Y-2475000D02*
G75*
G03X10695000Y-2475000I-20000J0D01*
G01*
X10695000Y-5850000D02*
G75*
G03X10695000Y-5850000I-20000J0D01*
G01*
X10695000Y-6775000D02*
G75*
G03X10695000Y-6775000I-20000J0D01*
G01*
X10695000Y-6975000D02*
G75*
G03X10695000Y-6975000I-20000J0D01*
G01*
X10720000Y-8225000D02*
G75*
G03X10720000Y-8225000I-20000J0D01*
G01*
X10795000Y-3125000D02*
G75*
G03X10795000Y-3125000I-20000J0D01*
G01*
X10970000Y-5250000D02*
G75*
G03X10970000Y-5250000I-20000J0D01*
G01*
X10970000Y-6875000D02*
G75*
G03X10970000Y-6875000I-20000J0D01*
G01*
X10970000Y-7575000D02*
G75*
G03X10970000Y-7575000I-20000J0D01*
G01*
X11045000Y-9700000D02*
G75*
G03X11045000Y-9700000I-20000J0D01*
G01*
X11120000Y-4600000D02*
G75*
G03X11120000Y-4600000I-20000J0D01*
G01*
X11145000Y-10350000D02*
G75*
G03X11145000Y-10350000I-20000J0D01*
G01*
X11220000Y-5250000D02*
G75*
G03X11220000Y-5250000I-20000J0D01*
G01*
X11295000Y-10125000D02*
G75*
G03X11295000Y-10125000I-20000J0D01*
G01*
X11295000Y-10650000D02*
G75*
G03X11295000Y-10650000I-20000J0D01*
G01*
X11370000Y-5025000D02*
G75*
G03X11370000Y-5025000I-20000J0D01*
G01*
X11370000Y-5550000D02*
G75*
G03X11370000Y-5550000I-20000J0D01*
G01*
X11370000Y-9700000D02*
G75*
G03X11370000Y-9700000I-20000J0D01*
G01*
X11445000Y-4600000D02*
G75*
G03X11445000Y-4600000I-20000J0D01*
G01*
X11495000Y-10800000D02*
G75*
G03X11495000Y-10800000I-20000J0D01*
G01*
X11520000Y-10700000D02*
G75*
G03X11520000Y-10700000I-20000J0D01*
G01*
X11545000Y-10875000D02*
G75*
G03X11545000Y-10875000I-20000J0D01*
G01*
X11570000Y-5700000D02*
G75*
G03X11570000Y-5700000I-20000J0D01*
G01*
X11595000Y-5600000D02*
G75*
G03X11595000Y-5600000I-20000J0D01*
G01*
X11595000Y-10950000D02*
G75*
G03X11595000Y-10950000I-20000J0D01*
G01*
X11620000Y-5775000D02*
G75*
G03X11620000Y-5775000I-20000J0D01*
G01*
X11670000Y-5850000D02*
G75*
G03X11670000Y-5850000I-20000J0D01*
G01*
X11670000Y-7475000D02*
G75*
G03X11670000Y-7475000I-20000J0D01*
G01*
X11670000Y-10000000D02*
G75*
G03X11670000Y-10000000I-20000J0D01*
G01*
X11720000Y-8500000D02*
G75*
G03X11720000Y-8500000I-20000J0D01*
G01*
X11720000Y-8750000D02*
G75*
G03X11720000Y-8750000I-20000J0D01*
G01*
X11745000Y-2375000D02*
G75*
G03X11745000Y-2375000I-20000J0D01*
G01*
X11745000Y-4900000D02*
G75*
G03X11745000Y-4900000I-20000J0D01*
G01*
X11770000Y-11025000D02*
G75*
G03X11770000Y-11025000I-20000J0D01*
G01*
X11795000Y-3400000D02*
G75*
G03X11795000Y-3400000I-20000J0D01*
G01*
X11795000Y-3650000D02*
G75*
G03X11795000Y-3650000I-20000J0D01*
G01*
X11845000Y-5925000D02*
G75*
G03X11845000Y-5925000I-20000J0D01*
G01*
X11895000Y-11025000D02*
G75*
G03X11895000Y-11025000I-20000J0D01*
G01*
X11970000Y-5925000D02*
G75*
G03X11970000Y-5925000I-20000J0D01*
G01*
X11970000Y-11125000D02*
G75*
G03X11970000Y-11125000I-20000J0D01*
G01*
X12020000Y-7775000D02*
G75*
G03X12020000Y-7775000I-20000J0D01*
G01*
X12020000Y-8200000D02*
G75*
G03X12020000Y-8200000I-20000J0D01*
G01*
X12045000Y-6025000D02*
G75*
G03X12045000Y-6025000I-20000J0D01*
G01*
X12045000Y-11200000D02*
G75*
G03X12045000Y-11200000I-20000J0D01*
G01*
X12095000Y-2675000D02*
G75*
G03X12095000Y-2675000I-20000J0D01*
G01*
X12095000Y-3100000D02*
G75*
G03X12095000Y-3100000I-20000J0D01*
G01*
X12095000Y-7550000D02*
G75*
G03X12095000Y-7550000I-20000J0D01*
G01*
X12095000Y-10000000D02*
G75*
G03X12095000Y-10000000I-20000J0D01*
G01*
X12120000Y-6100000D02*
G75*
G03X12120000Y-6100000I-20000J0D01*
G01*
X12145000Y-8575000D02*
G75*
G03X12145000Y-8575000I-20000J0D01*
G01*
X12170000Y-2450000D02*
G75*
G03X12170000Y-2450000I-20000J0D01*
G01*
X12170000Y-4900000D02*
G75*
G03X12170000Y-4900000I-20000J0D01*
G01*
X12220000Y-3475000D02*
G75*
G03X12220000Y-3475000I-20000J0D01*
G01*
X12320000Y-10075000D02*
G75*
G03X12320000Y-10075000I-20000J0D01*
G01*
X12320000Y-10475000D02*
G75*
G03X12320000Y-10475000I-20000J0D01*
G01*
X12320000Y-10650000D02*
G75*
G03X12320000Y-10650000I-20000J0D01*
G01*
X12370000Y-8725000D02*
G75*
G03X12370000Y-8725000I-20000J0D01*
G01*
X12395000Y-4975000D02*
G75*
G03X12395000Y-4975000I-20000J0D01*
G01*
X12395000Y-5375000D02*
G75*
G03X12395000Y-5375000I-20000J0D01*
G01*
X12395000Y-5550000D02*
G75*
G03X12395000Y-5550000I-20000J0D01*
G01*
X12395000Y-9650000D02*
G75*
G03X12395000Y-9650000I-20000J0D01*
G01*
X12420000Y-11275000D02*
G75*
G03X12420000Y-11275000I-20000J0D01*
G01*
X12445000Y-3625000D02*
G75*
G03X12445000Y-3625000I-20000J0D01*
G01*
X12470000Y-4550000D02*
G75*
G03X12470000Y-4550000I-20000J0D01*
G01*
X12495000Y-6175000D02*
G75*
G03X12495000Y-6175000I-20000J0D01*
G01*
X12495000Y-7550000D02*
G75*
G03X12495000Y-7550000I-20000J0D01*
G01*
X12520000Y-11100000D02*
G75*
G03X12520000Y-11100000I-20000J0D01*
G01*
X12570000Y-2450000D02*
G75*
G03X12570000Y-2450000I-20000J0D01*
G01*
X12595000Y-6000000D02*
G75*
G03X12595000Y-6000000I-20000J0D01*
G01*
X12670000Y-7550000D02*
G75*
G03X12670000Y-7550000I-20000J0D01*
G01*
X12670000Y-8575000D02*
G75*
G03X12670000Y-8575000I-20000J0D01*
G01*
X12720000Y-8350000D02*
G75*
G03X12720000Y-8350000I-20000J0D01*
G01*
X12745000Y-2450000D02*
G75*
G03X12745000Y-2450000I-20000J0D01*
G01*
X12745000Y-3475000D02*
G75*
G03X12745000Y-3475000I-20000J0D01*
G01*
X12795000Y-3250000D02*
G75*
G03X12795000Y-3250000I-20000J0D01*
G01*
X12820000Y-8375000D02*
G75*
G03X12820000Y-8375000I-20000J0D01*
G01*
X12895000Y-3275000D02*
G75*
G03X12895000Y-3275000I-20000J0D01*
G01*
X12895000Y-8325000D02*
G75*
G03X12895000Y-8325000I-20000J0D01*
G01*
X12970000Y-3225000D02*
G75*
G03X12970000Y-3225000I-20000J0D01*
G01*
X12995000Y-8300000D02*
G75*
G03X12995000Y-8300000I-20000J0D01*
G01*
X13070000Y-3200000D02*
G75*
G03X13070000Y-3200000I-20000J0D01*
G01*
X13070000Y-7975000D02*
G75*
G03X13070000Y-7975000I-20000J0D01*
G01*
X13070000Y-8100000D02*
G75*
G03X13070000Y-8100000I-20000J0D01*
G01*
X13145000Y-2875000D02*
G75*
G03X13145000Y-2875000I-20000J0D01*
G01*
X13145000Y-3000000D02*
G75*
G03X13145000Y-3000000I-20000J0D01*
G01*
X13145000Y-7325000D02*
G75*
G03X13145000Y-7325000I-20000J0D01*
G01*
X13145000Y-7900000D02*
G75*
G03X13145000Y-7900000I-20000J0D01*
G01*
X13220000Y-2225000D02*
G75*
G03X13220000Y-2225000I-20000J0D01*
G01*
X13220000Y-2800000D02*
G75*
G03X13220000Y-2800000I-20000J0D01*
G01*
X13245000Y-7825000D02*
G75*
G03X13245000Y-7825000I-20000J0D01*
G01*
X13320000Y-2725000D02*
G75*
G03X13320000Y-2725000I-20000J0D01*
G01*
X13320000Y-7450000D02*
G75*
G03X13320000Y-7450000I-20000J0D01*
G01*
X13395000Y-2350000D02*
G75*
G03X13395000Y-2350000I-20000J0D01*
G01*
X14745000Y-10800000D02*
G75*
G03X14745000Y-10800000I-20000J0D01*
G01*
X14820000Y-5700000D02*
G75*
G03X14820000Y-5700000I-20000J0D01*
G01*
X14820000Y-10425000D02*
G75*
G03X14820000Y-10425000I-20000J0D01*
G01*
X14870000Y-6525000D02*
G75*
G03X14870000Y-6525000I-20000J0D01*
G01*
X14895000Y-5325000D02*
G75*
G03X14895000Y-5325000I-20000J0D01*
G01*
X14920000Y-10350000D02*
G75*
G03X14920000Y-10350000I-20000J0D01*
G01*
X14920000Y-10925000D02*
G75*
G03X14920000Y-10925000I-20000J0D01*
G01*
X14945000Y-6450000D02*
G75*
G03X14945000Y-6450000I-20000J0D01*
G01*
X14995000Y-5250000D02*
G75*
G03X14995000Y-5250000I-20000J0D01*
G01*
X14995000Y-5825000D02*
G75*
G03X14995000Y-5825000I-20000J0D01*
G01*
X14995000Y-6375000D02*
G75*
G03X14995000Y-6375000I-20000J0D01*
G01*
X14995000Y-10150000D02*
G75*
G03X14995000Y-10150000I-20000J0D01*
G01*
X14995000Y-10275000D02*
G75*
G03X14995000Y-10275000I-20000J0D01*
G01*
X15070000Y-5050000D02*
G75*
G03X15070000Y-5050000I-20000J0D01*
G01*
X15070000Y-5175000D02*
G75*
G03X15070000Y-5175000I-20000J0D01*
G01*
X15070000Y-9950000D02*
G75*
G03X15070000Y-9950000I-20000J0D01*
G01*
X15145000Y-4850000D02*
G75*
G03X15145000Y-4850000I-20000J0D01*
G01*
X15170000Y-9925000D02*
G75*
G03X15170000Y-9925000I-20000J0D01*
G01*
X15195000Y-6450000D02*
G75*
G03X15195000Y-6450000I-20000J0D01*
G01*
X15220000Y-6575000D02*
G75*
G03X15220000Y-6575000I-20000J0D01*
G01*
X15220000Y-6700000D02*
G75*
G03X15220000Y-6700000I-20000J0D01*
G01*
X15245000Y-4825000D02*
G75*
G03X15245000Y-4825000I-20000J0D01*
G01*
X15245000Y-9875000D02*
G75*
G03X15245000Y-9875000I-20000J0D01*
G01*
X15320000Y-4775000D02*
G75*
G03X15320000Y-4775000I-20000J0D01*
G01*
X15345000Y-9900000D02*
G75*
G03X15345000Y-9900000I-20000J0D01*
G01*
X15395000Y-9675000D02*
G75*
G03X15395000Y-9675000I-20000J0D01*
G01*
X15395000Y-10700000D02*
G75*
G03X15395000Y-10700000I-20000J0D01*
G01*
X15420000Y-4800000D02*
G75*
G03X15420000Y-4800000I-20000J0D01*
G01*
X15470000Y-4575000D02*
G75*
G03X15470000Y-4575000I-20000J0D01*
G01*
X15470000Y-5600000D02*
G75*
G03X15470000Y-5600000I-20000J0D01*
G01*
X15545000Y-7150000D02*
G75*
G03X15545000Y-7150000I-20000J0D01*
G01*
X15570000Y-10700000D02*
G75*
G03X15570000Y-10700000I-20000J0D01*
G01*
X15620000Y-2050000D02*
G75*
G03X15620000Y-2050000I-20000J0D01*
G01*
X15645000Y-5600000D02*
G75*
G03X15645000Y-5600000I-20000J0D01*
G01*
X15645000Y-6975000D02*
G75*
G03X15645000Y-6975000I-20000J0D01*
G01*
X15670000Y-8600000D02*
G75*
G03X15670000Y-8600000I-20000J0D01*
G01*
X15695000Y-9525000D02*
G75*
G03X15695000Y-9525000I-20000J0D01*
G01*
X15720000Y-1875000D02*
G75*
G03X15720000Y-1875000I-20000J0D01*
G01*
X15745000Y-3500000D02*
G75*
G03X15745000Y-3500000I-20000J0D01*
G01*
X15745000Y-7600000D02*
G75*
G03X15745000Y-7600000I-20000J0D01*
G01*
X15745000Y-7775000D02*
G75*
G03X15745000Y-7775000I-20000J0D01*
G01*
X15745000Y-8175000D02*
G75*
G03X15745000Y-8175000I-20000J0D01*
G01*
X15770000Y-4425000D02*
G75*
G03X15770000Y-4425000I-20000J0D01*
G01*
X15820000Y-2500000D02*
G75*
G03X15820000Y-2500000I-20000J0D01*
G01*
X15820000Y-2675000D02*
G75*
G03X15820000Y-2675000I-20000J0D01*
G01*
X15820000Y-3075000D02*
G75*
G03X15820000Y-3075000I-20000J0D01*
G01*
X15920000Y-9675000D02*
G75*
G03X15920000Y-9675000I-20000J0D01*
G01*
X15970000Y-8250000D02*
G75*
G03X15970000Y-8250000I-20000J0D01*
G01*
X15970000Y-10700000D02*
G75*
G03X15970000Y-10700000I-20000J0D01*
G01*
X15995000Y-4575000D02*
G75*
G03X15995000Y-4575000I-20000J0D01*
G01*
X16020000Y-7050000D02*
G75*
G03X16020000Y-7050000I-20000J0D01*
G01*
X16045000Y-3150000D02*
G75*
G03X16045000Y-3150000I-20000J0D01*
G01*
X16045000Y-5600000D02*
G75*
G03X16045000Y-5600000I-20000J0D01*
G01*
X16045000Y-10050000D02*
G75*
G03X16045000Y-10050000I-20000J0D01*
G01*
X16045000Y-10475000D02*
G75*
G03X16045000Y-10475000I-20000J0D01*
G01*
X16095000Y-1950000D02*
G75*
G03X16095000Y-1950000I-20000J0D01*
G01*
X16095000Y-7125000D02*
G75*
G03X16095000Y-7125000I-20000J0D01*
G01*
X16120000Y-4950000D02*
G75*
G03X16120000Y-4950000I-20000J0D01*
G01*
X16120000Y-5375000D02*
G75*
G03X16120000Y-5375000I-20000J0D01*
G01*
X16170000Y-2025000D02*
G75*
G03X16170000Y-2025000I-20000J0D01*
G01*
X16170000Y-7225000D02*
G75*
G03X16170000Y-7225000I-20000J0D01*
G01*
X16245000Y-2125000D02*
G75*
G03X16245000Y-2125000I-20000J0D01*
G01*
X16295000Y-7225000D02*
G75*
G03X16295000Y-7225000I-20000J0D01*
G01*
X16345000Y-9500000D02*
G75*
G03X16345000Y-9500000I-20000J0D01*
G01*
X16345000Y-9750000D02*
G75*
G03X16345000Y-9750000I-20000J0D01*
G01*
X16370000Y-2125000D02*
G75*
G03X16370000Y-2125000I-20000J0D01*
G01*
X16395000Y-8250000D02*
G75*
G03X16395000Y-8250000I-20000J0D01*
G01*
X16395000Y-10775000D02*
G75*
G03X16395000Y-10775000I-20000J0D01*
G01*
X16420000Y-4400000D02*
G75*
G03X16420000Y-4400000I-20000J0D01*
G01*
X16420000Y-4650000D02*
G75*
G03X16420000Y-4650000I-20000J0D01*
G01*
X16470000Y-3150000D02*
G75*
G03X16470000Y-3150000I-20000J0D01*
G01*
X16470000Y-5675000D02*
G75*
G03X16470000Y-5675000I-20000J0D01*
G01*
X16470000Y-7300000D02*
G75*
G03X16470000Y-7300000I-20000J0D01*
G01*
X16520000Y-7375000D02*
G75*
G03X16520000Y-7375000I-20000J0D01*
G01*
X16545000Y-2200000D02*
G75*
G03X16545000Y-2200000I-20000J0D01*
G01*
X16545000Y-7550000D02*
G75*
G03X16545000Y-7550000I-20000J0D01*
G01*
X16570000Y-7450000D02*
G75*
G03X16570000Y-7450000I-20000J0D01*
G01*
X16595000Y-2275000D02*
G75*
G03X16595000Y-2275000I-20000J0D01*
G01*
X16620000Y-2450000D02*
G75*
G03X16620000Y-2450000I-20000J0D01*
G01*
X16645000Y-2350000D02*
G75*
G03X16645000Y-2350000I-20000J0D01*
G01*
X16695000Y-8550000D02*
G75*
G03X16695000Y-8550000I-20000J0D01*
G01*
X16770000Y-3450000D02*
G75*
G03X16770000Y-3450000I-20000J0D01*
G01*
X16770000Y-7600000D02*
G75*
G03X16770000Y-7600000I-20000J0D01*
G01*
X16770000Y-8125000D02*
G75*
G03X16770000Y-8125000I-20000J0D01*
G01*
X16845000Y-2500000D02*
G75*
G03X16845000Y-2500000I-20000J0D01*
G01*
X16845000Y-3025000D02*
G75*
G03X16845000Y-3025000I-20000J0D01*
G01*
X16920000Y-7900000D02*
G75*
G03X16920000Y-7900000I-20000J0D01*
G01*
X16995000Y-2800000D02*
G75*
G03X16995000Y-2800000I-20000J0D01*
G01*
X17020000Y-8550000D02*
G75*
G03X17020000Y-8550000I-20000J0D01*
G01*
X17045000Y-5575000D02*
G75*
G03X17045000Y-5575000I-20000J0D01*
G01*
X17045000Y-6600000D02*
G75*
G03X17045000Y-6600000I-20000J0D01*
G01*
X17045000Y-7900000D02*
G75*
G03X17045000Y-7900000I-20000J0D01*
G01*
X17095000Y-3450000D02*
G75*
G03X17095000Y-3450000I-20000J0D01*
G01*
X17345000Y-10025000D02*
G75*
G03X17345000Y-10025000I-20000J0D01*
G01*
X17370000Y-6175000D02*
G75*
G03X17370000Y-6175000I-20000J0D01*
G01*
X17370000Y-6500000D02*
G75*
G03X17370000Y-6500000I-20000J0D01*
G01*
X17370000Y-7300000D02*
G75*
G03X17370000Y-7300000I-20000J0D01*
G01*
X17420000Y-4925000D02*
G75*
G03X17420000Y-4925000I-20000J0D01*
G01*
X17445000Y-6100000D02*
G75*
G03X17445000Y-6100000I-20000J0D01*
G01*
X17445000Y-6400000D02*
G75*
G03X17445000Y-6400000I-20000J0D01*
G01*
X17445000Y-7375000D02*
G75*
G03X17445000Y-7375000I-20000J0D01*
G01*
X17445000Y-10675000D02*
G75*
G03X17445000Y-10675000I-20000J0D01*
G01*
X17520000Y-5575000D02*
G75*
G03X17520000Y-5575000I-20000J0D01*
G01*
X17520000Y-6025000D02*
G75*
G03X17520000Y-6025000I-20000J0D01*
G01*
X17520000Y-6300000D02*
G75*
G03X17520000Y-6300000I-20000J0D01*
G01*
X17520000Y-7450000D02*
G75*
G03X17520000Y-7450000I-20000J0D01*
G01*
X17595000Y-10450000D02*
G75*
G03X17595000Y-10450000I-20000J0D01*
G01*
X17595000Y-10975000D02*
G75*
G03X17595000Y-10975000I-20000J0D01*
G01*
X17670000Y-5350000D02*
G75*
G03X17670000Y-5350000I-20000J0D01*
G01*
X17670000Y-5875000D02*
G75*
G03X17670000Y-5875000I-20000J0D01*
G01*
X17670000Y-10025000D02*
G75*
G03X17670000Y-10025000I-20000J0D01*
G01*
X17745000Y-4925000D02*
G75*
G03X17745000Y-4925000I-20000J0D01*
G01*
X17795000Y-11125000D02*
G75*
G03X17795000Y-11125000I-20000J0D01*
G01*
X17820000Y-11025000D02*
G75*
G03X17820000Y-11025000I-20000J0D01*
G01*
X17845000Y-11200000D02*
G75*
G03X17845000Y-11200000I-20000J0D01*
G01*
X17870000Y-6025000D02*
G75*
G03X17870000Y-6025000I-20000J0D01*
G01*
X17895000Y-5925000D02*
G75*
G03X17895000Y-5925000I-20000J0D01*
G01*
X17895000Y-11275000D02*
G75*
G03X17895000Y-11275000I-20000J0D01*
G01*
X17920000Y-6100000D02*
G75*
G03X17920000Y-6100000I-20000J0D01*
G01*
X17932500Y-8187500D02*
G75*
G03X17932500Y-8187500I-20000J0D01*
G01*
X17970000Y-6175000D02*
G75*
G03X17970000Y-6175000I-20000J0D01*
G01*
X17970000Y-10325000D02*
G75*
G03X17970000Y-10325000I-20000J0D01*
G01*
X17982500Y-9212500D02*
G75*
G03X17982500Y-9212500I-20000J0D01*
G01*
X17982500Y-9537500D02*
G75*
G03X17982500Y-9537500I-20000J0D01*
G01*
X18007500Y-3087500D02*
G75*
G03X18007500Y-3087500I-20000J0D01*
G01*
X18045000Y-5225000D02*
G75*
G03X18045000Y-5225000I-20000J0D01*
G01*
X18057500Y-4112500D02*
G75*
G03X18057500Y-4112500I-20000J0D01*
G01*
X18057500Y-4437500D02*
G75*
G03X18057500Y-4437500I-20000J0D01*
G01*
X18070000Y-11700000D02*
G75*
G03X18070000Y-11700000I-20000J0D01*
G01*
X18095000Y-6400000D02*
G75*
G03X18095000Y-6400000I-20000J0D01*
G01*
X18195000Y-11500000D02*
G75*
G03X18195000Y-11500000I-20000J0D01*
G01*
X18270000Y-6400000D02*
G75*
G03X18270000Y-6400000I-20000J0D01*
G01*
X18282500Y-8487500D02*
G75*
G03X18282500Y-8487500I-20000J0D01*
G01*
X18282500Y-8912500D02*
G75*
G03X18282500Y-8912500I-20000J0D01*
G01*
X18357500Y-3387500D02*
G75*
G03X18357500Y-3387500I-20000J0D01*
G01*
X18357500Y-3812500D02*
G75*
G03X18357500Y-3812500I-20000J0D01*
G01*
X18357500Y-8262500D02*
G75*
G03X18357500Y-8262500I-20000J0D01*
G01*
X18395000Y-10325000D02*
G75*
G03X18395000Y-10325000I-20000J0D01*
G01*
X18407500Y-9287500D02*
G75*
G03X18407500Y-9287500I-20000J0D01*
G01*
X18432500Y-3162500D02*
G75*
G03X18432500Y-3162500I-20000J0D01*
G01*
X18445000Y-11625000D02*
G75*
G03X18445000Y-11625000I-20000J0D01*
G01*
X18470000Y-5225000D02*
G75*
G03X18470000Y-5225000I-20000J0D01*
G01*
X18482500Y-4187500D02*
G75*
G03X18482500Y-4187500I-20000J0D01*
G01*
X18545000Y-6500000D02*
G75*
G03X18545000Y-6500000I-20000J0D01*
G01*
X18620000Y-6425000D02*
G75*
G03X18620000Y-6425000I-20000J0D01*
G01*
X18620000Y-10400000D02*
G75*
G03X18620000Y-10400000I-20000J0D01*
G01*
X18620000Y-10800000D02*
G75*
G03X18620000Y-10800000I-20000J0D01*
G01*
X18620000Y-10975000D02*
G75*
G03X18620000Y-10975000I-20000J0D01*
G01*
X18620000Y-11550000D02*
G75*
G03X18620000Y-11550000I-20000J0D01*
G01*
X18632500Y-9437500D02*
G75*
G03X18632500Y-9437500I-20000J0D01*
G01*
X18695000Y-5300000D02*
G75*
G03X18695000Y-5300000I-20000J0D01*
G01*
X18695000Y-5700000D02*
G75*
G03X18695000Y-5700000I-20000J0D01*
G01*
X18695000Y-5875000D02*
G75*
G03X18695000Y-5875000I-20000J0D01*
G01*
X18695000Y-9975000D02*
G75*
G03X18695000Y-9975000I-20000J0D01*
G01*
X18707500Y-4337500D02*
G75*
G03X18707500Y-4337500I-20000J0D01*
G01*
X18720000Y-11475000D02*
G75*
G03X18720000Y-11475000I-20000J0D01*
G01*
X18757500Y-8262500D02*
G75*
G03X18757500Y-8262500I-20000J0D01*
G01*
X18770000Y-4875000D02*
G75*
G03X18770000Y-4875000I-20000J0D01*
G01*
X18795000Y-6350000D02*
G75*
G03X18795000Y-6350000I-20000J0D01*
G01*
X18820000Y-11400000D02*
G75*
G03X18820000Y-11400000I-20000J0D01*
G01*
X18832500Y-3162500D02*
G75*
G03X18832500Y-3162500I-20000J0D01*
G01*
X18932500Y-8262500D02*
G75*
G03X18932500Y-8262500I-20000J0D01*
G01*
X18932500Y-9287500D02*
G75*
G03X18932500Y-9287500I-20000J0D01*
G01*
X18945000Y-6275000D02*
G75*
G03X18945000Y-6275000I-20000J0D01*
G01*
X18982500Y-9062500D02*
G75*
G03X18982500Y-9062500I-20000J0D01*
G01*
X19007500Y-3162500D02*
G75*
G03X19007500Y-3162500I-20000J0D01*
G01*
X19007500Y-4187500D02*
G75*
G03X19007500Y-4187500I-20000J0D01*
G01*
X19057500Y-3962500D02*
G75*
G03X19057500Y-3962500I-20000J0D01*
G01*
X19082500Y-9087500D02*
G75*
G03X19082500Y-9087500I-20000J0D01*
G01*
X19157500Y-3987500D02*
G75*
G03X19157500Y-3987500I-20000J0D01*
G01*
X19170000Y-9050000D02*
G75*
G03X19170000Y-9050000I-20000J0D01*
G01*
X19245000Y-3950000D02*
G75*
G03X19245000Y-3950000I-20000J0D01*
G01*
X19245000Y-9000000D02*
G75*
G03X19245000Y-9000000I-20000J0D01*
G01*
X19295000Y-8100000D02*
G75*
G03X19295000Y-8100000I-20000J0D01*
G01*
X19320000Y-3900000D02*
G75*
G03X19320000Y-3900000I-20000J0D01*
G01*
X19320000Y-8275000D02*
G75*
G03X19320000Y-8275000I-20000J0D01*
G01*
X19320000Y-8825000D02*
G75*
G03X19320000Y-8825000I-20000J0D01*
G01*
X19345000Y-8400000D02*
G75*
G03X19345000Y-8400000I-20000J0D01*
G01*
X19345000Y-8675000D02*
G75*
G03X19345000Y-8675000I-20000J0D01*
G01*
X19370000Y-3000000D02*
G75*
G03X19370000Y-3000000I-20000J0D01*
G01*
X19370000Y-8525000D02*
G75*
G03X19370000Y-8525000I-20000J0D01*
G01*
X19395000Y-3175000D02*
G75*
G03X19395000Y-3175000I-20000J0D01*
G01*
X19395000Y-3675000D02*
G75*
G03X19395000Y-3675000I-20000J0D01*
G01*
X19420000Y-3300000D02*
G75*
G03X19420000Y-3300000I-20000J0D01*
G01*
X19420000Y-3575000D02*
G75*
G03X19420000Y-3575000I-20000J0D01*
G01*
X19445000Y-3425000D02*
G75*
G03X19445000Y-3425000I-20000J0D01*
G01*
X13704998Y-8554960D02*
X13704998Y-8655036D01*
X13654960Y-8604998D02*
X13755036Y-8604998D01*
X13704998Y-9094964D02*
X13704998Y-9195040D01*
X13654960Y-9145002D02*
X13755036Y-9145002D01*
X13975000Y-8824962D02*
X13975000Y-8925038D01*
X13924962Y-8875000D02*
X14025038Y-8875000D01*
X14245002Y-8554960D02*
X14245002Y-8655036D01*
X14194964Y-8604998D02*
X14295040Y-8604998D01*
X14245002Y-9094964D02*
X14245002Y-9195040D01*
X14194964Y-9145002D02*
X14295040Y-9145002D01*
X7985921Y-2910921D02*
X7985921Y-2839079D01*
X7914079Y-2839079D01*
X7914079Y-2910921D01*
X7985921Y-2910921D01*
X7985921Y-3164921D02*
X7985921Y-3093079D01*
X7914079Y-3093079D01*
X7914079Y-3164921D01*
X7985921Y-3164921D01*
X7985921Y-3418921D02*
X7985921Y-3347079D01*
X7914079Y-3347079D01*
X7914079Y-3418921D01*
X7985921Y-3418921D01*
X7985921Y-3672921D02*
X7985921Y-3601079D01*
X7914079Y-3601079D01*
X7914079Y-3672921D01*
X7985921Y-3672921D01*
X7985921Y-3926921D02*
X7985921Y-3855079D01*
X7914079Y-3855079D01*
X7914079Y-3926921D01*
X7985921Y-3926921D01*
X7985921Y-4180921D02*
X7985921Y-4109079D01*
X7914079Y-4109079D01*
X7914079Y-4180921D01*
X7985921Y-4180921D01*
X7985921Y-4434921D02*
X7985921Y-4363079D01*
X7914079Y-4363079D01*
X7914079Y-4434921D01*
X7985921Y-4434921D01*
X7985921Y-4688921D02*
X7985921Y-4617079D01*
X7914079Y-4617079D01*
X7914079Y-4688921D01*
X7985921Y-4688921D01*
X7985921Y-4942921D02*
X7985921Y-4871079D01*
X7914079Y-4871079D01*
X7914079Y-4942921D01*
X7985921Y-4942921D01*
X7985921Y-5196921D02*
X7985921Y-5125079D01*
X7914079Y-5125079D01*
X7914079Y-5196921D01*
X7985921Y-5196921D01*
X7985921Y-5450921D02*
X7985921Y-5379079D01*
X7914079Y-5379079D01*
X7914079Y-5450921D01*
X7985921Y-5450921D01*
X7985921Y-5704921D02*
X7985921Y-5633079D01*
X7914079Y-5633079D01*
X7914079Y-5704921D01*
X7985921Y-5704921D01*
X7985921Y-5958921D02*
X7985921Y-5887079D01*
X7914079Y-5887079D01*
X7914079Y-5958921D01*
X7985921Y-5958921D01*
X7985921Y-6212921D02*
X7985921Y-6141079D01*
X7914079Y-6141079D01*
X7914079Y-6212921D01*
X7985921Y-6212921D01*
X7985921Y-6466921D02*
X7985921Y-6395079D01*
X7914079Y-6395079D01*
X7914079Y-6466921D01*
X7985921Y-6466921D01*
X7985921Y-6720921D02*
X7985921Y-6649079D01*
X7914079Y-6649079D01*
X7914079Y-6720921D01*
X7985921Y-6720921D01*
X7985921Y-6974921D02*
X7985921Y-6903079D01*
X7914079Y-6903079D01*
X7914079Y-6974921D01*
X7985921Y-6974921D01*
X7985921Y-7228921D02*
X7985921Y-7157079D01*
X7914079Y-7157079D01*
X7914079Y-7228921D01*
X7985921Y-7228921D01*
X7985921Y-7482921D02*
X7985921Y-7411079D01*
X7914079Y-7411079D01*
X7914079Y-7482921D01*
X7985921Y-7482921D01*
X7985921Y-7736921D02*
X7985921Y-7665079D01*
X7914079Y-7665079D01*
X7914079Y-7736921D01*
X7985921Y-7736921D01*
X7985921Y-7990921D02*
X7985921Y-7919079D01*
X7914079Y-7919079D01*
X7914079Y-7990921D01*
X7985921Y-7990921D01*
X7985921Y-8244921D02*
X7985921Y-8173079D01*
X7914079Y-8173079D01*
X7914079Y-8244921D01*
X7985921Y-8244921D01*
X7985921Y-8498921D02*
X7985921Y-8427079D01*
X7914079Y-8427079D01*
X7914079Y-8498921D01*
X7985921Y-8498921D01*
X7985921Y-8752921D02*
X7985921Y-8681079D01*
X7914079Y-8681079D01*
X7914079Y-8752921D01*
X7985921Y-8752921D01*
X7985921Y-9006921D02*
X7985921Y-8935079D01*
X7914079Y-8935079D01*
X7914079Y-9006921D01*
X7985921Y-9006921D01*
X7985921Y-9260921D02*
X7985921Y-9189079D01*
X7914079Y-9189079D01*
X7914079Y-9260921D01*
X7985921Y-9260921D01*
X7985921Y-9514921D02*
X7985921Y-9443079D01*
X7914079Y-9443079D01*
X7914079Y-9514921D01*
X7985921Y-9514921D01*
X7985921Y-9768921D02*
X7985921Y-9697079D01*
X7914079Y-9697079D01*
X7914079Y-9768921D01*
X7985921Y-9768921D01*
X7985921Y-10022921D02*
X7985921Y-9951079D01*
X7914079Y-9951079D01*
X7914079Y-10022921D01*
X7985921Y-10022921D01*
X7985921Y-10276921D02*
X7985921Y-10205079D01*
X7914079Y-10205079D01*
X7914079Y-10276921D01*
X7985921Y-10276921D01*
X7985921Y-10530921D02*
X7985921Y-10459079D01*
X7914079Y-10459079D01*
X7914079Y-10530921D01*
X7985921Y-10530921D01*
X7985921Y-10784921D02*
X7985921Y-10713079D01*
X7914079Y-10713079D01*
X7914079Y-10784921D01*
X7985921Y-10784921D01*
X7985921Y-11535921D02*
X7985921Y-11464079D01*
X7914079Y-11464079D01*
X7914079Y-11535921D01*
X7985921Y-11535921D01*
X13805921Y-1885921D02*
X13805921Y-1814079D01*
X13734079Y-1814079D01*
X13734079Y-1885921D01*
X13805921Y-1885921D01*
X14059921Y-1885921D02*
X14059921Y-1814079D01*
X13988079Y-1814079D01*
X13988079Y-1885921D01*
X14059921Y-1885921D01*
X14313921Y-1885921D02*
X14313921Y-1814079D01*
X14242079Y-1814079D01*
X14242079Y-1885921D01*
X14313921Y-1885921D01*
X14567921Y-1885921D02*
X14567921Y-1814079D01*
X14496079Y-1814079D01*
X14496079Y-1885921D01*
X14567921Y-1885921D01*
X20385921Y-3035921D02*
X20385921Y-2964079D01*
X20314079Y-2964079D01*
X20314079Y-3035921D01*
X20385921Y-3035921D01*
X20385921Y-3289921D02*
X20385921Y-3218079D01*
X20314079Y-3218079D01*
X20314079Y-3289921D01*
X20385921Y-3289921D01*
X20385921Y-3543921D02*
X20385921Y-3472079D01*
X20314079Y-3472079D01*
X20314079Y-3543921D01*
X20385921Y-3543921D01*
X20385921Y-3797921D02*
X20385921Y-3726079D01*
X20314079Y-3726079D01*
X20314079Y-3797921D01*
X20385921Y-3797921D01*
X20385921Y-4051921D02*
X20385921Y-3980079D01*
X20314079Y-3980079D01*
X20314079Y-4051921D01*
X20385921Y-4051921D01*
X20385921Y-4305921D02*
X20385921Y-4234079D01*
X20314079Y-4234079D01*
X20314079Y-4305921D01*
X20385921Y-4305921D01*
X20385921Y-4559921D02*
X20385921Y-4488079D01*
X20314079Y-4488079D01*
X20314079Y-4559921D01*
X20385921Y-4559921D01*
X20385921Y-4813921D02*
X20385921Y-4742079D01*
X20314079Y-4742079D01*
X20314079Y-4813921D01*
X20385921Y-4813921D01*
X20385921Y-5067921D02*
X20385921Y-4996079D01*
X20314079Y-4996079D01*
X20314079Y-5067921D01*
X20385921Y-5067921D01*
X20385921Y-5321921D02*
X20385921Y-5250079D01*
X20314079Y-5250079D01*
X20314079Y-5321921D01*
X20385921Y-5321921D01*
X20385921Y-5575921D02*
X20385921Y-5504079D01*
X20314079Y-5504079D01*
X20314079Y-5575921D01*
X20385921Y-5575921D01*
X20385921Y-5829921D02*
X20385921Y-5758079D01*
X20314079Y-5758079D01*
X20314079Y-5829921D01*
X20385921Y-5829921D01*
X20385921Y-6083921D02*
X20385921Y-6012079D01*
X20314079Y-6012079D01*
X20314079Y-6083921D01*
X20385921Y-6083921D01*
X20385921Y-6337921D02*
X20385921Y-6266079D01*
X20314079Y-6266079D01*
X20314079Y-6337921D01*
X20385921Y-6337921D01*
X20385921Y-6591921D02*
X20385921Y-6520079D01*
X20314079Y-6520079D01*
X20314079Y-6591921D01*
X20385921Y-6591921D01*
X20385921Y-6845921D02*
X20385921Y-6774079D01*
X20314079Y-6774079D01*
X20314079Y-6845921D01*
X20385921Y-6845921D01*
X20385921Y-7099921D02*
X20385921Y-7028079D01*
X20314079Y-7028079D01*
X20314079Y-7099921D01*
X20385921Y-7099921D01*
X20385921Y-7353921D02*
X20385921Y-7282079D01*
X20314079Y-7282079D01*
X20314079Y-7353921D01*
X20385921Y-7353921D01*
X20385921Y-7607921D02*
X20385921Y-7536079D01*
X20314079Y-7536079D01*
X20314079Y-7607921D01*
X20385921Y-7607921D01*
X20385921Y-7861921D02*
X20385921Y-7790079D01*
X20314079Y-7790079D01*
X20314079Y-7861921D01*
X20385921Y-7861921D01*
X20385921Y-8115921D02*
X20385921Y-8044079D01*
X20314079Y-8044079D01*
X20314079Y-8115921D01*
X20385921Y-8115921D01*
X20385921Y-8369921D02*
X20385921Y-8298079D01*
X20314079Y-8298079D01*
X20314079Y-8369921D01*
X20385921Y-8369921D01*
X20385921Y-8623921D02*
X20385921Y-8552079D01*
X20314079Y-8552079D01*
X20314079Y-8623921D01*
X20385921Y-8623921D01*
X20385921Y-8877921D02*
X20385921Y-8806079D01*
X20314079Y-8806079D01*
X20314079Y-8877921D01*
X20385921Y-8877921D01*
X20385921Y-9131921D02*
X20385921Y-9060079D01*
X20314079Y-9060079D01*
X20314079Y-9131921D01*
X20385921Y-9131921D01*
X20385921Y-9385921D02*
X20385921Y-9314079D01*
X20314079Y-9314079D01*
X20314079Y-9385921D01*
X20385921Y-9385921D01*
X20385921Y-9639921D02*
X20385921Y-9568079D01*
X20314079Y-9568079D01*
X20314079Y-9639921D01*
X20385921Y-9639921D01*
X20385921Y-9893921D02*
X20385921Y-9822079D01*
X20314079Y-9822079D01*
X20314079Y-9893921D01*
X20385921Y-9893921D01*
X20385921Y-10147921D02*
X20385921Y-10076079D01*
X20314079Y-10076079D01*
X20314079Y-10147921D01*
X20385921Y-10147921D01*
X20385921Y-10401921D02*
X20385921Y-10330079D01*
X20314079Y-10330079D01*
X20314079Y-10401921D01*
X20385921Y-10401921D01*
X20385921Y-10655921D02*
X20385921Y-10584079D01*
X20314079Y-10584079D01*
X20314079Y-10655921D01*
X20385921Y-10655921D01*
X20385921Y-10909921D02*
X20385921Y-10838079D01*
X20314079Y-10838079D01*
X20314079Y-10909921D01*
X20385921Y-10909921D01*
X20385921Y-11535921D02*
X20385921Y-11464079D01*
X20314079Y-11464079D01*
X20314079Y-11535921D01*
X20385921Y-11535921D01*
D13*
X7491428Y-12370714D02*
X7491428Y-12070714D01*
X7562857Y-12070714D01*
X7605714Y-12085000D01*
X7634286Y-12113571D01*
X7648571Y-12142143D01*
X7662857Y-12199286D01*
X7662857Y-12242143D01*
X7648571Y-12299286D01*
X7634286Y-12327857D01*
X7605714Y-12356429D01*
X7562857Y-12370714D01*
X7491428Y-12370714D01*
X7791428Y-12370714D02*
X7791428Y-12170714D01*
X7791428Y-12227857D02*
X7805714Y-12199286D01*
X7820000Y-12185000D01*
X7848571Y-12170714D01*
X7877143Y-12170714D01*
X7977143Y-12370714D02*
X7977143Y-12170714D01*
X7977143Y-12070714D02*
X7962857Y-12085000D01*
X7977143Y-12099286D01*
X7991428Y-12085000D01*
X7977143Y-12070714D01*
X7977143Y-12099286D01*
X8162857Y-12370714D02*
X8134286Y-12356429D01*
X8120000Y-12327857D01*
X8120000Y-12070714D01*
X8320000Y-12370714D02*
X8291428Y-12356429D01*
X8277143Y-12327857D01*
X8277143Y-12070714D01*
X8662857Y-12370714D02*
X8662857Y-12070714D01*
X8762857Y-12285000D01*
X8862857Y-12070714D01*
X8862857Y-12370714D01*
X9134286Y-12370714D02*
X9134286Y-12213571D01*
X9120000Y-12185000D01*
X9091429Y-12170714D01*
X9034286Y-12170714D01*
X9005714Y-12185000D01*
X9134286Y-12356429D02*
X9105714Y-12370714D01*
X9034286Y-12370714D01*
X9005714Y-12356429D01*
X8991429Y-12327857D01*
X8991429Y-12299286D01*
X9005714Y-12270714D01*
X9034286Y-12256429D01*
X9105714Y-12256429D01*
X9134286Y-12242143D01*
X9277143Y-12170714D02*
X9277143Y-12470714D01*
X9277143Y-12185000D02*
X9305714Y-12170714D01*
X9362857Y-12170714D01*
X9391429Y-12185000D01*
X9405714Y-12199286D01*
X9420000Y-12227857D01*
X9420000Y-12313571D01*
X9405714Y-12342143D01*
X9391429Y-12356429D01*
X9362857Y-12370714D01*
X9305714Y-12370714D01*
X9277143Y-12356429D01*
X9548571Y-12342143D02*
X9562857Y-12356429D01*
X9548571Y-12370714D01*
X9534286Y-12356429D01*
X9548571Y-12342143D01*
X9548571Y-12370714D01*
X9548571Y-12185000D02*
X9562857Y-12199286D01*
X9548571Y-12213571D01*
X9534286Y-12199286D01*
X9548571Y-12185000D01*
X9548571Y-12213571D01*
X7190000Y-12850000D02*
X7220000Y-12880000D01*
X7220000Y-12850000D02*
X7190000Y-12880000D01*
X7548571Y-12700714D02*
X7577143Y-12700714D01*
X7605714Y-12715000D01*
X7620000Y-12729286D01*
X7634286Y-12757857D01*
X7648571Y-12815000D01*
X7648571Y-12886429D01*
X7634286Y-12943571D01*
X7620000Y-12972143D01*
X7605714Y-12986429D01*
X7577143Y-13000714D01*
X7548571Y-13000714D01*
X7520000Y-12986429D01*
X7505714Y-12972143D01*
X7491428Y-12943571D01*
X7477143Y-12886429D01*
X7477143Y-12815000D01*
X7491428Y-12757857D01*
X7505714Y-12729286D01*
X7520000Y-12715000D01*
X7548571Y-12700714D01*
X7777143Y-12972143D02*
X7791428Y-12986429D01*
X7777143Y-13000714D01*
X7762857Y-12986429D01*
X7777143Y-12972143D01*
X7777143Y-13000714D01*
X7891428Y-12700714D02*
X8077143Y-12700714D01*
X7977143Y-12815000D01*
X8020000Y-12815000D01*
X8048571Y-12829286D01*
X8062857Y-12843571D01*
X8077143Y-12872143D01*
X8077143Y-12943571D01*
X8062857Y-12972143D01*
X8048571Y-12986429D01*
X8020000Y-13000714D01*
X7934286Y-13000714D01*
X7905714Y-12986429D01*
X7891428Y-12972143D01*
X8262857Y-12700714D02*
X8291428Y-12700714D01*
X8320000Y-12715000D01*
X8334286Y-12729286D01*
X8348571Y-12757857D01*
X8362857Y-12815000D01*
X8362857Y-12886429D01*
X8348571Y-12943571D01*
X8334286Y-12972143D01*
X8320000Y-12986429D01*
X8291428Y-13000714D01*
X8262857Y-13000714D01*
X8234286Y-12986429D01*
X8220000Y-12972143D01*
X8205714Y-12943571D01*
X8191428Y-12886429D01*
X8191428Y-12815000D01*
X8205714Y-12757857D01*
X8220000Y-12729286D01*
X8234286Y-12715000D01*
X8262857Y-12700714D01*
X8491429Y-13000714D02*
X8491429Y-12800714D01*
X8491429Y-12829286D02*
X8505714Y-12815000D01*
X8534286Y-12800714D01*
X8577143Y-12800714D01*
X8605714Y-12815000D01*
X8620000Y-12843571D01*
X8620000Y-13000714D01*
X8620000Y-12843571D02*
X8634286Y-12815000D01*
X8662857Y-12800714D01*
X8705714Y-12800714D01*
X8734286Y-12815000D01*
X8748571Y-12843571D01*
X8748571Y-13000714D01*
X8891429Y-13000714D02*
X8891429Y-12800714D01*
X8891429Y-12829286D02*
X8905714Y-12815000D01*
X8934286Y-12800714D01*
X8977143Y-12800714D01*
X9005714Y-12815000D01*
X9020000Y-12843571D01*
X9020000Y-13000714D01*
X9020000Y-12843571D02*
X9034286Y-12815000D01*
X9062857Y-12800714D01*
X9105714Y-12800714D01*
X9134286Y-12815000D01*
X9148571Y-12843571D01*
X9148571Y-13000714D01*
X9734286Y-12686429D02*
X9477143Y-13072143D01*
X10120000Y-12700714D02*
X10148571Y-12700714D01*
X10177143Y-12715000D01*
X10191428Y-12729286D01*
X10205714Y-12757857D01*
X10220000Y-12815000D01*
X10220000Y-12886429D01*
X10205714Y-12943571D01*
X10191428Y-12972143D01*
X10177143Y-12986429D01*
X10148571Y-13000714D01*
X10120000Y-13000714D01*
X10091428Y-12986429D01*
X10077143Y-12972143D01*
X10062857Y-12943571D01*
X10048571Y-12886429D01*
X10048571Y-12815000D01*
X10062857Y-12757857D01*
X10077143Y-12729286D01*
X10091428Y-12715000D01*
X10120000Y-12700714D01*
X10348571Y-12972143D02*
X10362857Y-12986429D01*
X10348571Y-13000714D01*
X10334286Y-12986429D01*
X10348571Y-12972143D01*
X10348571Y-13000714D01*
X10548571Y-12700714D02*
X10577143Y-12700714D01*
X10605714Y-12715000D01*
X10620000Y-12729286D01*
X10634286Y-12757857D01*
X10648571Y-12815000D01*
X10648571Y-12886429D01*
X10634286Y-12943571D01*
X10620000Y-12972143D01*
X10605714Y-12986429D01*
X10577143Y-13000714D01*
X10548571Y-13000714D01*
X10520000Y-12986429D01*
X10505714Y-12972143D01*
X10491428Y-12943571D01*
X10477143Y-12886429D01*
X10477143Y-12815000D01*
X10491428Y-12757857D01*
X10505714Y-12729286D01*
X10520000Y-12715000D01*
X10548571Y-12700714D01*
X10934286Y-13000714D02*
X10762857Y-13000714D01*
X10848571Y-13000714D02*
X10848571Y-12700714D01*
X10820000Y-12743571D01*
X10791428Y-12772143D01*
X10762857Y-12786429D01*
X11048571Y-12729286D02*
X11062857Y-12715000D01*
X11091428Y-12700714D01*
X11162857Y-12700714D01*
X11191428Y-12715000D01*
X11205714Y-12729286D01*
X11220000Y-12757857D01*
X11220000Y-12786429D01*
X11205714Y-12829286D01*
X11034286Y-13000714D01*
X11220000Y-13000714D01*
X11334286Y-12700714D02*
X11334286Y-12757857D01*
X11448571Y-12700714D02*
X11448571Y-12757857D01*
X11891428Y-13115000D02*
X11877143Y-13100714D01*
X11848571Y-13057857D01*
X11834285Y-13029286D01*
X11820000Y-12986429D01*
X11805714Y-12915000D01*
X11805714Y-12857857D01*
X11820000Y-12786429D01*
X11834285Y-12743571D01*
X11848571Y-12715000D01*
X11877143Y-12672143D01*
X11891428Y-12657857D01*
X12134285Y-12800714D02*
X12134285Y-13000714D01*
X12062857Y-12686429D02*
X11991428Y-12900714D01*
X12177143Y-12900714D01*
X12420000Y-12800714D02*
X12420000Y-13000714D01*
X12348571Y-12686429D02*
X12277143Y-12900714D01*
X12462857Y-12900714D01*
X12734285Y-13000714D02*
X12562857Y-13000714D01*
X12648571Y-13000714D02*
X12648571Y-12700714D01*
X12620000Y-12743571D01*
X12591428Y-12772143D01*
X12562857Y-12786429D01*
X13091428Y-13000714D02*
X13091428Y-12700714D01*
X13220000Y-13000714D02*
X13220000Y-12843571D01*
X13205714Y-12815000D01*
X13177143Y-12800714D01*
X13134285Y-12800714D01*
X13105714Y-12815000D01*
X13091428Y-12829286D01*
X13405714Y-13000714D02*
X13377143Y-12986429D01*
X13362857Y-12972143D01*
X13348571Y-12943571D01*
X13348571Y-12857857D01*
X13362857Y-12829286D01*
X13377143Y-12815000D01*
X13405714Y-12800714D01*
X13448571Y-12800714D01*
X13477143Y-12815000D01*
X13491428Y-12829286D01*
X13505714Y-12857857D01*
X13505714Y-12943571D01*
X13491428Y-12972143D01*
X13477143Y-12986429D01*
X13448571Y-13000714D01*
X13405714Y-13000714D01*
X13677143Y-13000714D02*
X13648571Y-12986429D01*
X13634286Y-12957857D01*
X13634286Y-12700714D01*
X13905714Y-12986429D02*
X13877143Y-13000714D01*
X13820000Y-13000714D01*
X13791428Y-12986429D01*
X13777143Y-12957857D01*
X13777143Y-12843571D01*
X13791428Y-12815000D01*
X13820000Y-12800714D01*
X13877143Y-12800714D01*
X13905714Y-12815000D01*
X13920000Y-12843571D01*
X13920000Y-12872143D01*
X13777143Y-12900714D01*
X14034286Y-12986429D02*
X14062857Y-13000714D01*
X14120000Y-13000714D01*
X14148571Y-12986429D01*
X14162857Y-12957857D01*
X14162857Y-12943571D01*
X14148571Y-12915000D01*
X14120000Y-12900714D01*
X14077143Y-12900714D01*
X14048571Y-12886429D01*
X14034286Y-12857857D01*
X14034286Y-12843571D01*
X14048571Y-12815000D01*
X14077143Y-12800714D01*
X14120000Y-12800714D01*
X14148571Y-12815000D01*
X14262857Y-13115000D02*
X14277143Y-13100714D01*
X14305714Y-13057857D01*
X14320000Y-13029286D01*
X14334286Y-12986429D01*
X14348571Y-12915000D01*
X14348571Y-12857857D01*
X14334286Y-12786429D01*
X14320000Y-12743571D01*
X14305714Y-12715000D01*
X14277143Y-12672143D01*
X14262857Y-12657857D01*
X7220000Y-13261000D02*
G75*
G03X7220000Y-13261000I-20000J0D01*
G01*
X7548571Y-13096714D02*
X7577143Y-13096714D01*
X7605714Y-13111000D01*
X7620000Y-13125286D01*
X7634286Y-13153857D01*
X7648571Y-13211000D01*
X7648571Y-13282429D01*
X7634286Y-13339571D01*
X7620000Y-13368143D01*
X7605714Y-13382429D01*
X7577143Y-13396714D01*
X7548571Y-13396714D01*
X7520000Y-13382429D01*
X7505714Y-13368143D01*
X7491428Y-13339571D01*
X7477143Y-13282429D01*
X7477143Y-13211000D01*
X7491428Y-13153857D01*
X7505714Y-13125286D01*
X7520000Y-13111000D01*
X7548571Y-13096714D01*
X7777143Y-13368143D02*
X7791428Y-13382429D01*
X7777143Y-13396714D01*
X7762857Y-13382429D01*
X7777143Y-13368143D01*
X7777143Y-13396714D01*
X8048571Y-13196714D02*
X8048571Y-13396714D01*
X7977143Y-13082429D02*
X7905714Y-13296714D01*
X8091428Y-13296714D01*
X8262857Y-13096714D02*
X8291428Y-13096714D01*
X8320000Y-13111000D01*
X8334286Y-13125286D01*
X8348571Y-13153857D01*
X8362857Y-13211000D01*
X8362857Y-13282429D01*
X8348571Y-13339571D01*
X8334286Y-13368143D01*
X8320000Y-13382429D01*
X8291428Y-13396714D01*
X8262857Y-13396714D01*
X8234286Y-13382429D01*
X8220000Y-13368143D01*
X8205714Y-13339571D01*
X8191428Y-13282429D01*
X8191428Y-13211000D01*
X8205714Y-13153857D01*
X8220000Y-13125286D01*
X8234286Y-13111000D01*
X8262857Y-13096714D01*
X8491429Y-13396714D02*
X8491429Y-13196714D01*
X8491429Y-13225286D02*
X8505714Y-13211000D01*
X8534286Y-13196714D01*
X8577143Y-13196714D01*
X8605714Y-13211000D01*
X8620000Y-13239571D01*
X8620000Y-13396714D01*
X8620000Y-13239571D02*
X8634286Y-13211000D01*
X8662857Y-13196714D01*
X8705714Y-13196714D01*
X8734286Y-13211000D01*
X8748571Y-13239571D01*
X8748571Y-13396714D01*
X8891429Y-13396714D02*
X8891429Y-13196714D01*
X8891429Y-13225286D02*
X8905714Y-13211000D01*
X8934286Y-13196714D01*
X8977143Y-13196714D01*
X9005714Y-13211000D01*
X9020000Y-13239571D01*
X9020000Y-13396714D01*
X9020000Y-13239571D02*
X9034286Y-13211000D01*
X9062857Y-13196714D01*
X9105714Y-13196714D01*
X9134286Y-13211000D01*
X9148571Y-13239571D01*
X9148571Y-13396714D01*
X9734286Y-13082429D02*
X9477143Y-13468143D01*
X10120000Y-13096714D02*
X10148571Y-13096714D01*
X10177143Y-13111000D01*
X10191428Y-13125286D01*
X10205714Y-13153857D01*
X10220000Y-13211000D01*
X10220000Y-13282429D01*
X10205714Y-13339571D01*
X10191428Y-13368143D01*
X10177143Y-13382429D01*
X10148571Y-13396714D01*
X10120000Y-13396714D01*
X10091428Y-13382429D01*
X10077143Y-13368143D01*
X10062857Y-13339571D01*
X10048571Y-13282429D01*
X10048571Y-13211000D01*
X10062857Y-13153857D01*
X10077143Y-13125286D01*
X10091428Y-13111000D01*
X10120000Y-13096714D01*
X10348571Y-13368143D02*
X10362857Y-13382429D01*
X10348571Y-13396714D01*
X10334286Y-13382429D01*
X10348571Y-13368143D01*
X10348571Y-13396714D01*
X10548571Y-13096714D02*
X10577143Y-13096714D01*
X10605714Y-13111000D01*
X10620000Y-13125286D01*
X10634286Y-13153857D01*
X10648571Y-13211000D01*
X10648571Y-13282429D01*
X10634286Y-13339571D01*
X10620000Y-13368143D01*
X10605714Y-13382429D01*
X10577143Y-13396714D01*
X10548571Y-13396714D01*
X10520000Y-13382429D01*
X10505714Y-13368143D01*
X10491428Y-13339571D01*
X10477143Y-13282429D01*
X10477143Y-13211000D01*
X10491428Y-13153857D01*
X10505714Y-13125286D01*
X10520000Y-13111000D01*
X10548571Y-13096714D01*
X10934286Y-13396714D02*
X10762857Y-13396714D01*
X10848571Y-13396714D02*
X10848571Y-13096714D01*
X10820000Y-13139571D01*
X10791428Y-13168143D01*
X10762857Y-13182429D01*
X11191428Y-13096714D02*
X11134286Y-13096714D01*
X11105714Y-13111000D01*
X11091428Y-13125286D01*
X11062857Y-13168143D01*
X11048571Y-13225286D01*
X11048571Y-13339571D01*
X11062857Y-13368143D01*
X11077143Y-13382429D01*
X11105714Y-13396714D01*
X11162857Y-13396714D01*
X11191428Y-13382429D01*
X11205714Y-13368143D01*
X11220000Y-13339571D01*
X11220000Y-13268143D01*
X11205714Y-13239571D01*
X11191428Y-13225286D01*
X11162857Y-13211000D01*
X11105714Y-13211000D01*
X11077143Y-13225286D01*
X11062857Y-13239571D01*
X11048571Y-13268143D01*
X11334286Y-13096714D02*
X11334286Y-13153857D01*
X11448571Y-13096714D02*
X11448571Y-13153857D01*
X11891428Y-13511000D02*
X11877143Y-13496714D01*
X11848571Y-13453857D01*
X11834285Y-13425286D01*
X11820000Y-13382429D01*
X11805714Y-13311000D01*
X11805714Y-13253857D01*
X11820000Y-13182429D01*
X11834285Y-13139571D01*
X11848571Y-13111000D01*
X11877143Y-13068143D01*
X11891428Y-13053857D01*
X11977143Y-13096714D02*
X12162857Y-13096714D01*
X12062857Y-13211000D01*
X12105714Y-13211000D01*
X12134285Y-13225286D01*
X12148571Y-13239571D01*
X12162857Y-13268143D01*
X12162857Y-13339571D01*
X12148571Y-13368143D01*
X12134285Y-13382429D01*
X12105714Y-13396714D01*
X12020000Y-13396714D01*
X11991428Y-13382429D01*
X11977143Y-13368143D01*
X12420000Y-13096714D02*
X12362857Y-13096714D01*
X12334285Y-13111000D01*
X12320000Y-13125286D01*
X12291428Y-13168143D01*
X12277143Y-13225286D01*
X12277143Y-13339571D01*
X12291428Y-13368143D01*
X12305714Y-13382429D01*
X12334285Y-13396714D01*
X12391428Y-13396714D01*
X12420000Y-13382429D01*
X12434285Y-13368143D01*
X12448571Y-13339571D01*
X12448571Y-13268143D01*
X12434285Y-13239571D01*
X12420000Y-13225286D01*
X12391428Y-13211000D01*
X12334285Y-13211000D01*
X12305714Y-13225286D01*
X12291428Y-13239571D01*
X12277143Y-13268143D01*
X12705714Y-13096714D02*
X12648571Y-13096714D01*
X12620000Y-13111000D01*
X12605714Y-13125286D01*
X12577143Y-13168143D01*
X12562857Y-13225286D01*
X12562857Y-13339571D01*
X12577143Y-13368143D01*
X12591428Y-13382429D01*
X12620000Y-13396714D01*
X12677143Y-13396714D01*
X12705714Y-13382429D01*
X12720000Y-13368143D01*
X12734285Y-13339571D01*
X12734285Y-13268143D01*
X12720000Y-13239571D01*
X12705714Y-13225286D01*
X12677143Y-13211000D01*
X12620000Y-13211000D01*
X12591428Y-13225286D01*
X12577143Y-13239571D01*
X12562857Y-13268143D01*
X13091428Y-13396714D02*
X13091428Y-13096714D01*
X13220000Y-13396714D02*
X13220000Y-13239571D01*
X13205714Y-13211000D01*
X13177143Y-13196714D01*
X13134285Y-13196714D01*
X13105714Y-13211000D01*
X13091428Y-13225286D01*
X13405714Y-13396714D02*
X13377143Y-13382429D01*
X13362857Y-13368143D01*
X13348571Y-13339571D01*
X13348571Y-13253857D01*
X13362857Y-13225286D01*
X13377143Y-13211000D01*
X13405714Y-13196714D01*
X13448571Y-13196714D01*
X13477143Y-13211000D01*
X13491428Y-13225286D01*
X13505714Y-13253857D01*
X13505714Y-13339571D01*
X13491428Y-13368143D01*
X13477143Y-13382429D01*
X13448571Y-13396714D01*
X13405714Y-13396714D01*
X13677143Y-13396714D02*
X13648571Y-13382429D01*
X13634286Y-13353857D01*
X13634286Y-13096714D01*
X13905714Y-13382429D02*
X13877143Y-13396714D01*
X13820000Y-13396714D01*
X13791428Y-13382429D01*
X13777143Y-13353857D01*
X13777143Y-13239571D01*
X13791428Y-13211000D01*
X13820000Y-13196714D01*
X13877143Y-13196714D01*
X13905714Y-13211000D01*
X13920000Y-13239571D01*
X13920000Y-13268143D01*
X13777143Y-13296714D01*
X14034286Y-13382429D02*
X14062857Y-13396714D01*
X14120000Y-13396714D01*
X14148571Y-13382429D01*
X14162857Y-13353857D01*
X14162857Y-13339571D01*
X14148571Y-13311000D01*
X14120000Y-13296714D01*
X14077143Y-13296714D01*
X14048571Y-13282429D01*
X14034286Y-13253857D01*
X14034286Y-13239571D01*
X14048571Y-13211000D01*
X14077143Y-13196714D01*
X14120000Y-13196714D01*
X14148571Y-13211000D01*
X14262857Y-13511000D02*
X14277143Y-13496714D01*
X14305714Y-13453857D01*
X14320000Y-13425286D01*
X14334286Y-13382429D01*
X14348571Y-13311000D01*
X14348571Y-13253857D01*
X14334286Y-13182429D01*
X14320000Y-13139571D01*
X14305714Y-13111000D01*
X14277143Y-13068143D01*
X14262857Y-13053857D01*
X7169962Y-13606962D02*
X7169962Y-13707038D01*
X7119924Y-13657000D02*
X7220000Y-13657000D01*
X7648571Y-13792714D02*
X7477143Y-13792714D01*
X7562857Y-13792714D02*
X7562857Y-13492714D01*
X7534286Y-13535571D01*
X7505714Y-13564143D01*
X7477143Y-13578429D01*
X7777143Y-13764143D02*
X7791428Y-13778429D01*
X7777143Y-13792714D01*
X7762857Y-13778429D01*
X7777143Y-13764143D01*
X7777143Y-13792714D01*
X7977143Y-13492714D02*
X8005714Y-13492714D01*
X8034286Y-13507000D01*
X8048571Y-13521286D01*
X8062857Y-13549857D01*
X8077143Y-13607000D01*
X8077143Y-13678429D01*
X8062857Y-13735571D01*
X8048571Y-13764143D01*
X8034286Y-13778429D01*
X8005714Y-13792714D01*
X7977143Y-13792714D01*
X7948571Y-13778429D01*
X7934286Y-13764143D01*
X7920000Y-13735571D01*
X7905714Y-13678429D01*
X7905714Y-13607000D01*
X7920000Y-13549857D01*
X7934286Y-13521286D01*
X7948571Y-13507000D01*
X7977143Y-13492714D01*
X8262857Y-13492714D02*
X8291428Y-13492714D01*
X8320000Y-13507000D01*
X8334286Y-13521286D01*
X8348571Y-13549857D01*
X8362857Y-13607000D01*
X8362857Y-13678429D01*
X8348571Y-13735571D01*
X8334286Y-13764143D01*
X8320000Y-13778429D01*
X8291428Y-13792714D01*
X8262857Y-13792714D01*
X8234286Y-13778429D01*
X8220000Y-13764143D01*
X8205714Y-13735571D01*
X8191428Y-13678429D01*
X8191428Y-13607000D01*
X8205714Y-13549857D01*
X8220000Y-13521286D01*
X8234286Y-13507000D01*
X8262857Y-13492714D01*
X8491429Y-13792714D02*
X8491429Y-13592714D01*
X8491429Y-13621286D02*
X8505714Y-13607000D01*
X8534286Y-13592714D01*
X8577143Y-13592714D01*
X8605714Y-13607000D01*
X8620000Y-13635571D01*
X8620000Y-13792714D01*
X8620000Y-13635571D02*
X8634286Y-13607000D01*
X8662857Y-13592714D01*
X8705714Y-13592714D01*
X8734286Y-13607000D01*
X8748571Y-13635571D01*
X8748571Y-13792714D01*
X8891429Y-13792714D02*
X8891429Y-13592714D01*
X8891429Y-13621286D02*
X8905714Y-13607000D01*
X8934286Y-13592714D01*
X8977143Y-13592714D01*
X9005714Y-13607000D01*
X9020000Y-13635571D01*
X9020000Y-13792714D01*
X9020000Y-13635571D02*
X9034286Y-13607000D01*
X9062857Y-13592714D01*
X9105714Y-13592714D01*
X9134286Y-13607000D01*
X9148571Y-13635571D01*
X9148571Y-13792714D01*
X9734286Y-13478429D02*
X9477143Y-13864143D01*
X10120000Y-13492714D02*
X10148571Y-13492714D01*
X10177143Y-13507000D01*
X10191428Y-13521286D01*
X10205714Y-13549857D01*
X10220000Y-13607000D01*
X10220000Y-13678429D01*
X10205714Y-13735571D01*
X10191428Y-13764143D01*
X10177143Y-13778429D01*
X10148571Y-13792714D01*
X10120000Y-13792714D01*
X10091428Y-13778429D01*
X10077143Y-13764143D01*
X10062857Y-13735571D01*
X10048571Y-13678429D01*
X10048571Y-13607000D01*
X10062857Y-13549857D01*
X10077143Y-13521286D01*
X10091428Y-13507000D01*
X10120000Y-13492714D01*
X10348571Y-13764143D02*
X10362857Y-13778429D01*
X10348571Y-13792714D01*
X10334286Y-13778429D01*
X10348571Y-13764143D01*
X10348571Y-13792714D01*
X10548571Y-13492714D02*
X10577143Y-13492714D01*
X10605714Y-13507000D01*
X10620000Y-13521286D01*
X10634286Y-13549857D01*
X10648571Y-13607000D01*
X10648571Y-13678429D01*
X10634286Y-13735571D01*
X10620000Y-13764143D01*
X10605714Y-13778429D01*
X10577143Y-13792714D01*
X10548571Y-13792714D01*
X10520000Y-13778429D01*
X10505714Y-13764143D01*
X10491428Y-13735571D01*
X10477143Y-13678429D01*
X10477143Y-13607000D01*
X10491428Y-13549857D01*
X10505714Y-13521286D01*
X10520000Y-13507000D01*
X10548571Y-13492714D01*
X10748571Y-13492714D02*
X10934286Y-13492714D01*
X10834286Y-13607000D01*
X10877143Y-13607000D01*
X10905714Y-13621286D01*
X10920000Y-13635571D01*
X10934286Y-13664143D01*
X10934286Y-13735571D01*
X10920000Y-13764143D01*
X10905714Y-13778429D01*
X10877143Y-13792714D01*
X10791428Y-13792714D01*
X10762857Y-13778429D01*
X10748571Y-13764143D01*
X11077143Y-13792714D02*
X11134286Y-13792714D01*
X11162857Y-13778429D01*
X11177143Y-13764143D01*
X11205714Y-13721286D01*
X11220000Y-13664143D01*
X11220000Y-13549857D01*
X11205714Y-13521286D01*
X11191428Y-13507000D01*
X11162857Y-13492714D01*
X11105714Y-13492714D01*
X11077143Y-13507000D01*
X11062857Y-13521286D01*
X11048571Y-13549857D01*
X11048571Y-13621286D01*
X11062857Y-13649857D01*
X11077143Y-13664143D01*
X11105714Y-13678429D01*
X11162857Y-13678429D01*
X11191428Y-13664143D01*
X11205714Y-13649857D01*
X11220000Y-13621286D01*
X11334286Y-13492714D02*
X11334286Y-13549857D01*
X11448571Y-13492714D02*
X11448571Y-13549857D01*
X11891428Y-13907000D02*
X11877143Y-13892714D01*
X11848571Y-13849857D01*
X11834285Y-13821286D01*
X11820000Y-13778429D01*
X11805714Y-13707000D01*
X11805714Y-13649857D01*
X11820000Y-13578429D01*
X11834285Y-13535571D01*
X11848571Y-13507000D01*
X11877143Y-13464143D01*
X11891428Y-13449857D01*
X12148571Y-13492714D02*
X12005714Y-13492714D01*
X11991428Y-13635571D01*
X12005714Y-13621286D01*
X12034285Y-13607000D01*
X12105714Y-13607000D01*
X12134285Y-13621286D01*
X12148571Y-13635571D01*
X12162857Y-13664143D01*
X12162857Y-13735571D01*
X12148571Y-13764143D01*
X12134285Y-13778429D01*
X12105714Y-13792714D01*
X12034285Y-13792714D01*
X12005714Y-13778429D01*
X11991428Y-13764143D01*
X12520000Y-13792714D02*
X12520000Y-13492714D01*
X12648571Y-13792714D02*
X12648571Y-13635571D01*
X12634285Y-13607000D01*
X12605714Y-13592714D01*
X12562857Y-13592714D01*
X12534285Y-13607000D01*
X12520000Y-13621286D01*
X12834285Y-13792714D02*
X12805714Y-13778429D01*
X12791428Y-13764143D01*
X12777143Y-13735571D01*
X12777143Y-13649857D01*
X12791428Y-13621286D01*
X12805714Y-13607000D01*
X12834285Y-13592714D01*
X12877143Y-13592714D01*
X12905714Y-13607000D01*
X12920000Y-13621286D01*
X12934285Y-13649857D01*
X12934285Y-13735571D01*
X12920000Y-13764143D01*
X12905714Y-13778429D01*
X12877143Y-13792714D01*
X12834285Y-13792714D01*
X13105714Y-13792714D02*
X13077143Y-13778429D01*
X13062857Y-13749857D01*
X13062857Y-13492714D01*
X13334286Y-13778429D02*
X13305714Y-13792714D01*
X13248571Y-13792714D01*
X13220000Y-13778429D01*
X13205714Y-13749857D01*
X13205714Y-13635571D01*
X13220000Y-13607000D01*
X13248571Y-13592714D01*
X13305714Y-13592714D01*
X13334286Y-13607000D01*
X13348571Y-13635571D01*
X13348571Y-13664143D01*
X13205714Y-13692714D01*
X13462857Y-13778429D02*
X13491428Y-13792714D01*
X13548571Y-13792714D01*
X13577143Y-13778429D01*
X13591428Y-13749857D01*
X13591428Y-13735571D01*
X13577143Y-13707000D01*
X13548571Y-13692714D01*
X13505714Y-13692714D01*
X13477143Y-13678429D01*
X13462857Y-13649857D01*
X13462857Y-13635571D01*
X13477143Y-13607000D01*
X13505714Y-13592714D01*
X13548571Y-13592714D01*
X13577143Y-13607000D01*
X13691428Y-13907000D02*
X13705714Y-13892714D01*
X13734286Y-13849857D01*
X13748571Y-13821286D01*
X13762857Y-13778429D01*
X13777143Y-13707000D01*
X13777143Y-13649857D01*
X13762857Y-13578429D01*
X13748571Y-13535571D01*
X13734286Y-13507000D01*
X13705714Y-13464143D01*
X13691428Y-13449857D01*
X7205121Y-14088921D02*
X7205121Y-14017079D01*
X7133278Y-14017079D01*
X7133278Y-14088921D01*
X7205121Y-14088921D01*
X7648571Y-14188714D02*
X7477143Y-14188714D01*
X7562857Y-14188714D02*
X7562857Y-13888714D01*
X7534286Y-13931571D01*
X7505714Y-13960143D01*
X7477143Y-13974429D01*
X7777143Y-14160143D02*
X7791428Y-14174429D01*
X7777143Y-14188714D01*
X7762857Y-14174429D01*
X7777143Y-14160143D01*
X7777143Y-14188714D01*
X7977143Y-13888714D02*
X8005714Y-13888714D01*
X8034286Y-13903000D01*
X8048571Y-13917286D01*
X8062857Y-13945857D01*
X8077143Y-14003000D01*
X8077143Y-14074429D01*
X8062857Y-14131571D01*
X8048571Y-14160143D01*
X8034286Y-14174429D01*
X8005714Y-14188714D01*
X7977143Y-14188714D01*
X7948571Y-14174429D01*
X7934286Y-14160143D01*
X7920000Y-14131571D01*
X7905714Y-14074429D01*
X7905714Y-14003000D01*
X7920000Y-13945857D01*
X7934286Y-13917286D01*
X7948571Y-13903000D01*
X7977143Y-13888714D01*
X8191428Y-13917286D02*
X8205714Y-13903000D01*
X8234286Y-13888714D01*
X8305714Y-13888714D01*
X8334286Y-13903000D01*
X8348571Y-13917286D01*
X8362857Y-13945857D01*
X8362857Y-13974429D01*
X8348571Y-14017286D01*
X8177143Y-14188714D01*
X8362857Y-14188714D01*
X8491429Y-14188714D02*
X8491429Y-13988714D01*
X8491429Y-14017286D02*
X8505714Y-14003000D01*
X8534286Y-13988714D01*
X8577143Y-13988714D01*
X8605714Y-14003000D01*
X8620000Y-14031571D01*
X8620000Y-14188714D01*
X8620000Y-14031571D02*
X8634286Y-14003000D01*
X8662857Y-13988714D01*
X8705714Y-13988714D01*
X8734286Y-14003000D01*
X8748571Y-14031571D01*
X8748571Y-14188714D01*
X8891429Y-14188714D02*
X8891429Y-13988714D01*
X8891429Y-14017286D02*
X8905714Y-14003000D01*
X8934286Y-13988714D01*
X8977143Y-13988714D01*
X9005714Y-14003000D01*
X9020000Y-14031571D01*
X9020000Y-14188714D01*
X9020000Y-14031571D02*
X9034286Y-14003000D01*
X9062857Y-13988714D01*
X9105714Y-13988714D01*
X9134286Y-14003000D01*
X9148571Y-14031571D01*
X9148571Y-14188714D01*
X9734286Y-13874429D02*
X9477143Y-14260143D01*
X10120000Y-13888714D02*
X10148571Y-13888714D01*
X10177143Y-13903000D01*
X10191428Y-13917286D01*
X10205714Y-13945857D01*
X10220000Y-14003000D01*
X10220000Y-14074429D01*
X10205714Y-14131571D01*
X10191428Y-14160143D01*
X10177143Y-14174429D01*
X10148571Y-14188714D01*
X10120000Y-14188714D01*
X10091428Y-14174429D01*
X10077143Y-14160143D01*
X10062857Y-14131571D01*
X10048571Y-14074429D01*
X10048571Y-14003000D01*
X10062857Y-13945857D01*
X10077143Y-13917286D01*
X10091428Y-13903000D01*
X10120000Y-13888714D01*
X10348571Y-14160143D02*
X10362857Y-14174429D01*
X10348571Y-14188714D01*
X10334286Y-14174429D01*
X10348571Y-14160143D01*
X10348571Y-14188714D01*
X10548571Y-13888714D02*
X10577143Y-13888714D01*
X10605714Y-13903000D01*
X10620000Y-13917286D01*
X10634286Y-13945857D01*
X10648571Y-14003000D01*
X10648571Y-14074429D01*
X10634286Y-14131571D01*
X10620000Y-14160143D01*
X10605714Y-14174429D01*
X10577143Y-14188714D01*
X10548571Y-14188714D01*
X10520000Y-14174429D01*
X10505714Y-14160143D01*
X10491428Y-14131571D01*
X10477143Y-14074429D01*
X10477143Y-14003000D01*
X10491428Y-13945857D01*
X10505714Y-13917286D01*
X10520000Y-13903000D01*
X10548571Y-13888714D01*
X10905714Y-13988714D02*
X10905714Y-14188714D01*
X10834286Y-13874429D02*
X10762857Y-14088714D01*
X10948571Y-14088714D01*
X11120000Y-13888714D02*
X11148571Y-13888714D01*
X11177143Y-13903000D01*
X11191428Y-13917286D01*
X11205714Y-13945857D01*
X11220000Y-14003000D01*
X11220000Y-14074429D01*
X11205714Y-14131571D01*
X11191428Y-14160143D01*
X11177143Y-14174429D01*
X11148571Y-14188714D01*
X11120000Y-14188714D01*
X11091428Y-14174429D01*
X11077143Y-14160143D01*
X11062857Y-14131571D01*
X11048571Y-14074429D01*
X11048571Y-14003000D01*
X11062857Y-13945857D01*
X11077143Y-13917286D01*
X11091428Y-13903000D01*
X11120000Y-13888714D01*
X11334286Y-13888714D02*
X11334286Y-13945857D01*
X11448571Y-13888714D02*
X11448571Y-13945857D01*
X11891428Y-14303000D02*
X11877143Y-14288714D01*
X11848571Y-14245857D01*
X11834285Y-14217286D01*
X11820000Y-14174429D01*
X11805714Y-14103000D01*
X11805714Y-14045857D01*
X11820000Y-13974429D01*
X11834285Y-13931571D01*
X11848571Y-13903000D01*
X11877143Y-13860143D01*
X11891428Y-13845857D01*
X11977143Y-13888714D02*
X12177143Y-13888714D01*
X12048571Y-14188714D01*
X12348571Y-13888714D02*
X12377143Y-13888714D01*
X12405714Y-13903000D01*
X12420000Y-13917286D01*
X12434285Y-13945857D01*
X12448571Y-14003000D01*
X12448571Y-14074429D01*
X12434285Y-14131571D01*
X12420000Y-14160143D01*
X12405714Y-14174429D01*
X12377143Y-14188714D01*
X12348571Y-14188714D01*
X12320000Y-14174429D01*
X12305714Y-14160143D01*
X12291428Y-14131571D01*
X12277143Y-14074429D01*
X12277143Y-14003000D01*
X12291428Y-13945857D01*
X12305714Y-13917286D01*
X12320000Y-13903000D01*
X12348571Y-13888714D01*
X12805714Y-14188714D02*
X12805714Y-13888714D01*
X12934285Y-14188714D02*
X12934285Y-14031571D01*
X12920000Y-14003000D01*
X12891428Y-13988714D01*
X12848571Y-13988714D01*
X12820000Y-14003000D01*
X12805714Y-14017286D01*
X13120000Y-14188714D02*
X13091428Y-14174429D01*
X13077143Y-14160143D01*
X13062857Y-14131571D01*
X13062857Y-14045857D01*
X13077143Y-14017286D01*
X13091428Y-14003000D01*
X13120000Y-13988714D01*
X13162857Y-13988714D01*
X13191428Y-14003000D01*
X13205714Y-14017286D01*
X13220000Y-14045857D01*
X13220000Y-14131571D01*
X13205714Y-14160143D01*
X13191428Y-14174429D01*
X13162857Y-14188714D01*
X13120000Y-14188714D01*
X13391428Y-14188714D02*
X13362857Y-14174429D01*
X13348571Y-14145857D01*
X13348571Y-13888714D01*
X13620000Y-14174429D02*
X13591428Y-14188714D01*
X13534286Y-14188714D01*
X13505714Y-14174429D01*
X13491428Y-14145857D01*
X13491428Y-14031571D01*
X13505714Y-14003000D01*
X13534286Y-13988714D01*
X13591428Y-13988714D01*
X13620000Y-14003000D01*
X13634286Y-14031571D01*
X13634286Y-14060143D01*
X13491428Y-14088714D01*
X13748571Y-14174429D02*
X13777143Y-14188714D01*
X13834286Y-14188714D01*
X13862857Y-14174429D01*
X13877143Y-14145857D01*
X13877143Y-14131571D01*
X13862857Y-14103000D01*
X13834286Y-14088714D01*
X13791428Y-14088714D01*
X13762857Y-14074429D01*
X13748571Y-14045857D01*
X13748571Y-14031571D01*
X13762857Y-14003000D01*
X13791428Y-13988714D01*
X13834286Y-13988714D01*
X13862857Y-14003000D01*
X13977143Y-14303000D02*
X13991428Y-14288714D01*
X14020000Y-14245857D01*
X14034286Y-14217286D01*
X14048571Y-14174429D01*
X14062857Y-14103000D01*
X14062857Y-14045857D01*
X14048571Y-13974429D01*
X14034286Y-13931571D01*
X14020000Y-13903000D01*
X13991428Y-13860143D01*
X13977143Y-13845857D01*
M02*
