M48
;DRILL file {KiCad 4.0.2+dfsg1-stable} date Wed 06 Jul 2016 03:59:22 PM CEST
;FORMAT={-:-/ absolute / metric / decimal}
FMAT,2
METRIC,TZ
T1C0.300
T2C0.400
T3C1.001
T4C1.016
%
G90
G05
M71
T1
X74.9Y-22.65
X74.9Y-26.9
X74.9Y-30.15
X74.9Y-33.15
X74.9Y-36.4
X74.9Y-39.4
X74.9Y-43.4
X74.9Y-47.15
X74.9Y-51.4
X74.9Y-54.65
X74.9Y-57.65
X74.9Y-60.9
X74.9Y-63.9
X74.9Y-67.9
X74.9Y-71.9
X74.9Y-74.9
X74.9Y-78.9
X74.9Y-82.65
X74.9Y-86.9
X74.9Y-90.15
X74.9Y-93.15
X74.9Y-96.4
X74.9Y-99.4
X74.9Y-103.4
X93.25Y-95.
X94.Y-44.
X94.75Y-95.
X95.5Y-44.
X97.75Y-75.75
X98.5Y-24.75
X98.8Y-83.2
X99.25Y-75.75
X99.6Y-32.5
X99.7Y-84.2
X100.Y-24.75
X100.5Y-33.4
X100.5Y-85.3
X100.5Y-92.75
X101.Y-42.
X101.2Y-95.7
X101.3Y-91.7
X101.4Y-34.5
X101.5Y-86.
X101.7Y-44.6
X101.75Y-41.25
X102.3Y-31.4
X102.3Y-91.3
X102.4Y-87.3
X102.4Y-95.2
X102.6Y-35.3
X102.6Y-83.
X102.8Y-40.5
X102.8Y-44.
X103.25Y-32.25
X103.4Y-36.2
X103.4Y-90.8
X103.45Y-94.35
X103.6Y-88.2
X103.8Y-40.
X103.9Y-43.6
X104.025Y-117.225
X104.1Y-84.2
X104.2Y-37.1
X104.4Y-33.3
X104.4Y-90.5
X104.4Y-93.8
X104.7Y-85.6
X105.Y-42.8
X105.1Y-39.6
X105.3Y-34.3
X105.3Y-93.
X106.1Y-42.
X106.3Y-35.1
X107.6Y-35.4
X107.85Y-87.8
X107.85Y-89.05
X107.85Y-90.3
X107.85Y-91.55
X108.275Y-117.225
X108.85Y-36.8
X108.85Y-38.05
X108.85Y-39.3
X108.85Y-40.55
X109.6Y-87.8
X109.6Y-89.05
X109.6Y-90.3
X109.6Y-91.55
X110.6Y-36.8
X110.6Y-38.05
X110.6Y-39.3
X110.6Y-40.55
X110.8Y-85.7
X111.3Y-93.4
X111.525Y-117.225
X111.6Y-84.2
X111.7Y-34.8
X112.5Y-93.9
X112.6Y-83.
X112.8Y-34.
X112.9Y-42.5
X113.3Y-45.
X113.4Y-94.8
X113.7Y-43.4
X113.8Y-32.9
X113.8Y-87.4
X113.9Y-82.2
X114.2Y-35.6
X114.25Y-89.25
X114.3Y-91.6
X114.3Y-95.8
X114.5Y-44.3
X114.525Y-117.225
X114.7Y-40.7
X114.8Y-31.7
X114.8Y-86.5
X115.Y-81.5
X115.2Y-34.8
X115.3Y-45.1
X115.4Y-93.1
X115.5Y-89.25
X115.5Y-92.
X115.6Y-85.7
X115.75Y-38.25
X115.8Y-40.5
X116.Y-30.75
X116.Y-41.8
X116.Y-84.5
X116.25Y-80.75
X116.3Y-94.
X116.4Y-34.1
X116.75Y-89.25
X116.75Y-92.
X117.Y-29.75
X117.Y-38.25
X117.Y-42.9
X117.Y-94.75
X117.3Y-40.5
X117.75Y-32.5
X117.75Y-95.75
X117.775Y-117.225
X117.8Y-43.9
X118.Y-89.25
X118.Y-92.
X118.Y-103.5
X118.25Y-38.25
X118.7Y-40.5
X118.75Y-52.5
X118.8Y-44.8
X119.5Y-89.25
X119.5Y-92.
X119.5Y-103.5
X119.75Y-38.25
X120.1Y-40.5
X120.25Y-52.5
X120.75Y-92.
X120.775Y-117.225
X121.Y-89.25
X121.25Y-38.25
X121.5Y-40.75
X122.5Y-89.25
X122.75Y-38.25
X122.75Y-40.75
X122.75Y-79.75
X123.5Y-28.75
X124.25Y-79.75
X124.5Y-89.25
X124.5Y-92.
X124.775Y-117.225
X125.Y-28.75
X125.25Y-40.75
X125.5Y-38.25
X125.75Y-89.25
X125.75Y-92.
X127.Y-89.25
X127.Y-92.
X127.25Y-38.25
X127.25Y-41.
X127.75Y-42.25
X130.5Y-114.25
X133.Y-112.25
X134.Y-82.25
X134.75Y-81.5
X134.75Y-108.25
X134.75Y-110.5
X135.Y-85.1
X135.Y-95.25
X135.Y-98.5
X135.Y-101.75
X135.Y-105.
X135.5Y-70.25
X135.5Y-71.75
X135.5Y-73.25
X135.5Y-74.75
X135.5Y-76.5
X135.5Y-78.
X135.5Y-79.5
X135.5Y-80.75
X136.Y-44.75
X136.2Y-49.
X136.5Y-50.25
X136.5Y-51.75
X136.5Y-53.25
X136.5Y-55.
X136.5Y-56.5
X136.5Y-58.
X136.6Y-83.8
X136.75Y-46.
X138.175Y-64.525
X138.2Y-47.2
X138.2Y-70.25
X138.2Y-71.75
X138.2Y-73.25
X138.2Y-74.75
X138.2Y-76.5
X138.2Y-78.
X138.2Y-79.5
X138.2Y-81.
X138.2Y-82.5
X138.25Y-63.
X139.425Y-64.525
X139.5Y-63.
X140.Y-48.9
X140.Y-50.4
X140.Y-51.9
X140.Y-53.65
X140.Y-55.15
X140.Y-56.65
X140.Y-58.15
X140.6Y-70.15
X140.6Y-71.65
X140.6Y-73.15
X140.6Y-74.65
X140.6Y-76.4
X140.6Y-77.9
X140.6Y-79.4
X140.6Y-80.9
X140.675Y-64.525
X140.75Y-63.
X140.85Y-82.4
X141.7Y-47.4
X141.925Y-64.525
X142.Y-63.
X142.9Y-46.
X143.Y-83.2
X143.5Y-50.4
X143.5Y-51.9
X143.5Y-53.65
X143.5Y-55.15
X143.5Y-56.65
X143.5Y-58.15
X143.9Y-44.75
X143.9Y-70.15
X143.9Y-71.65
X143.9Y-73.15
X143.9Y-74.65
X143.9Y-76.4
X143.9Y-77.9
X143.9Y-79.4
X144.Y-49.
X144.5Y-84.75
X145.Y-80.75
X145.25Y-95.25
X145.25Y-98.5
X145.25Y-101.75
X145.25Y-105.
X145.25Y-108.5
X145.75Y-86.
X146.05Y-82.4
X146.25Y-87.
X147.Y-111.25
X148.5Y-113.
X150.25Y-115.25
X154.Y-39.5
X154.Y-42.5
X154.775Y-116.475
X155.1Y-90.7
X155.1Y-93.1
X155.2Y-42.4
X155.5Y-39.5
X156.25Y-102.75
X156.4Y-42.4
X156.7Y-39.5
X156.75Y-51.75
X157.5Y-102.75
X157.75Y-90.85
X157.75Y-93.25
X158.25Y-51.75
X158.5Y-42.25
X159.Y-90.85
X159.Y-93.25
X159.025Y-116.475
X159.25Y-39.5
X160.Y-42.25
X160.25Y-90.85
X160.25Y-93.25
X160.75Y-79.25
X161.Y-39.5
X161.5Y-42.25
X161.5Y-90.85
X161.5Y-93.25
X161.75Y-28.
X162.25Y-79.25
X162.275Y-116.475
X162.5Y-86.9
X162.75Y-39.5
X162.75Y-90.85
X162.75Y-93.25
X163.Y-36.4
X163.Y-42.25
X163.25Y-28.
X163.5Y-87.9
X164.Y-98.
X164.1Y-101.7
X164.2Y-88.9
X164.2Y-90.9
X164.25Y-93.25
X164.5Y-37.75
X164.5Y-39.5
X164.5Y-42.25
X164.5Y-85.6
X165.Y-47.
X165.Y-97.25
X165.1Y-90.
X165.2Y-50.4
X165.25Y-101.
X165.275Y-116.475
X165.5Y-34.75
X165.5Y-38.7
X165.6Y-86.3
X165.75Y-90.75
X165.75Y-93.25
X165.8Y-46.2
X166.Y-96.25
X166.15Y-49.65
X166.25Y-42.25
X166.5Y-39.5
X166.5Y-87.2
X166.5Y-100.5
X166.7Y-35.4
X166.8Y-45.3
X167.1Y-49.
X167.2Y-88.2
X167.25Y-99.5
X167.5Y-36.6
X167.6Y-44.3
X167.8Y-42.7
X168.1Y-48.
X168.2Y-37.7
X168.25Y-98.25
X168.5Y-89.1
X168.525Y-116.475
X169.1Y-46.9
X169.25Y-97.25
X170.2Y-45.8
X170.35Y-90.8
X170.35Y-92.05
X170.35Y-93.3
X170.35Y-94.55
X171.525Y-116.475
X171.85Y-39.55
X171.85Y-40.8
X171.85Y-42.05
X171.85Y-43.3
X172.1Y-90.8
X172.1Y-92.05
X172.1Y-93.3
X172.1Y-94.55
X173.6Y-39.55
X173.6Y-40.8
X173.6Y-42.05
X173.6Y-43.3
X174.1Y-96.4
X175.3Y-89.3
X175.5Y-45.5
X175.5Y-97.
X175.525Y-116.475
X175.9Y-37.7
X176.3Y-92.5
X176.3Y-98.
X176.4Y-46.3
X176.7Y-88.7
X176.7Y-94.1
X177.2Y-37.1
X177.3Y-47.3
X177.4Y-41.5
X177.4Y-98.9
X177.5Y-91.9
X177.7Y-87.6
X177.7Y-95.1
X177.9Y-43.2
X178.Y-48.4
X178.2Y-40.6
X178.3Y-36.5
X178.5Y-91.1
X178.5Y-96.1
X178.8Y-44.1
X179.Y-49.15
X179.25Y-39.75
X179.25Y-90.
X179.3Y-45.2
X179.3Y-86.9
X179.5Y-97.
X179.6Y-35.9
X180.Y-46.1
X180.3Y-98.
X180.4Y-38.8
X180.9Y-47.
X181.Y-106.75
X181.2Y-98.9
X181.75Y-55.75
X181.9Y-48.
X182.5Y-106.75
X183.25Y-55.75
X185.5Y-87.5
X186.25Y-36.25
X187.Y-87.5
X187.75Y-36.25
X207.65Y-22.65
X207.65Y-26.9
X207.65Y-30.15
X207.65Y-33.15
X207.65Y-36.4
X207.65Y-39.4
X207.65Y-43.4
X207.65Y-47.15
X207.65Y-51.4
X207.65Y-54.65
X207.65Y-57.65
X207.65Y-60.9
X207.65Y-63.9
X207.65Y-67.9
X207.65Y-71.9
X207.65Y-74.9
X207.65Y-78.9
X207.65Y-82.65
X207.65Y-86.9
X207.65Y-90.15
X207.65Y-93.15
X207.65Y-96.4
X207.65Y-99.4
X207.65Y-103.4
T2
X86.75Y-97.25
X87.Y-95.75
X87.Y-98.5
X87.25Y-94.75
X87.25Y-99.75
X87.5Y-46.25
X87.5Y-101.5
X87.75Y-44.75
X87.75Y-47.5
X88.Y-43.75
X88.Y-48.75
X88.Y-92.5
X88.25Y-50.5
X88.75Y-41.5
X88.75Y-92.
X89.5Y-41.
X89.625Y-91.625
X90.375Y-40.625
X90.625Y-91.875
X91.125Y-89.625
X91.125Y-99.875
X91.375Y-40.875
X91.875Y-38.625
X91.875Y-48.875
X92.25Y-68.5
X92.875Y-99.875
X93.Y-17.5
X93.25Y-67.75
X93.5Y-82.75
X93.625Y-48.875
X94.Y-16.75
X94.125Y-88.125
X94.25Y-31.75
X94.25Y-67.
X94.25Y-72.75
X94.25Y-74.5
X94.25Y-78.5
X94.875Y-37.125
X95.Y-16.
X95.Y-21.75
X95.Y-23.5
X95.Y-27.5
X96.Y-66.25
X96.375Y-89.625
X96.5Y-79.25
X96.75Y-15.25
X96.875Y-99.875
X97.125Y-38.625
X97.25Y-28.25
X97.625Y-48.875
X97.625Y-93.375
X97.625Y-97.625
X98.375Y-42.375
X98.375Y-46.625
X98.5Y-67.5
X99.25Y-16.5
X99.75Y-65.5
X100.5Y-14.5
X100.625Y-87.125
X100.625Y-90.375
X100.75Y-79.25
X101.125Y-100.625
X101.375Y-36.125
X101.375Y-39.375
X101.5Y-28.25
X101.5Y-69.75
X101.875Y-49.625
X102.Y-70.5
X102.25Y-18.75
X102.25Y-72.25
X102.5Y-71.25
X102.75Y-19.5
X103.Y-21.25
X103.25Y-20.25
X103.75Y-82.25
X104.5Y-31.25
X104.5Y-72.75
X104.5Y-78.
X104.75Y-66.
X104.75Y-71.25
X105.Y-57.
X105.25Y-21.75
X105.25Y-27.
X105.75Y-57.75
X105.75Y-67.
X105.75Y-70.5
X106.Y-75.75
X106.75Y-24.75
X106.75Y-58.5
X106.75Y-67.75
X106.75Y-69.75
X107.Y-82.25
X107.75Y-31.25
X109.5Y-52.5
X109.5Y-68.75
X109.5Y-75.75
X110.25Y-97.
X111.Y-46.
X111.25Y-103.5
X112.Y-52.5
X112.75Y-101.25
X112.75Y-106.5
X113.5Y-50.25
X113.5Y-55.5
X113.5Y-97.
X114.25Y-46.
X114.75Y-108.
X115.Y-107.
X115.25Y-108.75
X115.5Y-57.
X115.75Y-56.
X115.75Y-109.5
X116.Y-57.75
X116.5Y-58.5
X116.5Y-74.75
X116.5Y-100.
X117.Y-85.
X117.Y-87.5
X117.25Y-23.75
X117.25Y-49.
X117.5Y-110.25
X117.75Y-34.
X117.75Y-36.5
X118.25Y-59.25
X118.75Y-110.25
X119.5Y-59.25
X119.5Y-111.25
X120.Y-77.75
X120.Y-82.
X120.25Y-60.25
X120.25Y-112.
X120.75Y-26.75
X120.75Y-31.
X120.75Y-75.5
X120.75Y-100.
X121.Y-61.
X121.25Y-85.75
X121.5Y-24.5
X121.5Y-49.
X122.Y-34.75
X123.Y-100.75
X123.Y-104.75
X123.Y-106.5
X123.5Y-87.25
X123.75Y-49.75
X123.75Y-53.75
X123.75Y-55.5
X123.75Y-96.5
X124.Y-112.75
X124.25Y-36.25
X124.5Y-45.5
X124.75Y-61.75
X124.75Y-75.5
X125.Y-111.
X125.5Y-24.5
X125.75Y-60.
X126.5Y-75.5
X126.5Y-85.75
X127.Y-83.5
X127.25Y-24.5
X127.25Y-34.75
X127.75Y-32.5
X128.Y-83.75
X128.75Y-32.75
X128.75Y-83.25
X129.5Y-32.25
X129.75Y-83.
X130.5Y-32.
X130.5Y-79.75
X130.5Y-81.
X131.25Y-28.75
X131.25Y-30.
X131.25Y-73.25
X131.25Y-79.
X132.Y-22.25
X132.Y-28.
X132.25Y-78.25
X133.Y-27.25
X133.Y-74.5
X133.75Y-23.5
X147.25Y-108.
X148.Y-57.
X148.Y-104.25
X148.5Y-65.25
X148.75Y-53.25
X149.Y-103.5
X149.Y-109.25
X149.25Y-64.5
X149.75Y-52.5
X149.75Y-58.25
X149.75Y-63.75
X149.75Y-101.5
X149.75Y-102.75
X150.5Y-50.5
X150.5Y-51.75
X150.5Y-99.5
X151.25Y-48.5
X151.5Y-99.25
X151.75Y-64.5
X152.Y-65.75
X152.Y-67.
X152.25Y-48.25
X152.25Y-98.75
X153.Y-47.75
X153.25Y-99.
X153.75Y-96.75
X153.75Y-107.
X154.Y-48.
X154.5Y-45.75
X154.5Y-56.
X155.25Y-71.5
X155.5Y-107.
X156.Y-20.5
X156.25Y-56.
X156.25Y-69.75
X156.5Y-86.
X156.75Y-95.25
X157.Y-18.75
X157.25Y-35.
X157.25Y-76.
X157.25Y-77.75
X157.25Y-81.75
X157.5Y-44.25
X158.Y-25.
X158.Y-26.75
X158.Y-30.75
X159.Y-96.75
X159.5Y-82.5
X159.5Y-107.
X159.75Y-45.75
X160.Y-70.5
X160.25Y-31.5
X160.25Y-56.
X160.25Y-100.5
X160.25Y-104.75
X160.75Y-19.5
X160.75Y-71.25
X161.Y-49.5
X161.Y-53.75
X161.5Y-20.25
X161.5Y-72.25
X162.25Y-21.25
X162.75Y-72.25
X163.25Y-95.
X163.25Y-97.5
X163.5Y-21.25
X163.75Y-82.5
X163.75Y-107.75
X164.Y-44.
X164.Y-46.5
X164.5Y-31.5
X164.5Y-56.75
X164.5Y-73.
X165.Y-73.75
X165.25Y-22.
X165.25Y-75.5
X165.5Y-74.5
X165.75Y-22.75
X166.Y-24.5
X166.25Y-23.5
X166.75Y-85.5
X167.5Y-34.5
X167.5Y-76.
X167.5Y-81.25
X168.25Y-25.
X168.25Y-30.25
X169.Y-79.
X169.75Y-28.
X170.Y-85.5
X170.25Y-55.75
X170.25Y-66.
X170.25Y-79.
X170.75Y-34.5
X173.25Y-100.25
X173.5Y-61.75
X173.5Y-65.
X173.5Y-73.
X174.Y-49.25
X174.25Y-61.
X174.25Y-64.
X174.25Y-73.75
X174.25Y-106.75
X175.Y-55.75
X175.Y-60.25
X175.Y-63.
X175.Y-74.5
X175.75Y-104.5
X175.75Y-109.75
X176.5Y-53.5
X176.5Y-58.75
X176.5Y-100.25
X177.25Y-49.25
X177.75Y-111.25
X178.Y-110.25
X178.25Y-112.
X178.5Y-60.25
X178.75Y-59.25
X178.75Y-112.75
X179.Y-61.
X179.125Y-81.875
X179.5Y-61.75
X179.5Y-103.25
X179.625Y-92.125
X179.625Y-95.375
X179.875Y-30.875
X180.25Y-52.25
X180.375Y-41.125
X180.375Y-44.375
X180.5Y-117.
X180.75Y-64.
X181.75Y-115.
X182.5Y-64.
X182.625Y-84.875
X182.625Y-89.125
X183.375Y-33.875
X183.375Y-38.125
X183.375Y-82.625
X183.75Y-103.25
X183.875Y-92.875
X184.125Y-31.625
X184.25Y-116.25
X184.5Y-52.25
X184.625Y-41.875
X185.25Y-65.
X186.Y-64.25
X186.Y-104.
X186.Y-108.
X186.Y-109.75
X186.Y-115.5
X186.125Y-94.375
X186.75Y-53.
X186.75Y-57.
X186.75Y-58.75
X186.75Y-99.75
X186.875Y-43.375
X187.Y-114.75
X187.375Y-82.625
X187.5Y-48.75
X187.75Y-63.5
X188.Y-114.
X188.125Y-31.625
X189.125Y-82.625
X189.125Y-92.875
X189.25Y-62.75
X189.625Y-90.625
X189.875Y-31.625
X189.875Y-41.875
X190.375Y-39.625
X190.625Y-90.875
X191.375Y-39.875
X191.5Y-90.5
X192.25Y-39.5
X192.25Y-90.
X192.75Y-81.
X193.Y-39.
X193.Y-82.75
X193.Y-88.25
X193.25Y-84.
X193.25Y-86.75
X193.5Y-30.
X193.5Y-85.25
X193.75Y-31.75
X193.75Y-36.75
X194.Y-33.
X194.Y-35.75
X194.25Y-34.25
T3
X137.05Y-86.05
X137.05Y-91.45
X139.75Y-88.75
X142.45Y-86.05
X142.45Y-91.45
T4
X79.5Y-28.75
X79.5Y-31.29
X79.5Y-33.83
X79.5Y-36.37
X79.5Y-38.91
X79.5Y-41.45
X79.5Y-43.99
X79.5Y-46.53
X79.5Y-49.07
X79.5Y-51.61
X79.5Y-54.15
X79.5Y-56.69
X79.5Y-59.23
X79.5Y-61.77
X79.5Y-64.31
X79.5Y-66.85
X79.5Y-69.39
X79.5Y-71.93
X79.5Y-74.47
X79.5Y-77.01
X79.5Y-79.55
X79.5Y-82.09
X79.5Y-84.63
X79.5Y-87.17
X79.5Y-89.71
X79.5Y-92.25
X79.5Y-94.79
X79.5Y-97.33
X79.5Y-99.87
X79.5Y-102.41
X79.5Y-104.95
X79.5Y-107.49
X79.5Y-115.
X137.7Y-18.5
X140.24Y-18.5
X142.78Y-18.5
X145.32Y-18.5
X203.5Y-30.
X203.5Y-32.54
X203.5Y-35.08
X203.5Y-37.62
X203.5Y-40.16
X203.5Y-42.7
X203.5Y-45.24
X203.5Y-47.78
X203.5Y-50.32
X203.5Y-52.86
X203.5Y-55.4
X203.5Y-57.94
X203.5Y-60.48
X203.5Y-63.02
X203.5Y-65.56
X203.5Y-68.1
X203.5Y-70.64
X203.5Y-73.18
X203.5Y-75.72
X203.5Y-78.26
X203.5Y-80.8
X203.5Y-83.34
X203.5Y-85.88
X203.5Y-88.42
X203.5Y-90.96
X203.5Y-93.5
X203.5Y-96.04
X203.5Y-98.58
X203.5Y-101.12
X203.5Y-103.66
X203.5Y-106.2
X203.5Y-108.74
X203.5Y-115.
T0
M30
