G04 #@! TF.FileFunction,Soldermask,Top*
%FSLAX46Y46*%
G04 Gerber Fmt 4.6, Leading zero omitted, Abs format (unit mm)*
G04 Created by KiCad (PCBNEW 4.0.2+dfsg1-stable) date Wed 06 Jul 2016 03:59:12 PM CEST*
%MOMM*%
G01*
G04 APERTURE LIST*
%ADD10C,0.100000*%
%ADD11O,0.096520X0.848360*%
%ADD12O,0.848360X0.096520*%
%ADD13R,2.895600X2.895600*%
%ADD14R,0.447600X0.247600*%
%ADD15R,0.447600X0.347600*%
%ADD16R,0.347600X0.447600*%
%ADD17R,0.847600X0.197600*%
%ADD18R,1.948180X5.448300*%
%ADD19R,5.448300X1.948180*%
%ADD20R,0.197600X0.847600*%
%ADD21R,0.247600X0.447600*%
%ADD22C,1.846580*%
%ADD23R,1.879600X1.574800*%
%ADD24O,1.879600X1.574800*%
%ADD25R,1.574800X1.879600*%
%ADD26O,1.574800X1.879600*%
%ADD27R,2.082800X2.082800*%
%ADD28R,0.607600X1.117600*%
%ADD29R,1.117600X0.607600*%
G04 APERTURE END LIST*
D10*
D11*
X163001140Y-76500640D03*
X162500760Y-76500640D03*
X162000380Y-76500640D03*
X161500000Y-76500640D03*
X160999620Y-76500640D03*
X160499240Y-76500640D03*
X159998860Y-76500640D03*
D12*
X159000640Y-77498860D03*
X159000640Y-77999240D03*
X159000640Y-78499620D03*
X159000640Y-79000000D03*
X159000640Y-79500380D03*
X159000640Y-80000760D03*
X159000640Y-80501140D03*
D11*
X159998860Y-81499360D03*
X160499240Y-81499360D03*
X160999620Y-81499360D03*
X161500000Y-81499360D03*
X162000380Y-81499360D03*
X162500760Y-81499360D03*
X163001140Y-81499360D03*
D12*
X163999360Y-80501140D03*
X163999360Y-80000760D03*
X163999360Y-79500380D03*
X163999360Y-79000000D03*
X163999360Y-78499620D03*
X163999360Y-77999240D03*
X163999360Y-77498860D03*
D13*
X161500000Y-79000000D03*
D14*
X166500000Y-80050000D03*
X166500000Y-80950000D03*
X167750000Y-77050000D03*
X167750000Y-77950000D03*
D15*
X168450000Y-82500000D03*
X169550000Y-82500000D03*
D10*
G36*
X164586645Y-87497239D02*
X164860557Y-87283235D01*
X165136127Y-87635949D01*
X164862215Y-87849953D01*
X164586645Y-87497239D01*
X164586645Y-87497239D01*
G37*
G36*
X165263873Y-88364051D02*
X165537785Y-88150047D01*
X165813355Y-88502761D01*
X165539443Y-88716765D01*
X165263873Y-88364051D01*
X165263873Y-88364051D01*
G37*
D15*
X169550000Y-84500000D03*
X168450000Y-84500000D03*
D16*
X166750000Y-83450000D03*
X166750000Y-84550000D03*
D15*
X153950000Y-87000000D03*
X155050000Y-87000000D03*
D16*
X165000000Y-83200000D03*
X165000000Y-84300000D03*
D15*
X153950000Y-72500000D03*
X155050000Y-72500000D03*
D16*
X158000000Y-83200000D03*
X158000000Y-84300000D03*
X166250000Y-77050000D03*
X166250000Y-75950000D03*
X156500000Y-82950000D03*
X156500000Y-84050000D03*
D17*
X160600000Y-84450000D03*
X162400000Y-84450000D03*
X160600000Y-83750000D03*
X162400000Y-83750000D03*
X160600000Y-83050000D03*
X162400000Y-83050000D03*
D18*
X151750000Y-74901140D03*
X151750000Y-84598860D03*
D19*
X152651140Y-112500000D03*
X162348860Y-112500000D03*
D20*
X162200000Y-103650000D03*
X162200000Y-101850000D03*
X161500000Y-103650000D03*
X161500000Y-101850000D03*
X160800000Y-103650000D03*
X160800000Y-101850000D03*
D15*
X160700000Y-107750000D03*
X161800000Y-107750000D03*
X154800000Y-98000000D03*
X153700000Y-98000000D03*
X160950000Y-106250000D03*
X162050000Y-106250000D03*
D16*
X150250000Y-110300000D03*
X150250000Y-109200000D03*
D15*
X160950000Y-99250000D03*
X162050000Y-99250000D03*
D16*
X164750000Y-110300000D03*
X164750000Y-109200000D03*
D15*
X161200000Y-97500000D03*
X162300000Y-97500000D03*
D16*
X162250000Y-94700000D03*
X162250000Y-95800000D03*
D10*
G36*
X164747239Y-99863355D02*
X164533235Y-99589443D01*
X164885949Y-99313873D01*
X165099953Y-99587785D01*
X164747239Y-99863355D01*
X164747239Y-99863355D01*
G37*
G36*
X165614051Y-99186127D02*
X165400047Y-98912215D01*
X165752761Y-98636645D01*
X165966765Y-98910557D01*
X165614051Y-99186127D01*
X165614051Y-99186127D01*
G37*
D16*
X160250000Y-95800000D03*
X160250000Y-94700000D03*
D21*
X154800000Y-96500000D03*
X155700000Y-96500000D03*
X157800000Y-97750000D03*
X158700000Y-97750000D03*
D12*
X154250640Y-101248860D03*
X154250640Y-101749240D03*
X154250640Y-102249620D03*
X154250640Y-102750000D03*
X154250640Y-103250380D03*
X154250640Y-103750760D03*
X154250640Y-104251140D03*
D11*
X155248860Y-105249360D03*
X155749240Y-105249360D03*
X156249620Y-105249360D03*
X156750000Y-105249360D03*
X157250380Y-105249360D03*
X157750760Y-105249360D03*
X158251140Y-105249360D03*
D12*
X159249360Y-104251140D03*
X159249360Y-103750760D03*
X159249360Y-103250380D03*
X159249360Y-102750000D03*
X159249360Y-102249620D03*
X159249360Y-101749240D03*
X159249360Y-101248860D03*
D11*
X158251140Y-100250640D03*
X157750760Y-100250640D03*
X157250380Y-100250640D03*
X156750000Y-100250640D03*
X156249620Y-100250640D03*
X155749240Y-100250640D03*
X155248860Y-100250640D03*
D13*
X156750000Y-102750000D03*
D11*
X180248860Y-109249360D03*
X180749240Y-109249360D03*
X181249620Y-109249360D03*
X181750000Y-109249360D03*
X182250380Y-109249360D03*
X182750760Y-109249360D03*
X183251140Y-109249360D03*
D12*
X184249360Y-108251140D03*
X184249360Y-107750760D03*
X184249360Y-107250380D03*
X184249360Y-106750000D03*
X184249360Y-106249620D03*
X184249360Y-105749240D03*
X184249360Y-105248860D03*
D11*
X183251140Y-104250640D03*
X182750760Y-104250640D03*
X182250380Y-104250640D03*
X181750000Y-104250640D03*
X181249620Y-104250640D03*
X180749240Y-104250640D03*
X180248860Y-104250640D03*
D12*
X179250640Y-105248860D03*
X179250640Y-105749240D03*
X179250640Y-106249620D03*
X179250640Y-106750000D03*
X179250640Y-107250380D03*
X179250640Y-107750760D03*
X179250640Y-108251140D03*
D13*
X181750000Y-106750000D03*
D14*
X176750000Y-105700000D03*
X176750000Y-104800000D03*
X175500000Y-108700000D03*
X175500000Y-107800000D03*
D15*
X174800000Y-103250000D03*
X173700000Y-103250000D03*
D10*
G36*
X178313355Y-97802761D02*
X178039443Y-98016765D01*
X177763873Y-97664051D01*
X178037785Y-97450047D01*
X178313355Y-97802761D01*
X178313355Y-97802761D01*
G37*
G36*
X177636127Y-96935949D02*
X177362215Y-97149953D01*
X177086645Y-96797239D01*
X177360557Y-96583235D01*
X177636127Y-96935949D01*
X177636127Y-96935949D01*
G37*
D15*
X173700000Y-101250000D03*
X174800000Y-101250000D03*
D16*
X176500000Y-102300000D03*
X176500000Y-101200000D03*
D15*
X189300000Y-98750000D03*
X188200000Y-98750000D03*
D16*
X178250000Y-102550000D03*
X178250000Y-101450000D03*
D15*
X189300000Y-113250000D03*
X188200000Y-113250000D03*
D16*
X185250000Y-102550000D03*
X185250000Y-101450000D03*
X177000000Y-108700000D03*
X177000000Y-109800000D03*
X186750000Y-102800000D03*
X186750000Y-101700000D03*
D17*
X182650000Y-101300000D03*
X180850000Y-101300000D03*
X182650000Y-102000000D03*
X180850000Y-102000000D03*
X182650000Y-102700000D03*
X180850000Y-102700000D03*
D18*
X191500000Y-110848860D03*
X191500000Y-101151140D03*
D19*
X190223860Y-77125000D03*
X180526140Y-77125000D03*
D20*
X180675000Y-85975000D03*
X180675000Y-87775000D03*
X181375000Y-85975000D03*
X181375000Y-87775000D03*
X182075000Y-85975000D03*
X182075000Y-87775000D03*
D15*
X182175000Y-81875000D03*
X181075000Y-81875000D03*
X188075000Y-91625000D03*
X189175000Y-91625000D03*
X181925000Y-83375000D03*
X180825000Y-83375000D03*
D16*
X192625000Y-79325000D03*
X192625000Y-80425000D03*
D15*
X181925000Y-90375000D03*
X180825000Y-90375000D03*
D16*
X178125000Y-79325000D03*
X178125000Y-80425000D03*
D15*
X181675000Y-92125000D03*
X180575000Y-92125000D03*
D16*
X180625000Y-94925000D03*
X180625000Y-93825000D03*
D10*
G36*
X178002761Y-89186645D02*
X178216765Y-89460557D01*
X177864051Y-89736127D01*
X177650047Y-89462215D01*
X178002761Y-89186645D01*
X178002761Y-89186645D01*
G37*
G36*
X177135949Y-89863873D02*
X177349953Y-90137785D01*
X176997239Y-90413355D01*
X176783235Y-90139443D01*
X177135949Y-89863873D01*
X177135949Y-89863873D01*
G37*
D16*
X182625000Y-93825000D03*
X182625000Y-94925000D03*
D21*
X188075000Y-93125000D03*
X187175000Y-93125000D03*
X185075000Y-91875000D03*
X184175000Y-91875000D03*
D12*
X188624360Y-88376140D03*
X188624360Y-87875760D03*
X188624360Y-87375380D03*
X188624360Y-86875000D03*
X188624360Y-86374620D03*
X188624360Y-85874240D03*
X188624360Y-85373860D03*
D11*
X187626140Y-84375640D03*
X187125760Y-84375640D03*
X186625380Y-84375640D03*
X186125000Y-84375640D03*
X185624620Y-84375640D03*
X185124240Y-84375640D03*
X184623860Y-84375640D03*
D12*
X183625640Y-85373860D03*
X183625640Y-85874240D03*
X183625640Y-86374620D03*
X183625640Y-86875000D03*
X183625640Y-87375380D03*
X183625640Y-87875760D03*
X183625640Y-88376140D03*
D11*
X184623860Y-89374360D03*
X185124240Y-89374360D03*
X185624620Y-89374360D03*
X186125000Y-89374360D03*
X186625380Y-89374360D03*
X187125760Y-89374360D03*
X187626140Y-89374360D03*
D13*
X186125000Y-86875000D03*
D12*
X189374360Y-37376140D03*
X189374360Y-36875760D03*
X189374360Y-36375380D03*
X189374360Y-35875000D03*
X189374360Y-35374620D03*
X189374360Y-34874240D03*
X189374360Y-34373860D03*
D11*
X188376140Y-33375640D03*
X187875760Y-33375640D03*
X187375380Y-33375640D03*
X186875000Y-33375640D03*
X186374620Y-33375640D03*
X185874240Y-33375640D03*
X185373860Y-33375640D03*
D12*
X184375640Y-34373860D03*
X184375640Y-34874240D03*
X184375640Y-35374620D03*
X184375640Y-35875000D03*
X184375640Y-36375380D03*
X184375640Y-36875760D03*
X184375640Y-37376140D03*
D11*
X185373860Y-38374360D03*
X185874240Y-38374360D03*
X186374620Y-38374360D03*
X186875000Y-38374360D03*
X187375380Y-38374360D03*
X187875760Y-38374360D03*
X188376140Y-38374360D03*
D13*
X186875000Y-35875000D03*
D21*
X185825000Y-40875000D03*
X184925000Y-40875000D03*
X188825000Y-42125000D03*
X187925000Y-42125000D03*
D16*
X183375000Y-42825000D03*
X183375000Y-43925000D03*
D10*
G36*
X178702761Y-38186645D02*
X178916765Y-38460557D01*
X178564051Y-38736127D01*
X178350047Y-38462215D01*
X178702761Y-38186645D01*
X178702761Y-38186645D01*
G37*
G36*
X177835949Y-38863873D02*
X178049953Y-39137785D01*
X177697239Y-39413355D01*
X177483235Y-39139443D01*
X177835949Y-38863873D01*
X177835949Y-38863873D01*
G37*
D16*
X181375000Y-43925000D03*
X181375000Y-42825000D03*
D15*
X182425000Y-41125000D03*
X181325000Y-41125000D03*
D16*
X178875000Y-28325000D03*
X178875000Y-29425000D03*
D15*
X182675000Y-39375000D03*
X181575000Y-39375000D03*
D16*
X193375000Y-28325000D03*
X193375000Y-29425000D03*
D15*
X182675000Y-32375000D03*
X181575000Y-32375000D03*
X188825000Y-40625000D03*
X189925000Y-40625000D03*
X182925000Y-30875000D03*
X181825000Y-30875000D03*
D20*
X181425000Y-34975000D03*
X181425000Y-36775000D03*
X182125000Y-34975000D03*
X182125000Y-36775000D03*
X182825000Y-34975000D03*
X182825000Y-36775000D03*
D19*
X190973860Y-26125000D03*
X181276140Y-26125000D03*
D18*
X192250000Y-59848860D03*
X192250000Y-50151140D03*
D17*
X183400000Y-50300000D03*
X181600000Y-50300000D03*
X183400000Y-51000000D03*
X181600000Y-51000000D03*
X183400000Y-51700000D03*
X181600000Y-51700000D03*
D16*
X187500000Y-51800000D03*
X187500000Y-50700000D03*
X177750000Y-57700000D03*
X177750000Y-58800000D03*
X186000000Y-51550000D03*
X186000000Y-50450000D03*
D15*
X190050000Y-62250000D03*
X188950000Y-62250000D03*
D16*
X179000000Y-51550000D03*
X179000000Y-50450000D03*
D15*
X190050000Y-47750000D03*
X188950000Y-47750000D03*
D16*
X177250000Y-51300000D03*
X177250000Y-50200000D03*
D15*
X174450000Y-50250000D03*
X175550000Y-50250000D03*
D10*
G36*
X179113355Y-46902761D02*
X178839443Y-47116765D01*
X178563873Y-46764051D01*
X178837785Y-46550047D01*
X179113355Y-46902761D01*
X179113355Y-46902761D01*
G37*
G36*
X178436127Y-46035949D02*
X178162215Y-46249953D01*
X177886645Y-45897239D01*
X178160557Y-45683235D01*
X178436127Y-46035949D01*
X178436127Y-46035949D01*
G37*
D15*
X175550000Y-52250000D03*
X174450000Y-52250000D03*
D14*
X176250000Y-57700000D03*
X176250000Y-56800000D03*
X177500000Y-54700000D03*
X177500000Y-53800000D03*
D11*
X180998860Y-58249360D03*
X181499240Y-58249360D03*
X181999620Y-58249360D03*
X182500000Y-58249360D03*
X183000380Y-58249360D03*
X183500760Y-58249360D03*
X184001140Y-58249360D03*
D12*
X184999360Y-57251140D03*
X184999360Y-56750760D03*
X184999360Y-56250380D03*
X184999360Y-55750000D03*
X184999360Y-55249620D03*
X184999360Y-54749240D03*
X184999360Y-54248860D03*
D11*
X184001140Y-53250640D03*
X183500760Y-53250640D03*
X183000380Y-53250640D03*
X182500000Y-53250640D03*
X181999620Y-53250640D03*
X181499240Y-53250640D03*
X180998860Y-53250640D03*
D12*
X180000640Y-54248860D03*
X180000640Y-54749240D03*
X180000640Y-55249620D03*
X180000640Y-55750000D03*
X180000640Y-56250380D03*
X180000640Y-56750760D03*
X180000640Y-57251140D03*
D13*
X182500000Y-55750000D03*
D12*
X155000640Y-50248860D03*
X155000640Y-50749240D03*
X155000640Y-51249620D03*
X155000640Y-51750000D03*
X155000640Y-52250380D03*
X155000640Y-52750760D03*
X155000640Y-53251140D03*
D11*
X155998860Y-54249360D03*
X156499240Y-54249360D03*
X156999620Y-54249360D03*
X157500000Y-54249360D03*
X158000380Y-54249360D03*
X158500760Y-54249360D03*
X159001140Y-54249360D03*
D12*
X159999360Y-53251140D03*
X159999360Y-52750760D03*
X159999360Y-52250380D03*
X159999360Y-51750000D03*
X159999360Y-51249620D03*
X159999360Y-50749240D03*
X159999360Y-50248860D03*
D11*
X159001140Y-49250640D03*
X158500760Y-49250640D03*
X158000380Y-49250640D03*
X157500000Y-49250640D03*
X156999620Y-49250640D03*
X156499240Y-49250640D03*
X155998860Y-49250640D03*
D13*
X157500000Y-51750000D03*
D21*
X158550000Y-46750000D03*
X159450000Y-46750000D03*
X155550000Y-45500000D03*
X156450000Y-45500000D03*
D16*
X161000000Y-44800000D03*
X161000000Y-43700000D03*
D10*
G36*
X165397239Y-48613355D02*
X165183235Y-48339443D01*
X165535949Y-48063873D01*
X165749953Y-48337785D01*
X165397239Y-48613355D01*
X165397239Y-48613355D01*
G37*
G36*
X166264051Y-47936127D02*
X166050047Y-47662215D01*
X166402761Y-47386645D01*
X166616765Y-47660557D01*
X166264051Y-47936127D01*
X166264051Y-47936127D01*
G37*
D16*
X163000000Y-43700000D03*
X163000000Y-44800000D03*
D15*
X161950000Y-46500000D03*
X163050000Y-46500000D03*
D16*
X165500000Y-59300000D03*
X165500000Y-58200000D03*
D15*
X161700000Y-48250000D03*
X162800000Y-48250000D03*
D16*
X151000000Y-59300000D03*
X151000000Y-58200000D03*
D15*
X161700000Y-55250000D03*
X162800000Y-55250000D03*
X155550000Y-47000000D03*
X154450000Y-47000000D03*
X161450000Y-56750000D03*
X162550000Y-56750000D03*
D20*
X162950000Y-52650000D03*
X162950000Y-50850000D03*
X162250000Y-52650000D03*
X162250000Y-50850000D03*
X161550000Y-52650000D03*
X161550000Y-50850000D03*
D19*
X153401140Y-61500000D03*
X163098860Y-61500000D03*
D18*
X152500000Y-23901140D03*
X152500000Y-33598860D03*
D17*
X161350000Y-33450000D03*
X163150000Y-33450000D03*
X161350000Y-32750000D03*
X163150000Y-32750000D03*
X161350000Y-32050000D03*
X163150000Y-32050000D03*
D16*
X157250000Y-31950000D03*
X157250000Y-33050000D03*
X167000000Y-26050000D03*
X167000000Y-24950000D03*
X158750000Y-32200000D03*
X158750000Y-33300000D03*
D15*
X154700000Y-21500000D03*
X155800000Y-21500000D03*
D16*
X165750000Y-32200000D03*
X165750000Y-33300000D03*
D15*
X154700000Y-36000000D03*
X155800000Y-36000000D03*
D16*
X167500000Y-32450000D03*
X167500000Y-33550000D03*
D15*
X170300000Y-33500000D03*
X169200000Y-33500000D03*
D10*
G36*
X165386645Y-36597239D02*
X165660557Y-36383235D01*
X165936127Y-36735949D01*
X165662215Y-36949953D01*
X165386645Y-36597239D01*
X165386645Y-36597239D01*
G37*
G36*
X166063873Y-37464051D02*
X166337785Y-37250047D01*
X166613355Y-37602761D01*
X166339443Y-37816765D01*
X166063873Y-37464051D01*
X166063873Y-37464051D01*
G37*
D15*
X169200000Y-31500000D03*
X170300000Y-31500000D03*
D14*
X168500000Y-26050000D03*
X168500000Y-26950000D03*
X167250000Y-29050000D03*
X167250000Y-29950000D03*
D11*
X163751140Y-25500640D03*
X163250760Y-25500640D03*
X162750380Y-25500640D03*
X162250000Y-25500640D03*
X161749620Y-25500640D03*
X161249240Y-25500640D03*
X160748860Y-25500640D03*
D12*
X159750640Y-26498860D03*
X159750640Y-26999240D03*
X159750640Y-27499620D03*
X159750640Y-28000000D03*
X159750640Y-28500380D03*
X159750640Y-29000760D03*
X159750640Y-29501140D03*
D11*
X160748860Y-30499360D03*
X161249240Y-30499360D03*
X161749620Y-30499360D03*
X162250000Y-30499360D03*
X162750380Y-30499360D03*
X163250760Y-30499360D03*
X163751140Y-30499360D03*
D12*
X164749360Y-29501140D03*
X164749360Y-29000760D03*
X164749360Y-28500380D03*
X164749360Y-28000000D03*
X164749360Y-27499620D03*
X164749360Y-26999240D03*
X164749360Y-26498860D03*
D13*
X162250000Y-28000000D03*
D11*
X117248860Y-105999360D03*
X117749240Y-105999360D03*
X118249620Y-105999360D03*
X118750000Y-105999360D03*
X119250380Y-105999360D03*
X119750760Y-105999360D03*
X120251140Y-105999360D03*
D12*
X121249360Y-105001140D03*
X121249360Y-104500760D03*
X121249360Y-104000380D03*
X121249360Y-103500000D03*
X121249360Y-102999620D03*
X121249360Y-102499240D03*
X121249360Y-101998860D03*
D11*
X120251140Y-101000640D03*
X119750760Y-101000640D03*
X119250380Y-101000640D03*
X118750000Y-101000640D03*
X118249620Y-101000640D03*
X117749240Y-101000640D03*
X117248860Y-101000640D03*
D12*
X116250640Y-101998860D03*
X116250640Y-102499240D03*
X116250640Y-102999620D03*
X116250640Y-103500000D03*
X116250640Y-104000380D03*
X116250640Y-104500760D03*
X116250640Y-105001140D03*
D13*
X118750000Y-103500000D03*
D14*
X113750000Y-102450000D03*
X113750000Y-101550000D03*
X112500000Y-105450000D03*
X112500000Y-104550000D03*
D15*
X111800000Y-100000000D03*
X110700000Y-100000000D03*
D10*
G36*
X115413355Y-94702761D02*
X115139443Y-94916765D01*
X114863873Y-94564051D01*
X115137785Y-94350047D01*
X115413355Y-94702761D01*
X115413355Y-94702761D01*
G37*
G36*
X114736127Y-93835949D02*
X114462215Y-94049953D01*
X114186645Y-93697239D01*
X114460557Y-93483235D01*
X114736127Y-93835949D01*
X114736127Y-93835949D01*
G37*
D15*
X110700000Y-98000000D03*
X111800000Y-98000000D03*
D16*
X113500000Y-99050000D03*
X113500000Y-97950000D03*
D15*
X126300000Y-95500000D03*
X125200000Y-95500000D03*
D16*
X115250000Y-99300000D03*
X115250000Y-98200000D03*
D15*
X126300000Y-110000000D03*
X125200000Y-110000000D03*
D16*
X122250000Y-99300000D03*
X122250000Y-98200000D03*
X114000000Y-105450000D03*
X114000000Y-106550000D03*
X123750000Y-99550000D03*
X123750000Y-98450000D03*
D17*
X119650000Y-98050000D03*
X117850000Y-98050000D03*
X119650000Y-98750000D03*
X117850000Y-98750000D03*
X119650000Y-99450000D03*
X117850000Y-99450000D03*
D18*
X128500000Y-107598860D03*
X128500000Y-97901140D03*
D19*
X127598860Y-70000000D03*
X117901140Y-70000000D03*
D20*
X118050000Y-78850000D03*
X118050000Y-80650000D03*
X118750000Y-78850000D03*
X118750000Y-80650000D03*
X119450000Y-78850000D03*
X119450000Y-80650000D03*
D15*
X119550000Y-74750000D03*
X118450000Y-74750000D03*
X125450000Y-84500000D03*
X126550000Y-84500000D03*
X119300000Y-76250000D03*
X118200000Y-76250000D03*
D16*
X130000000Y-72200000D03*
X130000000Y-73300000D03*
D15*
X119300000Y-83250000D03*
X118200000Y-83250000D03*
D16*
X115500000Y-72200000D03*
X115500000Y-73300000D03*
D15*
X119050000Y-85000000D03*
X117950000Y-85000000D03*
D16*
X118000000Y-87800000D03*
X118000000Y-86700000D03*
D10*
G36*
X115602761Y-82886645D02*
X115816765Y-83160557D01*
X115464051Y-83436127D01*
X115250047Y-83162215D01*
X115602761Y-82886645D01*
X115602761Y-82886645D01*
G37*
G36*
X114735949Y-83563873D02*
X114949953Y-83837785D01*
X114597239Y-84113355D01*
X114383235Y-83839443D01*
X114735949Y-83563873D01*
X114735949Y-83563873D01*
G37*
D16*
X120000000Y-86700000D03*
X120000000Y-87800000D03*
D21*
X125450000Y-86000000D03*
X124550000Y-86000000D03*
X122450000Y-84750000D03*
X121550000Y-84750000D03*
D12*
X125999360Y-81251140D03*
X125999360Y-80750760D03*
X125999360Y-80250380D03*
X125999360Y-79750000D03*
X125999360Y-79249620D03*
X125999360Y-78749240D03*
X125999360Y-78248860D03*
D11*
X125001140Y-77250640D03*
X124500760Y-77250640D03*
X124000380Y-77250640D03*
X123500000Y-77250640D03*
X122999620Y-77250640D03*
X122499240Y-77250640D03*
X121998860Y-77250640D03*
D12*
X121000640Y-78248860D03*
X121000640Y-78749240D03*
X121000640Y-79249620D03*
X121000640Y-79750000D03*
X121000640Y-80250380D03*
X121000640Y-80750760D03*
X121000640Y-81251140D03*
D11*
X121998860Y-82249360D03*
X122499240Y-82249360D03*
X122999620Y-82249360D03*
X123500000Y-82249360D03*
X124000380Y-82249360D03*
X124500760Y-82249360D03*
X125001140Y-82249360D03*
D13*
X123500000Y-79750000D03*
D11*
X100001140Y-73250640D03*
X99500760Y-73250640D03*
X99000380Y-73250640D03*
X98500000Y-73250640D03*
X97999620Y-73250640D03*
X97499240Y-73250640D03*
X96998860Y-73250640D03*
D12*
X96000640Y-74248860D03*
X96000640Y-74749240D03*
X96000640Y-75249620D03*
X96000640Y-75750000D03*
X96000640Y-76250380D03*
X96000640Y-76750760D03*
X96000640Y-77251140D03*
D11*
X96998860Y-78249360D03*
X97499240Y-78249360D03*
X97999620Y-78249360D03*
X98500000Y-78249360D03*
X99000380Y-78249360D03*
X99500760Y-78249360D03*
X100001140Y-78249360D03*
D12*
X100999360Y-77251140D03*
X100999360Y-76750760D03*
X100999360Y-76250380D03*
X100999360Y-75750000D03*
X100999360Y-75249620D03*
X100999360Y-74749240D03*
X100999360Y-74248860D03*
D13*
X98500000Y-75750000D03*
D14*
X103500000Y-76800000D03*
X103500000Y-77700000D03*
X104750000Y-73800000D03*
X104750000Y-74700000D03*
D15*
X105450000Y-79250000D03*
X106550000Y-79250000D03*
D10*
G36*
X101986645Y-84697239D02*
X102260557Y-84483235D01*
X102536127Y-84835949D01*
X102262215Y-85049953D01*
X101986645Y-84697239D01*
X101986645Y-84697239D01*
G37*
G36*
X102663873Y-85564051D02*
X102937785Y-85350047D01*
X103213355Y-85702761D01*
X102939443Y-85916765D01*
X102663873Y-85564051D01*
X102663873Y-85564051D01*
G37*
D15*
X106550000Y-81250000D03*
X105450000Y-81250000D03*
D16*
X103750000Y-80200000D03*
X103750000Y-81300000D03*
D15*
X90950000Y-83750000D03*
X92050000Y-83750000D03*
D16*
X102000000Y-79950000D03*
X102000000Y-81050000D03*
D15*
X90950000Y-69250000D03*
X92050000Y-69250000D03*
D16*
X95000000Y-79950000D03*
X95000000Y-81050000D03*
X103250000Y-73800000D03*
X103250000Y-72700000D03*
X93500000Y-79700000D03*
X93500000Y-80800000D03*
D17*
X97600000Y-81200000D03*
X99400000Y-81200000D03*
X97600000Y-80500000D03*
X99400000Y-80500000D03*
X97600000Y-79800000D03*
X99400000Y-79800000D03*
D18*
X88750000Y-71651140D03*
X88750000Y-81348860D03*
D19*
X90026140Y-105375000D03*
X99723860Y-105375000D03*
D20*
X99575000Y-96525000D03*
X99575000Y-94725000D03*
X98875000Y-96525000D03*
X98875000Y-94725000D03*
X98175000Y-96525000D03*
X98175000Y-94725000D03*
D15*
X98075000Y-100625000D03*
X99175000Y-100625000D03*
X92175000Y-90875000D03*
X91075000Y-90875000D03*
X98325000Y-99125000D03*
X99425000Y-99125000D03*
D16*
X87625000Y-103175000D03*
X87625000Y-102075000D03*
D15*
X98325000Y-92125000D03*
X99425000Y-92125000D03*
D16*
X102125000Y-103175000D03*
X102125000Y-102075000D03*
D15*
X98575000Y-90375000D03*
X99675000Y-90375000D03*
D16*
X99625000Y-87575000D03*
X99625000Y-88675000D03*
D10*
G36*
X102197239Y-93313355D02*
X101983235Y-93039443D01*
X102335949Y-92763873D01*
X102549953Y-93037785D01*
X102197239Y-93313355D01*
X102197239Y-93313355D01*
G37*
G36*
X103064051Y-92636127D02*
X102850047Y-92362215D01*
X103202761Y-92086645D01*
X103416765Y-92360557D01*
X103064051Y-92636127D01*
X103064051Y-92636127D01*
G37*
D16*
X97625000Y-88675000D03*
X97625000Y-87575000D03*
D21*
X92175000Y-89375000D03*
X93075000Y-89375000D03*
X95175000Y-90625000D03*
X96075000Y-90625000D03*
D12*
X91625640Y-94123860D03*
X91625640Y-94624240D03*
X91625640Y-95124620D03*
X91625640Y-95625000D03*
X91625640Y-96125380D03*
X91625640Y-96625760D03*
X91625640Y-97126140D03*
D11*
X92623860Y-98124360D03*
X93124240Y-98124360D03*
X93624620Y-98124360D03*
X94125000Y-98124360D03*
X94625380Y-98124360D03*
X95125760Y-98124360D03*
X95626140Y-98124360D03*
D12*
X96624360Y-97126140D03*
X96624360Y-96625760D03*
X96624360Y-96125380D03*
X96624360Y-95625000D03*
X96624360Y-95124620D03*
X96624360Y-94624240D03*
X96624360Y-94123860D03*
D11*
X95626140Y-93125640D03*
X95125760Y-93125640D03*
X94625380Y-93125640D03*
X94125000Y-93125640D03*
X93624620Y-93125640D03*
X93124240Y-93125640D03*
X92623860Y-93125640D03*
D13*
X94125000Y-95625000D03*
D12*
X92375640Y-43123860D03*
X92375640Y-43624240D03*
X92375640Y-44124620D03*
X92375640Y-44625000D03*
X92375640Y-45125380D03*
X92375640Y-45625760D03*
X92375640Y-46126140D03*
D11*
X93373860Y-47124360D03*
X93874240Y-47124360D03*
X94374620Y-47124360D03*
X94875000Y-47124360D03*
X95375380Y-47124360D03*
X95875760Y-47124360D03*
X96376140Y-47124360D03*
D12*
X97374360Y-46126140D03*
X97374360Y-45625760D03*
X97374360Y-45125380D03*
X97374360Y-44625000D03*
X97374360Y-44124620D03*
X97374360Y-43624240D03*
X97374360Y-43123860D03*
D11*
X96376140Y-42125640D03*
X95875760Y-42125640D03*
X95375380Y-42125640D03*
X94875000Y-42125640D03*
X94374620Y-42125640D03*
X93874240Y-42125640D03*
X93373860Y-42125640D03*
D13*
X94875000Y-44625000D03*
D21*
X95925000Y-39625000D03*
X96825000Y-39625000D03*
X92925000Y-38375000D03*
X93825000Y-38375000D03*
D16*
X98375000Y-37675000D03*
X98375000Y-36575000D03*
D10*
G36*
X102897239Y-42413355D02*
X102683235Y-42139443D01*
X103035949Y-41863873D01*
X103249953Y-42137785D01*
X102897239Y-42413355D01*
X102897239Y-42413355D01*
G37*
G36*
X103764051Y-41736127D02*
X103550047Y-41462215D01*
X103902761Y-41186645D01*
X104116765Y-41460557D01*
X103764051Y-41736127D01*
X103764051Y-41736127D01*
G37*
D16*
X100375000Y-36575000D03*
X100375000Y-37675000D03*
D15*
X99325000Y-39375000D03*
X100425000Y-39375000D03*
D16*
X102875000Y-52175000D03*
X102875000Y-51075000D03*
D15*
X99075000Y-41125000D03*
X100175000Y-41125000D03*
D16*
X88375000Y-52175000D03*
X88375000Y-51075000D03*
D15*
X99075000Y-48125000D03*
X100175000Y-48125000D03*
X92925000Y-39875000D03*
X91825000Y-39875000D03*
X98825000Y-49625000D03*
X99925000Y-49625000D03*
D20*
X100325000Y-45525000D03*
X100325000Y-43725000D03*
X99625000Y-45525000D03*
X99625000Y-43725000D03*
X98925000Y-45525000D03*
X98925000Y-43725000D03*
D19*
X90776140Y-54375000D03*
X100473860Y-54375000D03*
D18*
X89500000Y-20651140D03*
X89500000Y-30348860D03*
D17*
X98350000Y-30200000D03*
X100150000Y-30200000D03*
X98350000Y-29500000D03*
X100150000Y-29500000D03*
X98350000Y-28800000D03*
X100150000Y-28800000D03*
D16*
X94250000Y-28700000D03*
X94250000Y-29800000D03*
X104000000Y-22800000D03*
X104000000Y-21700000D03*
X95750000Y-28950000D03*
X95750000Y-30050000D03*
D15*
X91700000Y-18250000D03*
X92800000Y-18250000D03*
D16*
X102750000Y-28950000D03*
X102750000Y-30050000D03*
D15*
X91700000Y-32750000D03*
X92800000Y-32750000D03*
D16*
X104500000Y-29200000D03*
X104500000Y-30300000D03*
D15*
X107300000Y-30250000D03*
X106200000Y-30250000D03*
D10*
G36*
X102786645Y-33697239D02*
X103060557Y-33483235D01*
X103336127Y-33835949D01*
X103062215Y-34049953D01*
X102786645Y-33697239D01*
X102786645Y-33697239D01*
G37*
G36*
X103463873Y-34564051D02*
X103737785Y-34350047D01*
X104013355Y-34702761D01*
X103739443Y-34916765D01*
X103463873Y-34564051D01*
X103463873Y-34564051D01*
G37*
D15*
X106200000Y-28250000D03*
X107300000Y-28250000D03*
D14*
X105500000Y-22800000D03*
X105500000Y-23700000D03*
X104250000Y-25800000D03*
X104250000Y-26700000D03*
D11*
X100751140Y-22250640D03*
X100250760Y-22250640D03*
X99750380Y-22250640D03*
X99250000Y-22250640D03*
X98749620Y-22250640D03*
X98249240Y-22250640D03*
X97748860Y-22250640D03*
D12*
X96750640Y-23248860D03*
X96750640Y-23749240D03*
X96750640Y-24249620D03*
X96750640Y-24750000D03*
X96750640Y-25250380D03*
X96750640Y-25750760D03*
X96750640Y-26251140D03*
D11*
X97748860Y-27249360D03*
X98249240Y-27249360D03*
X98749620Y-27249360D03*
X99250000Y-27249360D03*
X99750380Y-27249360D03*
X100250760Y-27249360D03*
X100751140Y-27249360D03*
D12*
X101749360Y-26251140D03*
X101749360Y-25750760D03*
X101749360Y-25250380D03*
X101749360Y-24750000D03*
X101749360Y-24249620D03*
X101749360Y-23749240D03*
X101749360Y-23248860D03*
D13*
X99250000Y-24750000D03*
D12*
X126749360Y-30251140D03*
X126749360Y-29750760D03*
X126749360Y-29250380D03*
X126749360Y-28750000D03*
X126749360Y-28249620D03*
X126749360Y-27749240D03*
X126749360Y-27248860D03*
D11*
X125751140Y-26250640D03*
X125250760Y-26250640D03*
X124750380Y-26250640D03*
X124250000Y-26250640D03*
X123749620Y-26250640D03*
X123249240Y-26250640D03*
X122748860Y-26250640D03*
D12*
X121750640Y-27248860D03*
X121750640Y-27749240D03*
X121750640Y-28249620D03*
X121750640Y-28750000D03*
X121750640Y-29250380D03*
X121750640Y-29750760D03*
X121750640Y-30251140D03*
D11*
X122748860Y-31249360D03*
X123249240Y-31249360D03*
X123749620Y-31249360D03*
X124250000Y-31249360D03*
X124750380Y-31249360D03*
X125250760Y-31249360D03*
X125751140Y-31249360D03*
D13*
X124250000Y-28750000D03*
D21*
X123200000Y-33750000D03*
X122300000Y-33750000D03*
X126200000Y-35000000D03*
X125300000Y-35000000D03*
D16*
X120750000Y-35700000D03*
X120750000Y-36800000D03*
D10*
G36*
X116302761Y-31986645D02*
X116516765Y-32260557D01*
X116164051Y-32536127D01*
X115950047Y-32262215D01*
X116302761Y-31986645D01*
X116302761Y-31986645D01*
G37*
G36*
X115435949Y-32663873D02*
X115649953Y-32937785D01*
X115297239Y-33213355D01*
X115083235Y-32939443D01*
X115435949Y-32663873D01*
X115435949Y-32663873D01*
G37*
D16*
X118750000Y-36800000D03*
X118750000Y-35700000D03*
D15*
X119800000Y-34000000D03*
X118700000Y-34000000D03*
D16*
X116250000Y-21200000D03*
X116250000Y-22300000D03*
D15*
X120050000Y-32250000D03*
X118950000Y-32250000D03*
D16*
X130750000Y-21200000D03*
X130750000Y-22300000D03*
D15*
X120050000Y-25250000D03*
X118950000Y-25250000D03*
X126200000Y-33500000D03*
X127300000Y-33500000D03*
X120300000Y-23750000D03*
X119200000Y-23750000D03*
D20*
X118800000Y-27850000D03*
X118800000Y-29650000D03*
X119500000Y-27850000D03*
X119500000Y-29650000D03*
X120200000Y-27850000D03*
X120200000Y-29650000D03*
D19*
X128348860Y-19000000D03*
X118651140Y-19000000D03*
D18*
X129250000Y-56598860D03*
X129250000Y-46901140D03*
D17*
X120400000Y-47050000D03*
X118600000Y-47050000D03*
X120400000Y-47750000D03*
X118600000Y-47750000D03*
X120400000Y-48450000D03*
X118600000Y-48450000D03*
D16*
X124500000Y-48550000D03*
X124500000Y-47450000D03*
X114750000Y-54450000D03*
X114750000Y-55550000D03*
X123000000Y-48300000D03*
X123000000Y-47200000D03*
D15*
X127050000Y-59000000D03*
X125950000Y-59000000D03*
D16*
X116000000Y-48300000D03*
X116000000Y-47200000D03*
D15*
X127050000Y-44500000D03*
X125950000Y-44500000D03*
D16*
X114250000Y-48050000D03*
X114250000Y-46950000D03*
D15*
X111450000Y-47000000D03*
X112550000Y-47000000D03*
D10*
G36*
X116313355Y-43902761D02*
X116039443Y-44116765D01*
X115763873Y-43764051D01*
X116037785Y-43550047D01*
X116313355Y-43902761D01*
X116313355Y-43902761D01*
G37*
G36*
X115636127Y-43035949D02*
X115362215Y-43249953D01*
X115086645Y-42897239D01*
X115360557Y-42683235D01*
X115636127Y-43035949D01*
X115636127Y-43035949D01*
G37*
D15*
X112550000Y-49000000D03*
X111450000Y-49000000D03*
D14*
X113250000Y-54450000D03*
X113250000Y-53550000D03*
X114500000Y-51450000D03*
X114500000Y-50550000D03*
D11*
X117998860Y-54999360D03*
X118499240Y-54999360D03*
X118999620Y-54999360D03*
X119500000Y-54999360D03*
X120000380Y-54999360D03*
X120500760Y-54999360D03*
X121001140Y-54999360D03*
D12*
X121999360Y-54001140D03*
X121999360Y-53500760D03*
X121999360Y-53000380D03*
X121999360Y-52500000D03*
X121999360Y-51999620D03*
X121999360Y-51499240D03*
X121999360Y-50998860D03*
D11*
X121001140Y-50000640D03*
X120500760Y-50000640D03*
X120000380Y-50000640D03*
X119500000Y-50000640D03*
X118999620Y-50000640D03*
X118499240Y-50000640D03*
X117998860Y-50000640D03*
D12*
X117000640Y-50998860D03*
X117000640Y-51499240D03*
X117000640Y-51999620D03*
X117000640Y-52500000D03*
X117000640Y-53000380D03*
X117000640Y-53500760D03*
X117000640Y-54001140D03*
D13*
X119500000Y-52500000D03*
D22*
X139750000Y-88750000D03*
X142450020Y-86049980D03*
X137049980Y-86049980D03*
X137049980Y-91450020D03*
X142450020Y-91450020D03*
D23*
X203500000Y-30000000D03*
D24*
X203500000Y-32540000D03*
X203500000Y-35080000D03*
X203500000Y-37620000D03*
X203500000Y-40160000D03*
X203500000Y-42700000D03*
X203500000Y-45240000D03*
X203500000Y-47780000D03*
X203500000Y-50320000D03*
X203500000Y-52860000D03*
X203500000Y-55400000D03*
X203500000Y-57940000D03*
X203500000Y-60480000D03*
X203500000Y-63020000D03*
X203500000Y-65560000D03*
X203500000Y-68100000D03*
X203500000Y-70640000D03*
X203500000Y-73180000D03*
X203500000Y-75720000D03*
X203500000Y-78260000D03*
X203500000Y-80800000D03*
X203500000Y-83340000D03*
X203500000Y-85880000D03*
X203500000Y-88420000D03*
X203500000Y-90960000D03*
X203500000Y-93500000D03*
X203500000Y-96040000D03*
X203500000Y-98580000D03*
X203500000Y-101120000D03*
X203500000Y-103660000D03*
X203500000Y-106200000D03*
X203500000Y-108740000D03*
D23*
X79500000Y-28750000D03*
D24*
X79500000Y-31290000D03*
X79500000Y-33830000D03*
X79500000Y-36370000D03*
X79500000Y-38910000D03*
X79500000Y-41450000D03*
X79500000Y-43990000D03*
X79500000Y-46530000D03*
X79500000Y-49070000D03*
X79500000Y-51610000D03*
X79500000Y-54150000D03*
X79500000Y-56690000D03*
X79500000Y-59230000D03*
X79500000Y-61770000D03*
X79500000Y-64310000D03*
X79500000Y-66850000D03*
X79500000Y-69390000D03*
X79500000Y-71930000D03*
X79500000Y-74470000D03*
X79500000Y-77010000D03*
X79500000Y-79550000D03*
X79500000Y-82090000D03*
X79500000Y-84630000D03*
X79500000Y-87170000D03*
X79500000Y-89710000D03*
X79500000Y-92250000D03*
X79500000Y-94790000D03*
X79500000Y-97330000D03*
X79500000Y-99870000D03*
X79500000Y-102410000D03*
X79500000Y-104950000D03*
X79500000Y-107490000D03*
D25*
X137700000Y-18500000D03*
D26*
X140240000Y-18500000D03*
X142780000Y-18500000D03*
X145320000Y-18500000D03*
D27*
X79500000Y-115000000D03*
X203500000Y-115000000D03*
D28*
X138095000Y-60945000D03*
X138095000Y-66555000D03*
X139365000Y-60945000D03*
X139365000Y-66555000D03*
X140635000Y-60945000D03*
X140635000Y-66555000D03*
X141905000Y-60945000D03*
X141905000Y-66555000D03*
D29*
X107095000Y-40705000D03*
X112705000Y-40705000D03*
X107095000Y-39435000D03*
X112705000Y-39435000D03*
X107095000Y-38165000D03*
X112705000Y-38165000D03*
X107095000Y-36895000D03*
X112705000Y-36895000D03*
X106095000Y-91605000D03*
X111705000Y-91605000D03*
X106095000Y-90335000D03*
X111705000Y-90335000D03*
X106095000Y-89065000D03*
X111705000Y-89065000D03*
X106095000Y-87795000D03*
X111705000Y-87795000D03*
X175505000Y-39595000D03*
X169895000Y-39595000D03*
X175505000Y-40865000D03*
X169895000Y-40865000D03*
X175505000Y-42135000D03*
X169895000Y-42135000D03*
X175505000Y-43405000D03*
X169895000Y-43405000D03*
X174005000Y-90795000D03*
X168395000Y-90795000D03*
X174005000Y-92065000D03*
X168395000Y-92065000D03*
X174005000Y-93335000D03*
X168395000Y-93335000D03*
X174005000Y-94605000D03*
X168395000Y-94605000D03*
M02*
